Preview_Opsz14-wght_900.00_wdth_125.00.ufo
<glyph name="exclam" format="2">
  <advance width="771"/>
  <unicode hex="0021"/>
  <outline>
    <contour>
      <point x="161.0" y="181.0" type="qcurve" smooth="yes"/>
      <point x="161.0" y="265.0"/>
      <point x="286.0" y="384.0"/>
      <point x="385.0" y="384.0" type="qcurve" smooth="yes"/>
      <point x="484.0" y="384.0"/>
      <point x="609.0" y="265.0"/>
      <point x="609.0" y="181.0" type="qcurve" smooth="yes"/>
      <point x="609.0" y="97.0"/>
      <point x="484.0" y="-22.0"/>
      <point x="385.0" y="-22.0" type="qcurve" smooth="yes"/>
      <point x="286.0" y="-22.0"/>
      <point x="161.0" y="97.0"/>
    </contour>
    <contour>
      <point x="157.0" y="1328.0" type="line" smooth="yes"/>
      <point x="154.0" y="1413.0"/>
      <point x="287.0" y="1528.0"/>
      <point x="379.0" y="1528.0" type="qcurve" smooth="yes"/>
      <point x="472.0" y="1529.0"/>
      <point x="612.0" y="1413.0"/>
      <point x="608.0" y="1328.0" type="qcurve" smooth="yes"/>
      <point x="596.0" y="1068.0" type="line"/>
      <point x="515.0" y="760.0" type="line"/>
      <point x="459.0" y="495.0" type="line"/>
      <point x="305.0" y="495.0" type="line"/>
      <point x="249.0" y="760.0" type="line"/>
      <point x="169.0" y="1068.0" type="line"/>
    </contour>
  </outline>
</glyph>
<glyph name="quotedbl" format="2">
  <advance width="1114"/>
  <unicode hex="0022"/>
  <outline>
    <contour>
      <point x="261.0" y="807.0" type="line"/>
      <point x="101.0" y="1337.0" type="line"/>
      <point x="101.0" y="1416.0"/>
      <point x="200.0" y="1558.0"/>
      <point x="308.0" y="1558.0" type="qcurve" smooth="yes"/>
      <point x="416.0" y="1558.0"/>
      <point x="515.0" y="1416.0"/>
      <point x="515.0" y="1337.0" type="qcurve"/>
      <point x="353.0" y="807.0" type="line"/>
    </contour>
    <contour>
      <point x="760.0" y="807.0" type="line"/>
      <point x="599.0" y="1337.0" type="line"/>
      <point x="599.0" y="1416.0"/>
      <point x="699.0" y="1558.0"/>
      <point x="806.0" y="1558.0" type="qcurve" smooth="yes"/>
      <point x="914.0" y="1558.0"/>
      <point x="1013.0" y="1416.0"/>
      <point x="1013.0" y="1337.0" type="qcurve"/>
      <point x="852.0" y="807.0" type="line"/>
    </contour>
  </outline>
</glyph>
<glyph name="ampersand" format="2">
  <advance width="2125"/>
  <unicode hex="0026"/>
  <outline>
    <contour>
      <point x="715.0" y="-28.0" type="qcurve" smooth="yes"/>
      <point x="387.0" y="-28.0"/>
      <point x="73.0" y="172.0"/>
      <point x="81.0" y="374.0" type="qcurve" smooth="yes"/>
      <point x="87.0" y="519.0"/>
      <point x="346.0" y="737.0"/>
      <point x="823.0" y="922.0" type="qcurve"/>
      <point x="924.0" y="957.0"/>
      <point x="1057.0" y="1116.0"/>
      <point x="1057.0" y="1206.0" type="qcurve" smooth="yes"/>
      <point x="1057.0" y="1278.0"/>
      <point x="945.0" y="1371.0"/>
      <point x="842.0" y="1371.0" type="qcurve" smooth="yes"/>
      <point x="729.0" y="1371.0"/>
      <point x="589.0" y="1283.0"/>
      <point x="587.0" y="1201.0" type="qcurve" smooth="yes"/>
      <point x="585.0" y="1109.0"/>
      <point x="724.0" y="950.0"/>
      <point x="899.0" y="920.0" type="qcurve"/>
      <point x="1517.0" y="264.0" type="line" smooth="yes"/>
      <point x="1586.0" y="190.0"/>
      <point x="1719.0" y="156.0"/>
      <point x="1787.0" y="156.0" type="qcurve" smooth="yes"/>
      <point x="1845.0" y="156.0"/>
      <point x="1934.0" y="188.0"/>
      <point x="1978.0" y="238.0" type="qcurve"/>
      <point x="2081.0" y="120.0" type="line"/>
      <point x="2027.0" y="51.0"/>
      <point x="1836.0" y="-38.0"/>
      <point x="1652.0" y="-37.0" type="qcurve" smooth="yes"/>
      <point x="1513.0" y="-36.0"/>
      <point x="1262.0" y="39.0"/>
      <point x="1136.0" y="175.0" type="qcurve" smooth="yes"/>
      <point x="565.0" y="780.0" type="line"/>
      <point x="455.0" y="821.0"/>
      <point x="280.0" y="1021.0"/>
      <point x="282.0" y="1164.0" type="qcurve" smooth="yes"/>
      <point x="284.0" y="1334.0"/>
      <point x="588.0" y="1527.0"/>
      <point x="850.0" y="1527.0" type="qcurve" smooth="yes"/>
      <point x="1102.0" y="1527.0"/>
      <point x="1331.0" y="1344.0"/>
      <point x="1323.0" y="1199.0" type="qcurve" smooth="yes"/>
      <point x="1315.0" y="1038.0"/>
      <point x="1027.0" y="841.0"/>
      <point x="881.0" y="802.0" type="qcurve"/>
      <point x="652.0" y="698.0"/>
      <point x="479.0" y="518.0"/>
      <point x="483.0" y="403.0" type="qcurve" smooth="yes"/>
      <point x="487.0" y="277.0"/>
      <point x="648.0" y="142.0"/>
      <point x="824.0" y="142.0" type="qcurve" smooth="yes"/>
      <point x="1157.0" y="142.0"/>
      <point x="1733.0" y="553.0"/>
      <point x="1906.0" y="852.0" type="qcurve"/>
      <point x="2093.0" y="838.0" type="line"/>
      <point x="1936.0" y="514.0"/>
      <point x="1162.0" y="-28.0"/>
    </contour>
    <contour>
      <point x="1404.0" y="826.0" type="line"/>
      <point x="1439.0" y="900.0"/>
      <point x="1560.0" y="971.0"/>
      <point x="1617.0" y="971.0" type="qcurve" smooth="yes"/>
      <point x="1672.0" y="971.0"/>
      <point x="1835.0" y="913.0"/>
      <point x="1896.0" y="913.0" type="qcurve" smooth="yes"/>
      <point x="1932.0" y="913.0"/>
      <point x="1983.0" y="924.0"/>
      <point x="2018.0" y="947.0" type="qcurve"/>
      <point x="2122.0" y="849.0" type="line"/>
      <point x="2060.0" y="794.0"/>
      <point x="1955.0" y="722.0"/>
      <point x="1899.0" y="722.0" type="qcurve" smooth="yes"/>
      <point x="1852.0" y="722.0"/>
      <point x="1661.0" y="783.0"/>
      <point x="1613.0" y="783.0" type="qcurve" smooth="yes"/>
      <point x="1565.0" y="783.0"/>
      <point x="1497.0" y="762.0"/>
      <point x="1469.0" y="742.0" type="qcurve"/>
    </contour>
  </outline>
</glyph>
<glyph name="parenright" format="2">
  <advance width="905"/>
  <unicode hex="0029"/>
  <outline>
    <contour>
      <point x="847.0" y="653.0" type="qcurve" smooth="yes"/>
      <point x="847.0" y="377.0"/>
      <point x="420.0" y="-98.0"/>
      <point x="127.0" y="-217.0" type="qcurve"/>
      <point x="17.0" y="-130.0" type="line"/>
      <point x="154.0" y="-10.0"/>
      <point x="354.0" y="383.0"/>
      <point x="354.0" y="654.0" type="qcurve" smooth="yes"/>
      <point x="354.0" y="920.0"/>
      <point x="161.0" y="1334.0"/>
      <point x="18.0" y="1447.0" type="qcurve"/>
      <point x="138.0" y="1524.0" type="line"/>
      <point x="421.0" y="1417.0"/>
      <point x="847.0" y="921.0"/>
    </contour>
  </outline>
</glyph>
<glyph name="hyphen" format="2">
  <advance width="1182"/>
  <unicode hex="002D"/>
  <outline>
    <contour>
      <point x="92.0" y="494.0" type="line"/>
      <point x="92.0" y="820.0" type="line"/>
      <point x="591.0" y="816.0" type="line"/>
      <point x="1090.0" y="820.0" type="line"/>
      <point x="1090.0" y="494.0" type="line"/>
      <point x="591.0" y="498.0" type="line"/>
    </contour>
  </outline>
</glyph>
<glyph name="A" format="2">
  <advance width="2187"/>
  <unicode hex="0041"/>
  <outline>
    <contour>
      <point x="54.0" y="0.0" type="line"/>
      <point x="56.0" y="128.0" type="line"/>
      <point x="248.0" y="162.0" type="line"/>
      <point x="478.0" y="705.0" type="line"/>
      <point x="873.0" y="1500.0" type="line"/>
      <point x="1357.0" y="1500.0" type="line"/>
      <point x="1694.0" y="780.0" type="line"/>
      <point x="1963.0" y="162.0" type="line"/>
      <point x="2133.0" y="128.0" type="line"/>
      <point x="2131.0" y="0.0" type="line"/>
      <point x="1230.0" y="0.0" type="line"/>
      <point x="1232.0" y="128.0" type="line"/>
      <point x="1411.0" y="166.0" type="line"/>
      <point x="1195.0" y="682.0" type="line"/>
      <point x="920.0" y="1183.0" type="line"/>
      <point x="656.0" y="668.0" type="line"/>
      <point x="446.0" y="167.0" type="line"/>
      <point x="636.0" y="128.0" type="line"/>
      <point x="634.0" y="0.0" type="line"/>
    </contour>
    <contour>
      <point x="927.0" y="610.0" type="line"/>
      <point x="1365.0" y="625.0" type="line"/>
      <point x="1411.0" y="463.0" type="line"/>
      <point x="925.0" y="456.0" type="line"/>
    </contour>
    <contour>
      <point x="481.0" y="463.0" type="line"/>
      <point x="527.0" y="624.0" type="line"/>
      <point x="927.0" y="610.0" type="line"/>
      <point x="925.0" y="456.0" type="line"/>
    </contour>
  </outline>
</glyph>
<glyph name="F" format="2">
  <advance width="1922"/>
  <unicode hex="0046"/>
  <outline>
    <contour>
      <point x="90.0" y="0.0" type="line"/>
      <point x="90.0" y="130.0" type="line"/>
      <point x="308.0" y="163.0" type="line"/>
      <point x="310.0" y="754.0" type="line"/>
      <point x="308.0" y="1322.0" type="line"/>
      <point x="90.0" y="1355.0" type="line"/>
      <point x="90.0" y="1500.0" type="line"/>
      <point x="1869.0" y="1500.0" type="line"/>
      <point x="1869.0" y="1139.0" type="line"/>
      <point x="1697.0" y="1139.0" type="line"/>
      <point x="1648.0" y="1342.0" type="line"/>
      <point x="867.0" y="1342.0" type="line"/>
      <point x="813.0" y="1318.0" type="line"/>
      <point x="816.0" y="760.0" type="line"/>
      <point x="818.0" y="168.0" type="line"/>
      <point x="1000.0" y="131.0" type="line"/>
      <point x="1000.0" y="0.0" type="line"/>
    </contour>
    <contour>
      <point x="562.0" y="693.0" type="line"/>
      <point x="562.0" y="839.0" type="line"/>
      <point x="1597.0" y="847.0" type="line"/>
      <point x="1634.0" y="995.0" type="line"/>
      <point x="1776.0" y="995.0" type="line"/>
      <point x="1776.0" y="540.0" type="line"/>
      <point x="1634.0" y="540.0" type="line"/>
      <point x="1597.0" y="685.0" type="line"/>
    </contour>
  </outline>
</glyph>
<glyph name="L" format="2">
  <advance width="1736"/>
  <unicode hex="004C"/>
  <outline>
    <contour>
      <point x="132.0" y="0.0" type="line"/>
      <point x="132.0" y="130.0" type="line"/>
      <point x="308.0" y="167.0" type="line"/>
      <point x="310.0" y="754.0" type="line"/>
      <point x="308.0" y="1322.0" type="line"/>
      <point x="90.0" y="1355.0" type="line"/>
      <point x="90.0" y="1500.0" type="line"/>
      <point x="1014.0" y="1500.0" type="line"/>
      <point x="1014.0" y="1356.0" type="line"/>
      <point x="814.0" y="1322.0" type="line"/>
      <point x="813.0" y="754.0" type="line"/>
      <point x="815.0" y="174.0" type="line"/>
      <point x="837.0" y="150.0" type="line"/>
      <point x="1404.0" y="150.0" type="line"/>
      <point x="1484.0" y="429.0" type="line"/>
      <point x="1664.0" y="429.0" type="line"/>
      <point x="1619.0" y="0.0" type="line"/>
    </contour>
  </outline>
</glyph>
<glyph name="backslash" format="2">
  <advance width="1124"/>
  <unicode hex="005C"/>
  <outline>
    <contour>
      <point x="-7.0" y="1473.0" type="line"/>
      <point x="298.0" y="1605.0" type="line"/>
      <point x="1140.0" y="-73.0" type="line"/>
      <point x="834.0" y="-203.0" type="line"/>
    </contour>
  </outline>
</glyph>
<glyph name="underscore" format="2">
  <advance width="2173"/>
  <unicode hex="005F"/>
  <outline>
    <contour>
      <point x="-20.0" y="-481.0" type="line"/>
      <point x="-20.0" y="-232.0" type="line"/>
      <point x="1083.0" y="-226.0" type="line"/>
      <point x="2193.0" y="-232.0" type="line"/>
      <point x="2193.0" y="-481.0" type="line"/>
      <point x="1083.0" y="-481.0" type="line"/>
    </contour>
  </outline>
</glyph>
<glyph name="g" format="2">
  <advance width="1798"/>
  <unicode hex="0067"/>
  <outline>
    <contour>
      <point x="63.0" y="-241.0" type="qcurve" smooth="yes"/>
      <point x="63.0" y="-148.0"/>
      <point x="303.0" y="-11.0"/>
      <point x="530.0" y="-4.0" type="qcurve"/>
      <point x="619.0" y="-46.0" type="line"/>
      <point x="520.0" y="-73.0"/>
      <point x="401.0" y="-173.0"/>
      <point x="401.0" y="-232.0" type="qcurve" smooth="yes"/>
      <point x="401.0" y="-307.0"/>
      <point x="652.0" y="-371.0"/>
      <point x="878.0" y="-371.0" type="qcurve" smooth="yes"/>
      <point x="1113.0" y="-371.0"/>
      <point x="1357.0" y="-283.0"/>
      <point x="1357.0" y="-225.0" type="qcurve" smooth="yes"/>
      <point x="1357.0" y="-168.0"/>
      <point x="1189.0" y="-130.0"/>
      <point x="919.0" y="-127.0" type="qcurve" smooth="yes"/>
      <point x="516.0" y="-121.0"/>
      <point x="155.0" y="29.0"/>
      <point x="155.0" y="149.0" type="qcurve" smooth="yes"/>
      <point x="155.0" y="221.0"/>
      <point x="310.0" y="345.0"/>
      <point x="449.0" y="388.0" type="qcurve"/>
      <point x="566.0" y="335.0" type="line"/>
      <point x="467.0" y="306.0"/>
      <point x="389.0" y="251.0"/>
      <point x="389.0" y="219.0" type="qcurve" smooth="yes"/>
      <point x="389.0" y="174.0"/>
      <point x="531.0" y="139.0"/>
      <point x="941.0" y="136.0" type="qcurve" smooth="yes"/>
      <point x="1470.0" y="131.0"/>
      <point x="1794.0" y="-4.0"/>
      <point x="1794.0" y="-150.0" type="qcurve" smooth="yes"/>
      <point x="1794.0" y="-310.0"/>
      <point x="1368.0" y="-496.0"/>
      <point x="890.0" y="-496.0" type="qcurve" smooth="yes"/>
      <point x="437.0" y="-496.0"/>
      <point x="63.0" y="-352.0"/>
    </contour>
    <contour>
      <point x="173.0" y="658.0" type="qcurve" smooth="yes"/>
      <point x="173.0" y="857.0"/>
      <point x="551.0" y="1072.0"/>
      <point x="899.0" y="1072.0" type="qcurve" smooth="yes"/>
      <point x="1247.0" y="1072.0"/>
      <point x="1632.0" y="866.0"/>
      <point x="1633.0" y="663.0" type="qcurve" smooth="yes"/>
      <point x="1634.0" y="465.0"/>
      <point x="1249.0" y="231.0"/>
      <point x="903.0" y="231.0" type="qcurve" smooth="yes"/>
      <point x="556.0" y="231.0"/>
      <point x="173.0" y="455.0"/>
    </contour>
    <contour>
      <point x="584.0" y="653.0" type="qcurve" smooth="yes"/>
      <point x="584.0" y="483.0"/>
      <point x="753.0" y="366.0"/>
      <point x="904.0" y="366.0" type="qcurve" smooth="yes"/>
      <point x="1028.0" y="366.0"/>
      <point x="1228.0" y="488.0"/>
      <point x="1228.0" y="657.0" type="qcurve" smooth="yes"/>
      <point x="1228.0" y="811.0"/>
      <point x="1044.0" y="935.0"/>
      <point x="906.0" y="935.0" type="qcurve" smooth="yes"/>
      <point x="763.0" y="935.0"/>
      <point x="584.0" y="810.0"/>
    </contour>
    <contour>
      <point x="1038.0" y="926.0" type="line"/>
      <point x="1017.0" y="1043.0" type="line"/>
      <point x="1803.0" y="1051.0" type="line"/>
      <point x="1803.0" y="875.0" type="line"/>
    </contour>
  </outline>
</glyph>
<glyph name="j" format="2">
  <advance width="912"/>
  <unicode hex="006A"/>
  <outline>
    <contour>
      <point x="20.0" y="-471.0" type="qcurve"/>
      <point x="20.0" y="-293.0" type="line"/>
      <point x="159.0" y="-290.0"/>
      <point x="246.0" y="-184.0"/>
      <point x="246.0" y="-82.0" type="qcurve" smooth="yes"/>
      <point x="245.0" y="552.0" type="line"/>
      <point x="243.0" y="857.0" type="line"/>
      <point x="65.0" y="887.0" type="line"/>
      <point x="65.0" y="1020.0" type="line"/>
      <point x="616.0" y="1052.0" type="line"/>
      <point x="693.0" y="1052.0" type="line"/>
      <point x="736.0" y="1003.0" type="line"/>
      <point x="730.0" y="552.0" type="line"/>
      <point x="733.0" y="-94.0" type="line" smooth="yes"/>
      <point x="734.0" y="-273.0"/>
      <point x="453.0" y="-487.0"/>
    </contour>
    <contour>
      <point x="180.0" y="1329.0" type="qcurve" smooth="yes"/>
      <point x="180.0" y="1413.0"/>
      <point x="328.0" y="1517.0"/>
      <point x="465.0" y="1517.0" type="qcurve" smooth="yes"/>
      <point x="596.0" y="1517.0"/>
      <point x="755.0" y="1415.0"/>
      <point x="754.0" y="1329.0" type="qcurve" smooth="yes"/>
      <point x="754.0" y="1251.0"/>
      <point x="606.0" y="1153.0"/>
      <point x="467.0" y="1153.0" type="qcurve" smooth="yes"/>
      <point x="337.0" y="1153.0"/>
      <point x="180.0" y="1255.0"/>
    </contour>
  </outline>
</glyph>
<glyph name="p" format="2">
  <advance width="2121"/>
  <unicode hex="0070"/>
  <outline>
    <contour>
      <point x="67.0" y="-480.0" type="line"/>
      <point x="67.0" y="-361.0" type="line"/>
      <point x="270.0" y="-326.0" type="line"/>
      <point x="272.0" y="427.0" type="line"/>
      <point x="270.0" y="857.0" type="line"/>
      <point x="61.0" y="887.0" type="line"/>
      <point x="61.0" y="1020.0" type="line"/>
      <point x="676.0" y="1054.0" type="line"/>
      <point x="711.0" y="1027.0" type="line"/>
      <point x="747.0" y="887.0" type="line"/>
      <point x="823.0" y="968.0"/>
      <point x="1106.0" y="1072.0"/>
      <point x="1323.0" y="1072.0" type="qcurve" smooth="yes"/>
      <point x="1627.0" y="1072.0"/>
      <point x="2043.0" y="778.0"/>
      <point x="2043.0" y="555.0" type="qcurve" smooth="yes"/>
      <point x="2043.0" y="315.0"/>
      <point x="1607.0" y="-26.0"/>
      <point x="1239.0" y="-26.0" type="qcurve" smooth="yes"/>
      <point x="1059.0" y="-26.0"/>
      <point x="819.0" y="53.0"/>
      <point x="751.0" y="97.0" type="qcurve"/>
      <point x="753.0" y="-326.0" type="line"/>
      <point x="1005.0" y="-361.0" type="line"/>
      <point x="1005.0" y="-480.0" type="line"/>
    </contour>
    <contour>
      <point x="750.0" y="310.0" type="line"/>
      <point x="796.0" y="255.0"/>
      <point x="997.0" y="166.0"/>
      <point x="1131.0" y="166.0" type="qcurve" smooth="yes"/>
      <point x="1316.0" y="166.0"/>
      <point x="1527.0" y="355.0"/>
      <point x="1527.0" y="516.0" type="qcurve" smooth="yes"/>
      <point x="1527.0" y="674.0"/>
      <point x="1330.0" y="842.0"/>
      <point x="1139.0" y="842.0" type="qcurve" smooth="yes"/>
      <point x="1005.0" y="842.0"/>
      <point x="811.0" y="749.0"/>
      <point x="752.0" y="687.0" type="qcurve"/>
      <point x="747.0" y="453.0" type="line"/>
    </contour>
  </outline>
</glyph>
<glyph name="q" format="2">
  <advance width="2088"/>
  <unicode hex="0071"/>
  <outline>
    <contour>
      <point x="77.0" y="512.0" type="qcurve" smooth="yes"/>
      <point x="77.0" y="784.0"/>
      <point x="526.0" y="1070.0"/>
      <point x="891.0" y="1070.0" type="qcurve" smooth="yes"/>
      <point x="1040.0" y="1070.0"/>
      <point x="1283.0" y="1025.0"/>
      <point x="1368.0" y="981.0" type="qcurve"/>
      <point x="1458.0" y="1055.0" type="line"/>
      <point x="2032.0" y="1020.0" type="line"/>
      <point x="2032.0" y="887.0" type="line"/>
      <point x="1849.0" y="865.0" type="line"/>
      <point x="1842.0" y="453.0" type="line"/>
      <point x="1843.0" y="-326.0" type="line"/>
      <point x="2037.0" y="-361.0" type="line"/>
      <point x="2037.0" y="-480.0" type="line"/>
      <point x="1125.0" y="-480.0" type="line"/>
      <point x="1125.0" y="-361.0" type="line"/>
      <point x="1350.0" y="-328.0" type="line"/>
      <point x="1356.0" y="124.0" type="line"/>
      <point x="1283.0" y="70.0"/>
      <point x="985.0" y="-19.0"/>
      <point x="798.0" y="-19.0" type="qcurve" smooth="yes"/>
      <point x="490.0" y="-19.0"/>
      <point x="77.0" y="253.0"/>
    </contour>
    <contour>
      <point x="588.0" y="524.0" type="qcurve" smooth="yes"/>
      <point x="588.0" y="314.0"/>
      <point x="782.0" y="171.0"/>
      <point x="954.0" y="171.0" type="qcurve" smooth="yes"/>
      <point x="1111.0" y="171.0"/>
      <point x="1317.0" y="259.0"/>
      <point x="1357.0" y="311.0" type="qcurve"/>
      <point x="1361.0" y="787.0" type="line"/>
      <point x="1317.0" y="830.0"/>
      <point x="1111.0" y="886.0"/>
      <point x="1018.0" y="886.0" type="qcurve" smooth="yes"/>
      <point x="801.0" y="886.0"/>
      <point x="588.0" y="740.0"/>
    </contour>
  </outline>
</glyph>
<glyph name="braceleft" format="2">
  <advance width="842"/>
  <unicode hex="007B"/>
  <outline>
    <contour>
      <point x="4.0" y="476.0" type="line"/>
      <point x="4.0" y="594.0" type="line"/>
      <point x="133.0" y="604.0" type="line" smooth="yes"/>
      <point x="185.0" y="609.0"/>
      <point x="267.0" y="667.0"/>
      <point x="267.0" y="741.0" type="qcurve" smooth="yes"/>
      <point x="267.0" y="839.0"/>
      <point x="117.0" y="1066.0"/>
      <point x="117.0" y="1184.0" type="qcurve" smooth="yes"/>
      <point x="117.0" y="1343.0"/>
      <point x="322.0" y="1510.0"/>
      <point x="454.0" y="1510.0" type="qcurve" smooth="yes"/>
      <point x="511.0" y="1510.0"/>
      <point x="799.0" y="1502.0"/>
      <point x="828.0" y="1497.0" type="qcurve"/>
      <point x="828.0" y="1383.0" type="line"/>
      <point x="787.0" y="1385.0"/>
      <point x="704.0" y="1388.0"/>
      <point x="664.0" y="1388.0" type="qcurve" smooth="yes"/>
      <point x="594.0" y="1388.0"/>
      <point x="518.0" y="1304.0"/>
      <point x="518.0" y="1208.0" type="qcurve" smooth="yes"/>
      <point x="518.0" y="1107.0"/>
      <point x="663.0" y="883.0"/>
      <point x="663.0" y="792.0" type="qcurve" smooth="yes"/>
      <point x="663.0" y="697.0"/>
      <point x="552.0" y="576.0"/>
      <point x="433.0" y="554.0" type="qcurve"/>
      <point x="557.0" y="531.0"/>
      <point x="663.0" y="408.0"/>
      <point x="663.0" y="331.0" type="qcurve" smooth="yes"/>
      <point x="663.0" y="230.0"/>
      <point x="508.0" y="-84.0"/>
      <point x="508.0" y="-184.0" type="qcurve" smooth="yes"/>
      <point x="508.0" y="-280.0"/>
      <point x="585.0" y="-372.0"/>
      <point x="657.0" y="-372.0" type="qcurve" smooth="yes"/>
      <point x="719.0" y="-372.0"/>
      <point x="783.0" y="-368.0"/>
      <point x="825.0" y="-365.0" type="qcurve"/>
      <point x="825.0" y="-477.0" type="line"/>
      <point x="795.0" y="-483.0"/>
      <point x="525.0" y="-495.0"/>
      <point x="468.0" y="-495.0" type="qcurve" smooth="yes"/>
      <point x="303.0" y="-495.0"/>
      <point x="107.0" y="-327.0"/>
      <point x="107.0" y="-168.0" type="qcurve" smooth="yes"/>
      <point x="107.0" y="-50.0"/>
      <point x="266.0" y="246.0"/>
      <point x="266.0" y="364.0" type="qcurve"/>
      <point x="266.0" y="476.0" type="line"/>
    </contour>
  </outline>
</glyph>
<glyph name="exclamdown" format="2">
  <advance width="771"/>
  <unicode hex="00A1"/>
  <outline>
    <contour>
      <point x="604.0" y="1145.0" type="qcurve" smooth="yes"/>
      <point x="604.0" y="1061.0"/>
      <point x="479.0" y="942.0"/>
      <point x="380.0" y="942.0" type="qcurve" smooth="yes"/>
      <point x="281.0" y="942.0"/>
      <point x="156.0" y="1061.0"/>
      <point x="156.0" y="1145.0" type="qcurve" smooth="yes"/>
      <point x="156.0" y="1229.0"/>
      <point x="281.0" y="1348.0"/>
      <point x="380.0" y="1348.0" type="qcurve" smooth="yes"/>
      <point x="479.0" y="1348.0"/>
      <point x="604.0" y="1229.0"/>
    </contour>
    <contour>
      <point x="608.0" y="28.0" type="line" smooth="yes"/>
      <point x="611.0" y="-57.0"/>
      <point x="478.0" y="-172.0"/>
      <point x="386.0" y="-172.0" type="qcurve" smooth="yes"/>
      <point x="293.0" y="-173.0"/>
      <point x="153.0" y="-57.0"/>
      <point x="157.0" y="28.0" type="qcurve" smooth="yes"/>
      <point x="166.0" y="258.0" type="line"/>
      <point x="250.0" y="566.0" type="line"/>
      <point x="306.0" y="831.0" type="line"/>
      <point x="460.0" y="831.0" type="line"/>
      <point x="516.0" y="566.0" type="line"/>
      <point x="599.0" y="258.0" type="line"/>
    </contour>
  </outline>
</glyph>
<glyph name="sterling" format="2">
  <advance width="1512"/>
  <unicode hex="00A3"/>
  <outline>
    <contour>
      <point x="868.0" y="560.0" type="qcurve" smooth="yes"/>
      <point x="868.0" y="454.0"/>
      <point x="748.0" y="310.0"/>
      <point x="642.0" y="248.0" type="qcurve"/>
      <point x="652.0" y="222.0" type="line"/>
      <point x="1219.0" y="208.0" type="line"/>
      <point x="1353.0" y="422.0" type="line"/>
      <point x="1499.0" y="422.0" type="line"/>
      <point x="1370.0" y="0.0" type="line"/>
      <point x="91.0" y="0.0" type="line"/>
      <point x="23.0" y="140.0" type="line"/>
      <point x="113.0" y="241.0" type="line"/>
      <point x="357.0" y="230.0"/>
      <point x="559.0" y="369.0"/>
      <point x="559.0" y="518.0" type="qcurve" smooth="yes"/>
      <point x="559.0" y="546.0"/>
      <point x="437.0" y="669.0"/>
      <point x="368.0" y="737.0" type="qcurve" smooth="yes"/>
      <point x="264.0" y="843.0"/>
      <point x="186.0" y="1015.0"/>
      <point x="186.0" y="1122.0" type="qcurve" smooth="yes"/>
      <point x="186.0" y="1309.0"/>
      <point x="484.0" y="1516.0"/>
      <point x="807.0" y="1516.0" type="qcurve" smooth="yes"/>
      <point x="1007.0" y="1516.0"/>
      <point x="1296.0" y="1418.0"/>
      <point x="1401.0" y="1328.0" type="qcurve"/>
      <point x="1310.0" y="1151.0" type="line"/>
      <point x="1226.0" y="1229.0"/>
      <point x="1001.0" y="1304.0"/>
      <point x="883.0" y="1304.0" type="qcurve" smooth="yes"/>
      <point x="734.0" y="1304.0"/>
      <point x="621.0" y="1209.0"/>
      <point x="621.0" y="1126.0" type="qcurve" smooth="yes"/>
      <point x="621.0" y="1050.0"/>
      <point x="671.0" y="923.0"/>
      <point x="755.0" y="836.0" type="qcurve" smooth="yes"/>
      <point x="830.0" y="759.0"/>
      <point x="868.0" y="639.0"/>
    </contour>
    <contour>
      <point x="235.0" y="581.0" type="line"/>
      <point x="194.0" y="777.0" type="line"/>
      <point x="1288.0" y="777.0" type="line"/>
      <point x="1239.0" y="581.0" type="line"/>
    </contour>
  </outline>
</glyph>
<glyph name="currency" format="2">
  <advance width="1498"/>
  <unicode hex="00A4"/>
  <outline>
    <contour>
      <point x="229.0" y="790.0" type="qcurve" smooth="yes"/>
      <point x="229.0" y="1002.0"/>
      <point x="509.0" y="1301.0"/>
      <point x="736.0" y="1301.0" type="qcurve" smooth="yes"/>
      <point x="965.0" y="1301.0"/>
      <point x="1248.0" y="1022.0"/>
      <point x="1248.0" y="796.0" type="qcurve" smooth="yes"/>
      <point x="1248.0" y="584.0"/>
      <point x="970.0" y="278.0"/>
      <point x="742.0" y="278.0" type="qcurve" smooth="yes"/>
      <point x="514.0" y="278.0"/>
      <point x="229.0" y="561.0"/>
    </contour>
    <contour>
      <point x="449.0" y="805.0" type="qcurve" smooth="yes"/>
      <point x="450.0" y="671.0"/>
      <point x="606.0" y="487.0"/>
      <point x="734.0" y="487.0" type="qcurve" smooth="yes"/>
      <point x="873.0" y="487.0"/>
      <point x="1021.0" y="654.0"/>
      <point x="1021.0" y="793.0" type="qcurve" smooth="yes"/>
      <point x="1021.0" y="921.0"/>
      <point x="865.0" y="1087.0"/>
      <point x="736.0" y="1087.0" type="qcurve" smooth="yes"/>
      <point x="596.0" y="1087.0"/>
      <point x="448.0" y="936.0"/>
    </contour>
    <contour>
      <point x="370.0" y="1033.0" type="line"/>
      <point x="114.0" y="1289.0" type="line"/>
      <point x="257.0" y="1429.0" type="line"/>
      <point x="513.0" y="1173.0" type="line"/>
    </contour>
    <contour>
      <point x="1129.0" y="1033.0" type="line"/>
      <point x="986.0" y="1173.0" type="line"/>
      <point x="1242.0" y="1429.0" type="line"/>
      <point x="1385.0" y="1289.0" type="line"/>
    </contour>
    <contour>
      <point x="370.0" y="527.0" type="line"/>
      <point x="523.0" y="387.0" type="line"/>
      <point x="267.0" y="131.0" type="line"/>
      <point x="114.0" y="271.0" type="line"/>
    </contour>
    <contour>
      <point x="1129.0" y="527.0" type="line"/>
      <point x="1385.0" y="271.0" type="line"/>
      <point x="1242.0" y="131.0" type="line"/>
      <point x="986.0" y="387.0" type="line"/>
    </contour>
  </outline>
</glyph>
<glyph name="dieresis" format="2">
  <advance width="1024"/>
  <unicode hex="00A8"/>
  <outline>
    <contour>
      <point x="596.0" y="1341.0" type="qcurve" smooth="yes"/>
      <point x="596.0" y="1412.0"/>
      <point x="674.0" y="1487.0"/>
      <point x="746.0" y="1487.0" type="qcurve" smooth="yes"/>
      <point x="815.0" y="1487.0"/>
      <point x="896.0" y="1406.0"/>
      <point x="896.0" y="1341.0" type="qcurve" smooth="yes"/>
      <point x="896.0" y="1270.0"/>
      <point x="820.0" y="1194.0"/>
      <point x="746.0" y="1194.0" type="qcurve" smooth="yes"/>
      <point x="677.0" y="1194.0"/>
      <point x="596.0" y="1274.0"/>
    </contour>
    <contour>
      <point x="128.0" y="1341.0" type="qcurve" smooth="yes"/>
      <point x="128.0" y="1412.0"/>
      <point x="205.0" y="1487.0"/>
      <point x="278.0" y="1487.0" type="qcurve" smooth="yes"/>
      <point x="347.0" y="1487.0"/>
      <point x="428.0" y="1406.0"/>
      <point x="428.0" y="1341.0" type="qcurve" smooth="yes"/>
      <point x="428.0" y="1270.0"/>
      <point x="351.0" y="1194.0"/>
      <point x="278.0" y="1194.0" type="qcurve" smooth="yes"/>
      <point x="209.0" y="1194.0"/>
      <point x="128.0" y="1274.0"/>
    </contour>
  </outline>
</glyph>
<glyph name="registered" format="2">
  <advance width="2253"/>
  <unicode hex="00AE"/>
  <outline>
    <contour>
      <point x="111.0" y="673.0" type="qcurve" smooth="yes"/>
      <point x="111.0" y="1049.0"/>
      <point x="674.0" y="1568.0"/>
      <point x="1119.0" y="1568.0" type="qcurve" smooth="yes"/>
      <point x="1561.0" y="1568.0"/>
      <point x="2142.0" y="1075.0"/>
      <point x="2142.0" y="694.0" type="qcurve" smooth="yes"/>
      <point x="2142.0" y="276.0"/>
      <point x="1579.0" y="-244.0"/>
      <point x="1142.0" y="-244.0" type="qcurve" smooth="yes"/>
      <point x="692.0" y="-244.0"/>
      <point x="111.0" y="264.0"/>
    </contour>
    <contour>
      <point x="318.0" y="668.0" type="qcurve" smooth="yes"/>
      <point x="318.0" y="333.0"/>
      <point x="793.0" y="-73.0"/>
      <point x="1147.0" y="-73.0" type="qcurve" smooth="yes"/>
      <point x="1492.0" y="-73.0"/>
      <point x="1935.0" y="356.0"/>
      <point x="1935.0" y="684.0" type="qcurve" smooth="yes"/>
      <point x="1935.0" y="984.0"/>
      <point x="1477.0" y="1397.0"/>
      <point x="1118.0" y="1397.0" type="qcurve" smooth="yes"/>
      <point x="777.0" y="1397.0"/>
      <point x="318.0" y="976.0"/>
    </contour>
    <contour>
      <point x="685.0" y="176.0" type="line"/>
      <point x="685.0" y="266.0" type="line"/>
      <point x="782.0" y="290.0" type="line"/>
      <point x="793.0" y="723.0" type="line"/>
      <point x="782.0" y="1068.0" type="line"/>
      <point x="675.0" y="1091.0" type="line"/>
      <point x="675.0" y="1209.0" type="line"/>
      <point x="1218.0" y="1209.0" type="line" smooth="yes"/>
      <point x="1376.0" y="1209.0"/>
      <point x="1559.0" y="1062.0"/>
      <point x="1559.0" y="928.0" type="qcurve" smooth="yes"/>
      <point x="1559.0" y="777.0"/>
      <point x="1342.0" y="614.0"/>
      <point x="1216.0" y="614.0" type="qcurve" smooth="yes"/>
      <point x="1165.0" y="614.0"/>
      <point x="1005.0" y="623.0"/>
      <point x="981.0" y="623.0" type="qcurve"/>
      <point x="981.0" y="738.0" type="line"/>
      <point x="1128.0" y="738.0" type="line" smooth="yes"/>
      <point x="1247.0" y="738.0"/>
      <point x="1331.0" y="828.0"/>
      <point x="1331.0" y="919.0" type="qcurve" smooth="yes"/>
      <point x="1331.0" y="1009.0"/>
      <point x="1249.0" y="1078.0"/>
      <point x="1146.0" y="1078.0" type="qcurve" smooth="yes"/>
      <point x="1039.0" y="1078.0" type="line"/>
      <point x="1018.0" y="1065.0" type="line"/>
      <point x="1005.0" y="703.0" type="line"/>
      <point x="1016.0" y="290.0" type="line"/>
      <point x="1118.0" y="266.0" type="line"/>
      <point x="1118.0" y="176.0" type="line"/>
    </contour>
    <contour>
      <point x="1109.0" y="690.0" type="line"/>
      <point x="1330.0" y="718.0" type="line"/>
      <point x="1530.0" y="393.0" type="line" smooth="yes"/>
      <point x="1593.0" y="291.0"/>
      <point x="1646.0" y="266.0"/>
      <point x="1688.0" y="266.0" type="qcurve"/>
      <point x="1688.0" y="176.0" type="line"/>
      <point x="1447.0" y="176.0" type="line"/>
      <point x="1405.0" y="190.0" type="line"/>
    </contour>
  </outline>
</glyph>
<glyph name="twosuperior" format="2">
  <advance width="1024"/>
  <unicode hex="00B2"/>
  <outline>
    <contour>
      <point x="95.0" y="671.0" type="line"/>
      <point x="97.0" y="756.0" type="line"/>
      <point x="117.0" y="849.0"/>
      <point x="291.0" y="1025.0"/>
      <point x="420.0" y="1073.0" type="qcurve" smooth="yes"/>
      <point x="520.0" y="1107.0"/>
      <point x="629.0" y="1197.0"/>
      <point x="628.0" y="1254.0" type="qcurve" smooth="yes"/>
      <point x="628.0" y="1306.0"/>
      <point x="539.0" y="1364.0"/>
      <point x="451.0" y="1364.0" type="qcurve" smooth="yes"/>
      <point x="373.0" y="1364.0"/>
      <point x="233.0" y="1313.0"/>
      <point x="167.0" y="1263.0" type="qcurve"/>
      <point x="126.0" y="1378.0" type="line"/>
      <point x="187.0" y="1432.0"/>
      <point x="414.0" y="1520.0"/>
      <point x="538.0" y="1520.0" type="qcurve" smooth="yes"/>
      <point x="755.0" y="1520.0"/>
      <point x="915.0" y="1394.0"/>
      <point x="918.0" y="1292.0" type="qcurve" smooth="yes"/>
      <point x="921.0" y="1176.0"/>
      <point x="780.0" y="1042.0"/>
      <point x="582.0" y="975.0" type="qcurve" smooth="yes"/>
      <point x="409.0" y="925.0"/>
      <point x="330.0" y="886.0"/>
      <point x="317.0" y="869.0" type="qcurve"/>
      <point x="325.0" y="871.0" type="line"/>
      <point x="942.0" y="870.0" type="line"/>
      <point x="942.0" y="671.0" type="line"/>
    </contour>
  </outline>
</glyph>
<glyph name="micro" format="2">
  <advance width="2161"/>
  <unicode hex="00B5"/>
  <outline>
    <contour>
      <point x="65.0" y="-277.0" type="line"/>
      <point x="111.0" y="-255.0" type="line"/>
      <point x="149.8401980143" y="-99.6392079428"/>
      <point x="229.0" y="269.0"/>
      <point x="249.0" y="367.0" type="qcurve" smooth="yes"/>
      <point x="348.0" y="857.0" type="line"/>
      <point x="93.0" y="873.0" type="line"/>
      <point x="103.0" y="1004.0" type="line"/>
      <point x="700.0" y="1049.0" type="line"/>
      <point x="798.0" y="1049.0" type="line"/>
      <point x="851.0" y="934.0" type="line"/>
      <point x="738.0" y="386.0" type="line" smooth="yes"/>
      <point x="721.0" y="303.0"/>
      <point x="780.0" y="198.0"/>
      <point x="902.0" y="198.0" type="qcurve" smooth="yes"/>
      <point x="1073.0" y="198.0"/>
      <point x="1370.0" y="295.0"/>
      <point x="1421.0" y="351.0" type="qcurve"/>
      <point x="1525.0" y="817.0" type="line"/>
      <point x="1460.0" y="1020.0" type="line"/>
      <point x="2014.0" y="1049.0" type="line"/>
      <point x="2043.0" y="922.0" type="line"/>
      <point x="1952.0" y="560.0" type="line"/>
      <point x="1892.0" y="214.0" type="line"/>
      <point x="2117.0" y="218.0" type="line"/>
      <point x="2115.0" y="86.0" type="line"/>
      <point x="1482.0" y="-15.0" type="line"/>
      <point x="1420.0" y="58.0" type="line"/>
      <point x="1415.0" y="182.0" type="line"/>
      <point x="1353.0" y="123.0"/>
      <point x="1050.0" y="4.0"/>
      <point x="805.0" y="-18.0" type="qcurve" smooth="yes"/>
      <point x="718.0" y="-25.0"/>
      <point x="617.0" y="-22.0"/>
      <point x="591.0" y="-14.0" type="qcurve"/>
      <point x="550.0" y="-228.0" type="line"/>
      <point x="756.0" y="-232.0" type="line"/>
      <point x="744.0" y="-361.0" type="line"/>
      <point x="84.0" y="-399.0" type="line"/>
    </contour>
  </outline>
</glyph>
<glyph name="ordmasculine" format="2">
  <advance width="1555"/>
  <unicode hex="00BA"/>
  <outline>
    <contour>
      <point x="67.0" y="1091.0" type="qcurve" smooth="yes"/>
      <point x="67.0" y="1298.0"/>
      <point x="454.0" y="1546.0"/>
      <point x="775.0" y="1546.0" type="qcurve" smooth="yes"/>
      <point x="1097.0" y="1546.0"/>
      <point x="1488.0" y="1310.0"/>
      <point x="1488.0" y="1096.0" type="qcurve" smooth="yes"/>
      <point x="1488.0" y="895.0"/>
      <point x="1102.0" y="635.0"/>
      <point x="783.0" y="635.0" type="qcurve" smooth="yes"/>
      <point x="461.0" y="635.0"/>
      <point x="67.0" y="876.0"/>
    </contour>
    <contour>
      <point x="457.0" y="1103.0" type="qcurve" smooth="yes"/>
      <point x="460.0" y="920.0"/>
      <point x="624.0" y="768.0"/>
      <point x="774.0" y="768.0" type="qcurve" smooth="yes"/>
      <point x="935.0" y="768.0"/>
      <point x="1093.0" y="904.0"/>
      <point x="1093.0" y="1093.0" type="qcurve" smooth="yes"/>
      <point x="1093.0" y="1269.0"/>
      <point x="927.0" y="1400.0"/>
      <point x="776.0" y="1400.0" type="qcurve" smooth="yes"/>
      <point x="614.0" y="1400.0"/>
      <point x="457.0" y="1283.0"/>
    </contour>
  </outline>
</glyph>
<glyph name="Thorn" format="2">
  <advance width="2034"/>
  <unicode hex="00DE"/>
  <outline>
    <contour>
      <point x="90.0" y="0.0" type="line"/>
      <point x="90.0" y="130.0" type="line"/>
      <point x="308.0" y="165.0" type="line"/>
      <point x="310.0" y="754.0" type="line"/>
      <point x="308.0" y="1322.0" type="line"/>
      <point x="90.0" y="1356.0" type="line"/>
      <point x="90.0" y="1500.0" type="line"/>
      <point x="1004.0" y="1500.0" type="line"/>
      <point x="1004.0" y="1341.0" type="line"/>
      <point x="806.0" y="1314.0" type="line"/>
      <point x="807.0" y="1210.0" type="line"/>
      <point x="1355.0" y="1210.0" type="line" smooth="yes"/>
      <point x="1647.0" y="1210.0"/>
      <point x="1943.0" y="987.0"/>
      <point x="1943.0" y="774.0" type="qcurve" smooth="yes"/>
      <point x="1943.0" y="495.0"/>
      <point x="1552.0" y="246.0"/>
      <point x="1168.0" y="246.0" type="qcurve" smooth="yes"/>
      <point x="1071.0" y="246.0"/>
      <point x="804.0" y="260.0"/>
      <point x="725.0" y="275.0" type="qcurve"/>
      <point x="734.0" y="437.0" type="line"/>
      <point x="786.0" y="427.0"/>
      <point x="1023.0" y="416.0"/>
      <point x="1090.0" y="416.0" type="qcurve" smooth="yes"/>
      <point x="1276.0" y="416.0"/>
      <point x="1465.0" y="564.0"/>
      <point x="1461.0" y="756.0" type="qcurve" smooth="yes"/>
      <point x="1458.0" y="903.0"/>
      <point x="1278.0" y="1030.0"/>
      <point x="1140.0" y="1030.0" type="qcurve" smooth="yes"/>
      <point x="808.0" y="1030.0" type="line"/>
      <point x="805.0" y="364.0" type="line"/>
      <point x="807.0" y="168.0" type="line"/>
      <point x="1017.0" y="130.0" type="line"/>
      <point x="1017.0" y="0.0" type="line"/>
    </contour>
  </outline>
</glyph>
<glyph name="thorn" format="2">
  <advance width="2163"/>
  <unicode hex="00FE"/>
  <outline>
    <contour>
      <point x="109.0" y="-480.0" type="line"/>
      <point x="109.0" y="-361.0" type="line"/>
      <point x="312.0" y="-326.0" type="line"/>
      <point x="314.0" y="427.0" type="line"/>
      <point x="311.0" y="1334.0" type="line"/>
      <point x="91.0" y="1364.0" type="line"/>
      <point x="91.0" y="1500.0" type="line"/>
      <point x="707.0" y="1534.0" type="line"/>
      <point x="739.0" y="1534.0" type="line"/>
      <point x="795.0" y="1488.0" type="line"/>
      <point x="789.0" y="887.0" type="line"/>
      <point x="865.0" y="968.0"/>
      <point x="1148.0" y="1072.0"/>
      <point x="1365.0" y="1072.0" type="qcurve" smooth="yes"/>
      <point x="1669.0" y="1072.0"/>
      <point x="2085.0" y="778.0"/>
      <point x="2085.0" y="555.0" type="qcurve" smooth="yes"/>
      <point x="2085.0" y="315.0"/>
      <point x="1649.0" y="-26.0"/>
      <point x="1281.0" y="-26.0" type="qcurve" smooth="yes"/>
      <point x="1101.0" y="-26.0"/>
      <point x="861.0" y="53.0"/>
      <point x="793.0" y="97.0" type="qcurve"/>
      <point x="795.0" y="-326.0" type="line"/>
      <point x="1047.0" y="-361.0" type="line"/>
      <point x="1047.0" y="-480.0" type="line"/>
    </contour>
    <contour>
      <point x="792.0" y="310.0" type="line"/>
      <point x="838.0" y="255.0"/>
      <point x="1039.0" y="166.0"/>
      <point x="1173.0" y="166.0" type="qcurve" smooth="yes"/>
      <point x="1358.0" y="166.0"/>
      <point x="1569.0" y="355.0"/>
      <point x="1569.0" y="516.0" type="qcurve" smooth="yes"/>
      <point x="1569.0" y="674.0"/>
      <point x="1372.0" y="842.0"/>
      <point x="1181.0" y="842.0" type="qcurve" smooth="yes"/>
      <point x="1047.0" y="842.0"/>
      <point x="850.0" y="749.0"/>
      <point x="791.0" y="687.0" type="qcurve"/>
      <point x="788.0" y="493.0" type="line"/>
    </contour>
  </outline>
</glyph>
<glyph name="florin" format="2">
  <advance width="1207"/>
  <unicode hex="0192"/>
  <outline>
    <contour>
      <point x="825.0" y="62.0" type="line" smooth="yes"/>
      <point x="826.0" y="-104.0"/>
      <point x="611.0" y="-310.0"/>
      <point x="393.0" y="-310.0" type="qcurve" smooth="yes"/>
      <point x="264.0" y="-310.0"/>
      <point x="96.0" y="-281.0"/>
      <point x="53.0" y="-261.0" type="qcurve" smooth="yes"/>
      <point x="19.0" y="-246.0" type="line"/>
      <point x="19.0" y="-90.0" type="line"/>
      <point x="26.0" y="-94.0" type="line" smooth="yes"/>
      <point x="64.0" y="-108.0"/>
      <point x="150.0" y="-123.0"/>
      <point x="191.0" y="-123.0" type="qcurve" smooth="yes"/>
      <point x="252.0" y="-123.0"/>
      <point x="334.0" y="-59.0"/>
      <point x="334.0" y="28.0" type="qcurve" smooth="yes"/>
      <point x="327.0" y="854.0" type="line"/>
      <point x="109.0" y="875.0" type="line"/>
      <point x="109.0" y="1008.0" type="line"/>
      <point x="328.0" y="1034.0" type="line"/>
      <point x="322.0" y="1150.0" type="line" smooth="yes"/>
      <point x="315.0" y="1324.0"/>
      <point x="530.0" y="1532.0"/>
      <point x="764.0" y="1532.0" type="qcurve" smooth="yes"/>
      <point x="890.0" y="1532.0"/>
      <point x="1060.0" y="1505.0"/>
      <point x="1103.0" y="1482.0" type="qcurve" smooth="yes"/>
      <point x="1128.0" y="1469.0" type="line"/>
      <point x="1128.0" y="1313.0" type="line"/>
      <point x="1119.0" y="1318.0" type="line" smooth="yes"/>
      <point x="1091.0" y="1329.0"/>
      <point x="1002.0" y="1345.0"/>
      <point x="950.0" y="1345.0" type="qcurve" smooth="yes"/>
      <point x="896.0" y="1345.0"/>
      <point x="818.0" y="1262.0"/>
      <point x="820.0" y="1184.0" type="qcurve" smooth="yes"/>
      <point x="821.0" y="1024.0" type="line"/>
      <point x="1122.0" y="1024.0" type="line"/>
      <point x="1122.0" y="872.0" type="line"/>
      <point x="820.0" y="865.0" type="line"/>
    </contour>
  </outline>
</glyph>
<glyph name="circumflex" format="2">
  <advance width="1024"/>
  <unicode hex="02C6"/>
  <outline>
    <contour>
      <point x="512.0" y="1618.0" type="qcurve" smooth="yes"/>
      <point x="561.0" y="1618.0"/>
      <point x="639.0" y="1576.0"/>
      <point x="692.0" y="1520.0" type="qcurve" smooth="yes"/>
      <point x="966.0" y="1239.0" type="line"/>
      <point x="883.0" y="1151.0" type="line"/>
      <point x="512.0" y="1384.0" type="line"/>
      <point x="141.0" y="1151.0" type="line"/>
      <point x="58.0" y="1239.0" type="line"/>
      <point x="332.0" y="1520.0" type="line" smooth="yes"/>
      <point x="391.0" y="1580.0"/>
      <point x="463.0" y="1618.0"/>
    </contour>
  </outline>
</glyph>
<glyph name="dotaccent" format="2">
  <advance width="1024"/>
  <unicode hex="02D9"/>
  <outline>
    <contour>
      <point x="356.0" y="1288.0" type="qcurve" smooth="yes"/>
      <point x="356.0" y="1363.0"/>
      <point x="437.0" y="1442.0"/>
      <point x="513.0" y="1442.0" type="qcurve" smooth="yes"/>
      <point x="585.0" y="1442.0"/>
      <point x="670.0" y="1357.0"/>
      <point x="670.0" y="1288.0" type="qcurve" smooth="yes"/>
      <point x="670.0" y="1214.0"/>
      <point x="591.0" y="1134.0"/>
      <point x="513.0" y="1134.0" type="qcurve" smooth="yes"/>
      <point x="441.0" y="1134.0"/>
      <point x="356.0" y="1218.0"/>
    </contour>
  </outline>
</glyph>
<glyph name="numeralsign" format="2">
  <advance width="607"/>
  <unicode hex="0374"/>
  <outline>
    <contour>
      <point x="210.0" y="907.0" type="line"/>
      <point x="90.0" y="951.0" type="line"/>
      <point x="214.0" y="1500.0" type="line"/>
      <point x="472.0" y="1450.0" type="line"/>
      <point x="539.0" y="1381.0" type="line"/>
    </contour>
  </outline>
</glyph>
<glyph name="lownumeralsign" format="2">
  <advance width="607"/>
  <unicode hex="0375"/>
  <outline>
    <contour>
      <point x="400.0" y="-312.0" type="line"/>
      <point x="142.0" y="-262.0" type="line"/>
      <point x="75.0" y="-193.0" type="line"/>
      <point x="404.0" y="281.0" type="line"/>
      <point x="524.0" y="237.0" type="line"/>
    </contour>
  </outline>
</glyph>
<glyph name="Gamma" format="2">
  <advance width="1892"/>
  <unicode hex="0393"/>
  <outline>
    <contour>
      <point x="90.0" y="0.0" type="line"/>
      <point x="90.0" y="130.0" type="line"/>
      <point x="308.0" y="163.0" type="line"/>
      <point x="310.0" y="754.0" type="line"/>
      <point x="308.0" y="1322.0" type="line"/>
      <point x="90.0" y="1355.0" type="line"/>
      <point x="90.0" y="1500.0" type="line"/>
      <point x="1839.0" y="1500.0" type="line"/>
      <point x="1839.0" y="1084.0" type="line"/>
      <point x="1691.0" y="1084.0" type="line"/>
      <point x="1616.0" y="1342.0" type="line"/>
      <point x="867.0" y="1342.0" type="line"/>
      <point x="813.0" y="1318.0" type="line"/>
      <point x="816.0" y="760.0" type="line"/>
      <point x="818.0" y="168.0" type="line"/>
      <point x="1000.0" y="131.0" type="line"/>
      <point x="1000.0" y="0.0" type="line"/>
    </contour>
  </outline>
</glyph>
<glyph name="Lambda" format="2">
  <advance width="2147"/>
  <unicode hex="039B"/>
  <outline>
    <contour>
      <point x="54.0" y="0.0" type="line"/>
      <point x="56.0" y="128.0" type="line"/>
      <point x="248.0" y="162.0" type="line"/>
      <point x="464.0" y="705.0" type="line"/>
      <point x="853.0" y="1500.0" type="line"/>
      <point x="1337.0" y="1500.0" type="line"/>
      <point x="1674.0" y="780.0" type="line"/>
      <point x="1923.0" y="162.0" type="line"/>
      <point x="2093.0" y="128.0" type="line"/>
      <point x="2091.0" y="0.0" type="line"/>
      <point x="1190.0" y="0.0" type="line"/>
      <point x="1192.0" y="128.0" type="line"/>
      <point x="1371.0" y="166.0" type="line"/>
      <point x="1175.0" y="682.0" type="line"/>
      <point x="900.0" y="1183.0" type="line"/>
      <point x="642.0" y="668.0" type="line"/>
      <point x="446.0" y="167.0" type="line"/>
      <point x="636.0" y="128.0" type="line"/>
      <point x="634.0" y="0.0" type="line"/>
    </contour>
  </outline>
</glyph>
<glyph name="Xi" format="2">
  <advance width="2017"/>
  <unicode hex="039E"/>
  <outline>
    <contour>
      <point x="95.0" y="0.0" type="line"/>
      <point x="59.0" y="571.0" type="line"/>
      <point x="215.0" y="571.0" type="line"/>
      <point x="287.0" y="342.0" type="line"/>
      <point x="993.0" y="337.0" type="line"/>
      <point x="1746.0" y="342.0" type="line"/>
      <point x="1817.0" y="571.0" type="line"/>
      <point x="1973.0" y="571.0" type="line"/>
      <point x="1938.0" y="0.0" type="line"/>
    </contour>
    <contour>
      <point x="507.0" y="509.0" type="line"/>
      <point x="507.0" y="994.0" type="line"/>
      <point x="648.0" y="994.0" type="line"/>
      <point x="694.0" y="840.0" type="line"/>
      <point x="1003.0" y="825.0" type="line"/>
      <point x="1339.0" y="840.0" type="line"/>
      <point x="1385.0" y="994.0" type="line"/>
      <point x="1526.0" y="994.0" type="line"/>
      <point x="1526.0" y="509.0" type="line"/>
      <point x="1385.0" y="509.0" type="line"/>
      <point x="1339.0" y="668.0" type="line"/>
      <point x="1003.0" y="683.0" type="line"/>
      <point x="694.0" y="668.0" type="line"/>
      <point x="648.0" y="509.0" type="line"/>
    </contour>
    <contour>
      <point x="93.0" y="1016.0" type="line"/>
      <point x="93.0" y="1501.0" type="line"/>
      <point x="1940.0" y="1501.0" type="line"/>
      <point x="1940.0" y="1016.0" type="line"/>
      <point x="1789.0" y="1016.0" type="line"/>
      <point x="1740.0" y="1161.0" type="line"/>
      <point x="995.0" y="1166.0" type="line"/>
      <point x="292.0" y="1161.0" type="line"/>
      <point x="244.0" y="1016.0" type="line"/>
    </contour>
  </outline>
</glyph>
<glyph name="Pi" format="2">
  <advance width="2519"/>
  <unicode hex="03A0"/>
  <outline>
    <contour>
      <point x="90.0" y="0.0" type="line"/>
      <point x="90.0" y="130.0" type="line"/>
      <point x="308.0" y="165.0" type="line"/>
      <point x="310.0" y="754.0" type="line"/>
      <point x="308.0" y="1322.0" type="line"/>
      <point x="90.0" y="1356.0" type="line"/>
      <point x="90.0" y="1500.0" type="line"/>
      <point x="2429.0" y="1500.0" type="line"/>
      <point x="2429.0" y="1356.0" type="line"/>
      <point x="2211.0" y="1322.0" type="line"/>
      <point x="2209.0" y="754.0" type="line"/>
      <point x="2211.0" y="165.0" type="line"/>
      <point x="2429.0" y="130.0" type="line"/>
      <point x="2429.0" y="0.0" type="line"/>
      <point x="1493.0" y="0.0" type="line"/>
      <point x="1493.0" y="130.0" type="line"/>
      <point x="1706.0" y="165.0" type="line"/>
      <point x="1708.0" y="754.0" type="line"/>
      <point x="1706.0" y="1320.0" type="line"/>
      <point x="1251.0" y="1326.0" type="line"/>
      <point x="815.0" y="1320.0" type="line"/>
      <point x="811.0" y="754.0" type="line"/>
      <point x="813.0" y="165.0" type="line"/>
      <point x="1026.0" y="130.0" type="line"/>
      <point x="1026.0" y="0.0" type="line"/>
    </contour>
  </outline>
</glyph>
<glyph name="alpha" format="2">
  <advance width="2215"/>
  <unicode hex="03B1"/>
  <anchor x="798.0" y="1050.0" name="GRKtop"/>
  <outline>
    <contour>
      <point x="793.0" y="-20.0" type="qcurve" smooth="yes"/>
      <point x="487.0" y="-20.0"/>
      <point x="81.0" y="265.0"/>
      <point x="81.0" y="521.0" type="qcurve" smooth="yes"/>
      <point x="81.0" y="774.0"/>
      <point x="501.0" y="1079.0"/>
      <point x="824.0" y="1079.0" type="qcurve" smooth="yes"/>
      <point x="1114.0" y="1079.0"/>
      <point x="1463.0" y="878.0"/>
      <point x="1564.0" y="570.0" type="qcurve"/>
      <point x="1690.0" y="570.0" type="line"/>
      <point x="1816.0" y="269.0"/>
      <point x="1874.0" y="171.0"/>
      <point x="1978.0" y="171.0" type="qcurve" smooth="yes"/>
      <point x="2146.0" y="171.0" type="line"/>
      <point x="2146.0" y="35.0" type="line"/>
      <point x="1712.0" y="-15.0" type="line"/>
      <point x="1563.0" y="-18.0"/>
      <point x="1458.0" y="110.0"/>
      <point x="1360.0" y="413.0" type="qcurve"/>
      <point x="1351.0" y="414.0" type="line"/>
      <point x="1213.0" y="824.0"/>
      <point x="1034.0" y="909.0"/>
      <point x="914.0" y="909.0" type="qcurve" smooth="yes"/>
      <point x="769.0" y="909.0"/>
      <point x="594.0" y="754.0"/>
      <point x="594.0" y="523.0" type="qcurve" smooth="yes"/>
      <point x="594.0" y="364.0"/>
      <point x="751.0" y="157.0"/>
      <point x="897.0" y="157.0" type="qcurve" smooth="yes"/>
      <point x="1035.0" y="157.0"/>
      <point x="1258.0" y="347.0"/>
      <point x="1408.0" y="651.0" type="qcurve"/>
      <point x="1413.0" y="651.0" type="line"/>
      <point x="1658.0" y="1042.0" type="line"/>
      <point x="2058.0" y="1063.0" type="line"/>
      <point x="2106.0" y="1014.0" type="line"/>
      <point x="1680.0" y="417.0" type="line"/>
      <point x="1509.0" y="417.0" type="line"/>
      <point x="1412.0" y="201.0"/>
      <point x="1026.0" y="-20.0"/>
    </contour>
  </outline>
</glyph>
<glyph name="beta" format="2">
  <advance width="2027"/>
  <unicode hex="03B2"/>
  <outline>
    <contour>
      <point x="201.0" y="-480.0" type="line"/>
      <point x="152.0" y="-432.0" type="line"/>
      <point x="171.0" y="112.0" type="line"/>
      <point x="171.0" y="959.0" type="line" smooth="yes"/>
      <point x="171.0" y="1214.0"/>
      <point x="565.0" y="1537.0"/>
      <point x="976.0" y="1537.0" type="qcurve" smooth="yes"/>
      <point x="1376.0" y="1537.0"/>
      <point x="1781.0" y="1327.0"/>
      <point x="1781.0" y="1162.0" type="qcurve" smooth="yes"/>
      <point x="1781.0" y="997.0"/>
      <point x="1260.0" y="737.0"/>
      <point x="882.0" y="613.0" type="qcurve" smooth="yes"/>
      <point x="858.0" y="608.0" type="line"/>
      <point x="806.0" y="653.0" type="line"/>
      <point x="912.0" y="946.0" type="line"/>
      <point x="995.0" y="942.0" type="line" smooth="yes"/>
      <point x="1454.0" y="913.0"/>
      <point x="1949.0" y="681.0"/>
      <point x="1949.0" y="457.0" type="qcurve" smooth="yes"/>
      <point x="1949.0" y="228.0"/>
      <point x="1493.0" y="-26.0"/>
      <point x="1160.0" y="-26.0" type="qcurve"/>
      <point x="1007.0" y="-26.0"/>
      <point x="568.0" y="97.0"/>
      <point x="482.0" y="174.0" type="qcurve"/>
      <point x="482.0" y="281.0" type="line"/>
      <point x="613.0" y="281.0" type="line"/>
      <point x="672.0" y="241.0"/>
      <point x="924.0" y="170.0"/>
      <point x="1041.0" y="170.0" type="qcurve" smooth="yes"/>
      <point x="1268.0" y="170.0"/>
      <point x="1483.0" y="322.0"/>
      <point x="1483.0" y="455.0" type="qcurve" smooth="yes"/>
      <point x="1483.0" y="603.0"/>
      <point x="1236.0" y="773.0"/>
      <point x="994.0" y="792.0" type="qcurve"/>
      <point x="1013.0" y="837.0" type="line"/>
      <point x="1163.0" y="874.0"/>
      <point x="1384.0" y="1023.0"/>
      <point x="1384.0" y="1151.0" type="qcurve" smooth="yes"/>
      <point x="1384.0" y="1266.0"/>
      <point x="1183.0" y="1407.0"/>
      <point x="1023.0" y="1407.0" type="qcurve" smooth="yes"/>
      <point x="800.0" y="1407.0"/>
      <point x="612.0" y="1187.0"/>
      <point x="616.0" y="909.0" type="qcurve" smooth="yes"/>
      <point x="629.0" y="117.0" type="line"/>
      <point x="644.0" y="-459.0" type="line"/>
    </contour>
  </outline>
</glyph>
<glyph name="gamma" format="2">
  <advance width="1754"/>
  <unicode hex="03B3"/>
  <guideline x="673.0" y="-40.0" angle="0" identifier="g2zcNzszsg"/>
  <outline>
    <contour>
      <point x="723.0" y="-480.0" type="line"/>
      <point x="675.0" y="-431.0" type="line"/>
      <point x="713.0" y="72.0" type="line"/>
      <point x="985.0" y="72.0" type="line"/>
      <point x="1204.0" y="599.0" type="line"/>
      <point x="1347.0" y="1046.0" type="line"/>
      <point x="1690.0" y="1062.0" type="line"/>
      <point x="1739.0" y="1013.0" type="line"/>
      <point x="1437.0" y="564.0" type="line"/>
      <point x="1074.0" y="-111.0" type="line"/>
      <point x="748.0" y="-113.0" type="line"/>
      <point x="414.0" y="460.0" type="line"/>
      <point x="219.0" y="764.0" type="line" smooth="yes"/>
      <point x="188.0" y="812.0"/>
      <point x="123.0" y="863.0"/>
      <point x="47.0" y="875.0" type="qcurve" smooth="yes"/>
      <point x="0.0" y="879.0" type="line"/>
      <point x="0.0" y="1012.0" type="line"/>
      <point x="456.0" y="1051.0" type="line"/>
      <point x="547.0" y="1052.0"/>
      <point x="667.0" y="956.0"/>
      <point x="695.0" y="901.0" type="qcurve" smooth="yes"/>
      <point x="858.0" y="605.0" type="line"/>
      <point x="1109.0" y="148.0" type="line"/>
      <point x="1126.0" y="148.0" type="line"/>
      <point x="1182.0" y="-460.0" type="line"/>
    </contour>
  </outline>
</glyph>
<glyph name="epsilon" format="2">
  <advance width="1596"/>
  <unicode hex="03B5"/>
  <anchor x="809.0" y="1050.0" name="GRKtop"/>
  <outline>
    <contour>
      <point x="726.0" y="-34.0" type="qcurve" smooth="yes"/>
      <point x="387.0" y="-34.0"/>
      <point x="39.0" y="112.0"/>
      <point x="39.0" y="256.0" type="qcurve" smooth="yes"/>
      <point x="39.0" y="402.0"/>
      <point x="364.0" y="587.0"/>
      <point x="891.0" y="645.0" type="qcurve" smooth="yes"/>
      <point x="1030.0" y="661.0" type="line"/>
      <point x="1086.0" y="621.0" type="line"/>
      <point x="993.0" y="384.0" type="line"/>
      <point x="915.0" y="392.0" type="line" smooth="yes"/>
      <point x="378.0" y="456.0"/>
      <point x="97.0" y="638.0"/>
      <point x="97.0" y="759.0" type="qcurve" smooth="yes"/>
      <point x="97.0" y="893.0"/>
      <point x="495.0" y="1087.0"/>
      <point x="863.0" y="1087.0" type="qcurve" smooth="yes"/>
      <point x="1035.0" y="1087.0"/>
      <point x="1429.0" y="1025.0"/>
      <point x="1502.0" y="987.0" type="qcurve"/>
      <point x="1502.0" y="665.0" type="line"/>
      <point x="1351.0" y="665.0" type="line"/>
      <point x="1314.0" y="829.0" type="line"/>
      <point x="1269.0" y="864.0"/>
      <point x="1084.0" y="900.0"/>
      <point x="989.0" y="900.0" type="qcurve" smooth="yes"/>
      <point x="768.0" y="900.0"/>
      <point x="552.0" y="805.0"/>
      <point x="552.0" y="725.0" type="qcurve" smooth="yes"/>
      <point x="552.0" y="667.0"/>
      <point x="673.0" y="562.0"/>
      <point x="934.0" y="514.0" type="qcurve"/>
      <point x="926.0" y="496.0" type="line"/>
      <point x="740.0" y="500.0"/>
      <point x="527.0" y="384.0"/>
      <point x="527.0" y="300.0" type="qcurve" smooth="yes"/>
      <point x="527.0" y="224.0"/>
      <point x="729.0" y="146.0"/>
      <point x="880.0" y="146.0" type="qcurve" smooth="yes"/>
      <point x="1053.0" y="146.0"/>
      <point x="1374.0" y="252.0"/>
      <point x="1514.0" y="360.0" type="qcurve"/>
      <point x="1606.0" y="227.0" type="line"/>
      <point x="1452.0" y="111.0"/>
      <point x="1045.0" y="-34.0"/>
    </contour>
  </outline>
</glyph>
<glyph name="zeta" format="2">
  <advance width="1409"/>
  <unicode hex="03B6"/>
  <outline>
    <contour>
      <point x="1166.0" y="-313.0" type="line"/>
      <point x="1125.0" y="-117.0" type="line" smooth="yes"/>
      <point x="1112.0" y="-55.0"/>
      <point x="1080.0" y="-14.0"/>
      <point x="989.0" y="-8.0" type="qcurve" smooth="yes"/>
      <point x="906.0" y="-3.0" type="line" smooth="yes"/>
      <point x="447.0" y="28.0"/>
      <point x="122.0" y="232.0"/>
      <point x="122.0" y="380.0" type="qcurve" smooth="yes"/>
      <point x="122.0" y="557.0"/>
      <point x="445.0" y="955.0"/>
      <point x="916.0" y="1264.0" type="qcurve"/>
      <point x="944.0" y="1245.0" type="line"/>
      <point x="194.0" y="1230.0" type="line"/>
      <point x="154.0" y="1257.0" type="line"/>
      <point x="199.0" y="1534.0" type="line"/>
      <point x="1364.0" y="1510.0" type="line"/>
      <point x="1364.0" y="1359.0" type="line"/>
      <point x="978.0" y="1062.0"/>
      <point x="634.0" y="650.0"/>
      <point x="633.0" y="488.0" type="qcurve" smooth="yes"/>
      <point x="632.0" y="391.0"/>
      <point x="786.0" y="306.0"/>
      <point x="1117.0" y="284.0" type="qcurve" smooth="yes"/>
      <point x="1168.0" y="279.0" type="line" smooth="yes"/>
      <point x="1262.0" y="268.0"/>
      <point x="1370.0" y="177.0"/>
      <point x="1375.0" y="85.0" type="qcurve"/>
      <point x="1299.0" y="-313.0" type="line"/>
    </contour>
  </outline>
</glyph>
<glyph name="eta" format="2">
  <advance width="1914"/>
  <unicode hex="03B7"/>
  <anchor x="801.0" y="1050.0" name="GRKtop"/>
  <outline>
    <contour>
      <point x="1405.0" y="-480.0" type="line"/>
      <point x="1357.0" y="-431.0" type="line"/>
      <point x="1364.0" y="512.0" type="line"/>
      <point x="1364.0" y="675.0" type="line" smooth="yes"/>
      <point x="1364.0" y="748.0"/>
      <point x="1255.0" y="814.0"/>
      <point x="1119.0" y="814.0" type="qcurve"/>
      <point x="996.0" y="814.0"/>
      <point x="788.0" y="717.0"/>
      <point x="697.0" y="648.0" type="qcurve"/>
      <point x="696.0" y="487.0" type="line"/>
      <point x="703.0" y="21.0" type="line"/>
      <point x="244.0" y="0.0" type="line"/>
      <point x="196.0" y="49.0" type="line"/>
      <point x="206.0" y="675.0" type="line"/>
      <point x="211.0" y="743.0"/>
      <point x="191.0" y="848.0"/>
      <point x="107.0" y="862.0" type="qcurve" smooth="yes"/>
      <point x="-4.0" y="879.0" type="line"/>
      <point x="-4.0" y="1012.0" type="line"/>
      <point x="446.0" y="1051.0" type="line"/>
      <point x="531.0" y="1051.0"/>
      <point x="668.0" y="966.0"/>
      <point x="684.0" y="826.0" type="qcurve"/>
      <point x="687.0" y="826.0" type="line"/>
      <point x="817.0" y="929.0"/>
      <point x="1118.0" y="1072.0"/>
      <point x="1295.0" y="1072.0" type="qcurve" smooth="yes"/>
      <point x="1580.0" y="1072.0"/>
      <point x="1844.0" y="874.0"/>
      <point x="1852.0" y="693.0" type="qcurve" smooth="yes"/>
      <point x="1849.0" y="572.0" type="line"/>
      <point x="1849.0" y="-459.0" type="line"/>
    </contour>
  </outline>
</glyph>
<glyph name="lambda" format="2">
  <advance width="1848"/>
  <unicode hex="03BB"/>
  <outline>
    <contour>
      <point x="1325.0" y="-15.0" type="line"/>
      <point x="1239.0" y="-19.0"/>
      <point x="1097.0" y="24.0"/>
      <point x="1068.0" y="101.0" type="qcurve" smooth="yes"/>
      <point x="713.0" y="915.0" type="line"/>
      <point x="478.0" y="1296.0" type="line" smooth="yes"/>
      <point x="459.0" y="1308.0"/>
      <point x="377.0" y="1340.0"/>
      <point x="311.0" y="1351.0" type="qcurve" smooth="yes"/>
      <point x="206.0" y="1366.0" type="line"/>
      <point x="206.0" y="1499.0" type="line"/>
      <point x="650.0" y="1538.0" type="line"/>
      <point x="751.0" y="1538.0"/>
      <point x="886.0" y="1473.0"/>
      <point x="910.0" y="1427.0" type="qcurve" smooth="yes"/>
      <point x="1112.0" y="1008.0" type="line"/>
      <point x="1510.0" y="267.0" type="line" smooth="yes"/>
      <point x="1556.0" y="176.0"/>
      <point x="1634.0" y="171.0"/>
      <point x="1697.0" y="171.0" type="qcurve" smooth="yes"/>
      <point x="1804.0" y="171.0" type="line"/>
      <point x="1804.0" y="35.0" type="line"/>
    </contour>
    <contour>
      <point x="107.0" y="0.0" type="line"/>
      <point x="58.0" y="49.0" type="line"/>
      <point x="330.0" y="475.0" type="line"/>
      <point x="680.0" y="1071.0" type="line"/>
      <point x="836.0" y="937.0" type="line"/>
      <point x="642.0" y="377.0" type="line"/>
      <point x="525.0" y="25.0" type="line"/>
    </contour>
  </outline>
</glyph>
<glyph name="rho" format="2">
  <advance width="2055"/>
  <unicode hex="03C1"/>
  <outline>
    <contour>
      <point x="250.0" y="-480.0" type="line"/>
      <point x="202.0" y="-432.0" type="line"/>
      <point x="218.0" y="111.0" type="line"/>
      <point x="218.0" y="416.0" type="line" smooth="yes"/>
      <point x="218.0" y="731.0"/>
      <point x="691.0" y="1085.0"/>
      <point x="1108.0" y="1085.0" type="qcurve" smooth="yes"/>
      <point x="1533.0" y="1085.0"/>
      <point x="1980.0" y="800.0"/>
      <point x="1980.0" y="552.0" type="qcurve" smooth="yes"/>
      <point x="1980.0" y="331.0"/>
      <point x="1548.0" y="-25.0"/>
      <point x="1187.0" y="-25.0" type="qcurve" smooth="yes"/>
      <point x="995.0" y="-25.0"/>
      <point x="601.0" y="126.0"/>
      <point x="532.0" y="201.0" type="qcurve"/>
      <point x="532.0" y="278.0" type="line"/>
      <point x="663.0" y="278.0" type="line"/>
      <point x="699.0" y="262.0"/>
      <point x="922.0" y="166.0"/>
      <point x="1068.0" y="166.0" type="qcurve" smooth="yes"/>
      <point x="1249.0" y="166.0"/>
      <point x="1464.0" y="368.0"/>
      <point x="1464.0" y="524.0" type="qcurve" smooth="yes"/>
      <point x="1464.0" y="712.0"/>
      <point x="1266.0" y="861.0"/>
      <point x="1081.0" y="861.0" type="qcurve" smooth="yes"/>
      <point x="884.0" y="861.0"/>
      <point x="689.0" y="654.0"/>
      <point x="692.0" y="456.0" type="qcurve"/>
      <point x="698.0" y="150.0" type="line"/>
      <point x="694.0" y="-459.0" type="line"/>
    </contour>
  </outline>
</glyph>
<glyph name="chi" format="2">
  <advance width="1709"/>
  <unicode hex="03C7"/>
  <outline>
    <contour>
      <point x="1289.0" y="-494.0" type="line"/>
      <point x="1198.0" y="-495.0"/>
      <point x="1064.0" y="-459.0"/>
      <point x="1022.0" y="-394.0" type="qcurve" smooth="yes"/>
      <point x="682.0" y="137.0" type="line"/>
      <point x="222.0" y="813.0" type="line" smooth="yes"/>
      <point x="213.0" y="810.0"/>
      <point x="140.0" y="861.0"/>
      <point x="100.0" y="863.0" type="qcurve" smooth="yes"/>
      <point x="-5.0" y="879.0" type="line"/>
      <point x="-10.0" y="1012.0" type="line"/>
      <point x="424.0" y="1051.0" type="line"/>
      <point x="468.0" y="1051.0"/>
      <point x="580.0" y="1071.0"/>
      <point x="589.0" y="1067.0" type="qcurve" smooth="yes"/>
      <point x="962.0" y="422.0" type="line"/>
      <point x="1436.0" y="-224.0" type="line" smooth="yes"/>
      <point x="1492.0" y="-311.0"/>
      <point x="1583.0" y="-313.0"/>
      <point x="1647.0" y="-308.0" type="qcurve"/>
      <point x="1741.0" y="-308.0" type="line"/>
      <point x="1745.0" y="-444.0" type="line"/>
    </contour>
    <contour>
      <point x="109.0" y="-480.0" type="line"/>
      <point x="59.0" y="-431.0" type="line"/>
      <point x="436.0" y="-12.0" type="line"/>
      <point x="736.0" y="361.0" type="line"/>
      <point x="867.0" y="170.0" type="line"/>
      <point x="694.0" y="-176.0" type="line"/>
      <point x="516.0" y="-455.0" type="line"/>
    </contour>
    <contour>
      <point x="963.0" y="158.0" type="line"/>
      <point x="836.0" y="355.0" type="line"/>
      <point x="1102.0" y="872.0" type="line"/>
      <point x="1207.0" y="1038.0" type="line"/>
      <point x="1614.0" y="1063.0" type="line"/>
      <point x="1664.0" y="1014.0" type="line"/>
      <point x="1357.0" y="685.0" type="line"/>
    </contour>
  </outline>
</glyph>
<glyph name="Kaisymbol" format="2">
  <advance width="2377"/>
  <unicode hex="03CF"/>
  <outline>
    <contour>
      <point x="90.0" y="0.0" type="line"/>
      <point x="90.0" y="130.0" type="line"/>
      <point x="308.0" y="165.0" type="line"/>
      <point x="310.0" y="754.0" type="line"/>
      <point x="308.0" y="1322.0" type="line"/>
      <point x="90.0" y="1356.0" type="line"/>
      <point x="90.0" y="1500.0" type="line"/>
      <point x="1036.0" y="1500.0" type="line"/>
      <point x="1036.0" y="1356.0" type="line"/>
      <point x="813.0" y="1322.0" type="line"/>
      <point x="811.0" y="754.0" type="line"/>
      <point x="813.0" y="165.0" type="line"/>
      <point x="1006.0" y="130.0" type="line"/>
      <point x="1006.0" y="0.0" type="line"/>
    </contour>
    <contour>
      <point x="557.0" y="247.0" type="line"/>
      <point x="557.0" y="455.0" type="line"/>
      <point x="1654.0" y="1338.0" type="line"/>
      <point x="1469.0" y="1357.0" type="line"/>
      <point x="1469.0" y="1500.0" type="line"/>
      <point x="2151.0" y="1500.0" type="line"/>
      <point x="2151.0" y="1357.0" type="line"/>
      <point x="1922.0" y="1338.0" type="line"/>
      <point x="1251.0" y="856.0" type="line"/>
      <point x="1194.0" y="810.0" type="line"/>
    </contour>
    <contour>
      <point x="1665.0" y="0.0" type="line"/>
      <point x="1012.0" y="736.0" type="line"/>
      <point x="1381.0" y="1080.0" type="line"/>
      <point x="2127.0" y="165.0" type="line"/>
      <point x="2374.0" y="130.0" type="line"/>
      <point x="2374.0" y="0.0" type="line"/>
    </contour>
    <contour>
      <point x="1212.0" y="-520.0" type="qcurve"/>
      <point x="800.0" y="-520.0"/>
      <point x="345.0" y="-333.0"/>
      <point x="240.0" y="-228.0" type="qcurve"/>
      <point x="308.0" y="-117.0" type="line"/>
      <point x="378.0" y="-174.0"/>
      <point x="770.0" y="-329.0"/>
      <point x="1067.0" y="-329.0" type="qcurve" smooth="yes"/>
      <point x="1430.0" y="-329.0"/>
      <point x="1885.0" y="-129.0"/>
      <point x="1944.0" y="0.0" type="qcurve"/>
      <point x="2374.0" y="0.0" type="line"/>
      <point x="2313.0" y="-209.0"/>
      <point x="1645.0" y="-520.0"/>
    </contour>
  </outline>
</glyph>
<glyph name="kaisymbol" format="2">
  <advance width="2078"/>
  <unicode hex="03D7"/>
  <outline>
    <contour>
      <point x="922.0" y="-570.0" type="qcurve" smooth="yes"/>
      <point x="574.0" y="-570.0"/>
      <point x="70.0" y="-316.0"/>
      <point x="-54.0" y="-188.0" type="qcurve"/>
      <point x="37.0" y="-74.0" type="line"/>
      <point x="127.0" y="-150.0"/>
      <point x="564.0" y="-339.0"/>
      <point x="877.0" y="-339.0" type="qcurve" smooth="yes"/>
      <point x="1234.0" y="-339.0"/>
      <point x="1676.0" y="-9.0"/>
      <point x="1659.0" y="170.0" type="qcurve"/>
      <point x="1956.0" y="170.0" type="line"/>
      <point x="1959.0" y="-115.0"/>
      <point x="1386.0" y="-570.0"/>
    </contour>
    <component base="kappa" yOffset="-1"/>
  </outline>
</glyph>
<glyph name="Lje" format="2">
  <advance width="3060"/>
  <unicode hex="0409"/>
  <outline>
    <contour>
      <point x="1065.0" y="0.0" type="line"/>
      <point x="1065.0" y="130.0" type="line"/>
      <point x="1283.0" y="165.0" type="line"/>
      <point x="1285.0" y="772.0" type="line"/>
      <point x="1283.0" y="1326.0" type="line"/>
      <point x="1239.0" y="1342.0" type="line"/>
      <point x="697.0" y="1342.0" type="line"/>
      <point x="655.0" y="1326.0" type="line"/>
      <point x="641.0" y="917.0" type="line" smooth="yes"/>
      <point x="615.0" y="366.0"/>
      <point x="418.0" y="-25.0"/>
      <point x="193.0" y="-25.0" type="qcurve" smooth="yes"/>
      <point x="142.0" y="-25.0"/>
      <point x="78.0" y="-16.0"/>
      <point x="40.0" y="0.0" type="qcurve"/>
      <point x="40.0" y="318.0" type="line"/>
      <point x="72.0" y="307.0"/>
      <point x="124.0" y="305.0"/>
      <point x="155.0" y="305.0" type="qcurve" smooth="yes"/>
      <point x="292.0" y="305.0"/>
      <point x="415.0" y="587.0"/>
      <point x="432.0" y="932.0" type="qcurve" smooth="yes"/>
      <point x="446.0" y="1322.0" type="line"/>
      <point x="228.0" y="1356.0" type="line"/>
      <point x="228.0" y="1500.0" type="line"/>
      <point x="2021.0" y="1500.0" type="line"/>
      <point x="2021.0" y="1356.0" type="line"/>
      <point x="1788.0" y="1322.0" type="line"/>
      <point x="1781.0" y="907.0" type="line"/>
      <point x="1792.0" y="897.0" type="line"/>
      <point x="2305.0" y="897.0" type="line" smooth="yes"/>
      <point x="2679.0" y="897.0"/>
      <point x="3019.0" y="676.0"/>
      <point x="3019.0" y="452.0" type="qcurve" smooth="yes"/>
      <point x="3019.0" y="257.0"/>
      <point x="2728.0" y="0.0"/>
      <point x="2407.0" y="0.0" type="qcurve" smooth="yes"/>
    </contour>
    <contour>
      <point x="1781.0" y="734.0" type="line"/>
      <point x="1784.0" y="176.0" type="line"/>
      <point x="1800.0" y="158.0" type="line"/>
      <point x="2191.0" y="158.0" type="line" smooth="yes"/>
      <point x="2397.0" y="158.0"/>
      <point x="2515.0" y="291.0"/>
      <point x="2515.0" y="459.0" type="qcurve" smooth="yes"/>
      <point x="2515.0" y="613.0"/>
      <point x="2397.0" y="744.0"/>
      <point x="2225.0" y="744.0" type="qcurve" smooth="yes"/>
      <point x="1795.0" y="744.0" type="line"/>
    </contour>
  </outline>
</glyph>
<glyph name="Nje" format="2">
  <advance width="3322"/>
  <unicode hex="040A"/>
  <outline>
    <contour>
      <point x="90.0" y="0.0" type="line"/>
      <point x="1025.0" y="0.0" type="line"/>
      <point x="1025.0" y="130.0" type="line"/>
      <point x="812.0" y="165.0" type="line"/>
      <point x="810.0" y="754.0" type="line"/>
      <point x="812.0" y="1322.0" type="line"/>
      <point x="1025.0" y="1356.0" type="line"/>
      <point x="1025.0" y="1500.0" type="line"/>
      <point x="90.0" y="1500.0" type="line"/>
      <point x="90.0" y="1356.0" type="line"/>
      <point x="308.0" y="1322.0" type="line"/>
      <point x="310.0" y="754.0" type="line"/>
      <point x="308.0" y="165.0" type="line"/>
      <point x="90.0" y="130.0" type="line"/>
    </contour>
    <contour>
      <point x="560.0" y="716.0" type="line"/>
      <point x="1189.0" y="716.0" type="line"/>
      <point x="1818.0" y="716.0" type="line"/>
      <point x="1818.0" y="888.0" type="line"/>
      <point x="1189.0" y="880.0" type="line"/>
      <point x="560.0" y="888.0" type="line"/>
    </contour>
    <contour>
      <point x="1351.0" y="0.0" type="line"/>
      <point x="2649.0" y="0.0" type="line" smooth="yes"/>
      <point x="2980.7142857143" y="0.0"/>
      <point x="3281.0" y="257.0"/>
      <point x="3281.0" y="445.0" type="qcurve" smooth="yes"/>
      <point x="3281.0" y="662.4899777283"/>
      <point x="2941.0" y="888.0"/>
      <point x="2567.0" y="888.0" type="qcurve" smooth="yes"/>
      <point x="2074.0" y="888.0" type="line"/>
      <point x="2063.0" y="898.0" type="line"/>
      <point x="2070.0" y="1322.0" type="line"/>
      <point x="2303.0" y="1356.0" type="line"/>
      <point x="2303.0" y="1500.0" type="line"/>
      <point x="1351.0" y="1500.0" type="line"/>
      <point x="1351.0" y="1356.0" type="line"/>
      <point x="1566.0" y="1322.0" type="line"/>
      <point x="1568.0" y="772.0" type="line"/>
      <point x="1566.0" y="165.0" type="line"/>
      <point x="1351.0" y="130.0" type="line"/>
    </contour>
    <contour>
      <point x="2063.0" y="714.0" type="line"/>
      <point x="2076.0" y="725.0" type="line"/>
      <point x="2487.0" y="725.0" type="line" smooth="yes"/>
      <point x="2659.0" y="725.0"/>
      <point x="2777.0" y="594.3869863014"/>
      <point x="2777.0" y="452.0" type="qcurve" smooth="yes"/>
      <point x="2777.0" y="293.0"/>
      <point x="2659.0" y="158.0"/>
      <point x="2453.0" y="158.0" type="qcurve" smooth="yes"/>
      <point x="2083.0" y="158.0" type="line"/>
      <point x="2067.0" y="176.0" type="line"/>
    </contour>
  </outline>
</glyph>
<glyph name="Ghe" format="2">
  <advance width="1922"/>
  <unicode hex="0413"/>
  <outline>
    <contour>
      <point x="90.0" y="0.0" type="line"/>
      <point x="90.0" y="130.0" type="line"/>
      <point x="308.0" y="165.0" type="line"/>
      <point x="310.0" y="748.0" type="line"/>
      <point x="308.0" y="1322.0" type="line"/>
      <point x="90.0" y="1356.0" type="line"/>
      <point x="90.0" y="1500.0" type="line"/>
      <point x="1869.0" y="1500.0" type="line"/>
      <point x="1869.0" y="1056.0" type="line"/>
      <point x="1697.0" y="1056.0" type="line"/>
      <point x="1644.0" y="1342.0" type="line"/>
      <point x="868.0" y="1342.0" type="line"/>
      <point x="813.0" y="1318.0" type="line"/>
      <point x="817.0" y="754.0" type="line"/>
      <point x="819.0" y="165.0" type="line"/>
      <point x="1038.0" y="131.0" type="line"/>
      <point x="1038.0" y="0.0" type="line"/>
    </contour>
  </outline>
</glyph>
<glyph name="De" format="2">
  <advance width="2174"/>
  <unicode hex="0414"/>
  <outline>
    <contour>
      <point x="1924.0" y="-338.0" type="line"/>
      <point x="1825.0" y="0.0" type="line"/>
      <point x="303.0" y="0.0" type="line"/>
      <point x="204.0" y="-338.0" type="line"/>
      <point x="25.0" y="-338.0" type="line"/>
      <point x="35.0" y="166.0" type="line"/>
      <point x="2094.0" y="166.0" type="line"/>
      <point x="2104.0" y="-338.0" type="line"/>
    </contour>
    <contour>
      <point x="434.0" y="1032.0" type="qcurve" smooth="yes"/>
      <point x="440.0" y="1322.0" type="line"/>
      <point x="222.0" y="1356.0" type="line"/>
      <point x="222.0" y="1500.0" type="line"/>
      <point x="2052.0" y="1500.0" type="line"/>
      <point x="2052.0" y="1356.0" type="line"/>
      <point x="1834.0" y="1322.0" type="line"/>
      <point x="1832.0" y="754.0" type="line"/>
      <point x="1835.0" y="0.0" type="line"/>
      <point x="1329.0" y="0.0" type="line"/>
      <point x="1331.0" y="754.0" type="line"/>
      <point x="1333.0" y="1326.0" type="line"/>
      <point x="1291.0" y="1342.0" type="line"/>
      <point x="691.0" y="1342.0" type="line"/>
      <point x="649.0" y="1326.0" type="line"/>
      <point x="643.0" y="1017.0" type="line" smooth="yes"/>
      <point x="626.0" y="680.0"/>
      <point x="542.0" y="240.0"/>
      <point x="476.0" y="107.0" type="qcurve"/>
      <point x="234.0" y="107.0" type="line"/>
      <point x="318.0" y="241.0"/>
      <point x="418.0" y="717.0"/>
    </contour>
  </outline>
</glyph>
<glyph name="Zhe" format="2">
  <advance width="3465"/>
  <unicode hex="0416"/>
  <guideline x="480.0" y="796.0" angle="90.0" identifier="vQLQteAbfW"/>
  <outline>
    <contour>
      <point x="1283.0" y="0.0" type="line"/>
      <point x="1283.0" y="130.0" type="line"/>
      <point x="1498.0" y="165.0" type="line"/>
      <point x="1500.0" y="754.0" type="line"/>
      <point x="1498.0" y="1322.0" type="line"/>
      <point x="1274.0" y="1356.0" type="line"/>
      <point x="1274.0" y="1500.0" type="line"/>
      <point x="2225.0" y="1500.0" type="line"/>
      <point x="2225.0" y="1356.0" type="line"/>
      <point x="2002.0" y="1322.0" type="line"/>
      <point x="2000.0" y="754.0" type="line"/>
      <point x="2002.0" y="165.0" type="line"/>
      <point x="2165.0" y="130.0" type="line"/>
      <point x="2165.0" y="0.0" type="line"/>
    </contour>
    <contour>
      <point x="1750.0" y="696.0" type="line"/>
      <point x="1750.0" y="858.0" type="line"/>
      <point x="2123.0" y="852.0" type="line"/>
      <point x="2813.0" y="1338.0" type="line"/>
      <point x="2628.0" y="1357.0" type="line"/>
      <point x="2628.0" y="1500.0" type="line"/>
      <point x="3309.0" y="1500.0" type="line"/>
      <point x="3309.0" y="1357.0" type="line"/>
      <point x="3081.0" y="1338.0" type="line"/>
      <point x="2272.0" y="805.0" type="line"/>
      <point x="2181.0" y="696.0" type="line"/>
    </contour>
    <contour>
      <point x="2093.0" y="729.0" type="line"/>
      <point x="2433.0" y="1071.0" type="line"/>
      <point x="3296.0" y="165.0" type="line"/>
      <point x="3463.0" y="130.0" type="line"/>
      <point x="3463.0" y="0.0" type="line"/>
      <point x="2536.0" y="0.0" type="line"/>
      <point x="2536.0" y="130.0" type="line"/>
      <point x="2701.0" y="165.0" type="line"/>
    </contour>
    <contour>
      <point x="1750.0" y="696.0" type="line"/>
      <point x="1264.0" y="696.0" type="line"/>
      <point x="1139.0" y="805.0" type="line"/>
      <point x="330.0" y="1338.0" type="line"/>
      <point x="113.0" y="1357.0" type="line"/>
      <point x="113.0" y="1500.0" type="line"/>
      <point x="817.0" y="1500.0" type="line"/>
      <point x="817.0" y="1357.0" type="line"/>
      <point x="632.0" y="1338.0" type="line"/>
      <point x="1322.0" y="852.0" type="line"/>
      <point x="1750.0" y="858.0" type="line"/>
    </contour>
    <contour>
      <point x="1352.0" y="729.0" type="line"/>
      <point x="744.0" y="165.0" type="line"/>
      <point x="909.0" y="130.0" type="line"/>
      <point x="909.0" y="0.0" type="line"/>
      <point x="2.0" y="0.0" type="line"/>
      <point x="2.0" y="130.0" type="line"/>
      <point x="186.0" y="165.0" type="line"/>
      <point x="1049.0" y="1071.0" type="line"/>
    </contour>
  </outline>
</glyph>
<glyph name="Icyr" format="2">
  <advance width="2508"/>
  <unicode hex="0418"/>
  <guideline x="739.0" y="930.0" angle="90.0" identifier="jpSOnFR6u4"/>
  <guideline x="924.0" y="814.0" angle="90.0" identifier="3fHus3tMSg"/>
  <guideline x="927.0" y="744.0" angle="0" identifier="rmoGi5h6UR"/>
  <outline>
    <contour>
      <point x="1482.0" y="0.0" type="line"/>
      <point x="1482.0" y="130.0" type="line"/>
      <point x="1695.0" y="165.0" type="line"/>
      <point x="1697.0" y="754.0" type="line"/>
      <point x="1695.0" y="1322.0" type="line"/>
      <point x="1482.0" y="1356.0" type="line"/>
      <point x="1482.0" y="1500.0" type="line"/>
      <point x="2418.0" y="1500.0" type="line"/>
      <point x="2418.0" y="1356.0" type="line"/>
      <point x="2200.0" y="1322.0" type="line"/>
      <point x="2198.0" y="754.0" type="line"/>
      <point x="2200.0" y="165.0" type="line"/>
      <point x="2418.0" y="130.0" type="line"/>
      <point x="2418.0" y="0.0" type="line"/>
    </contour>
    <contour>
      <point x="90.0" y="0.0" type="line"/>
      <point x="90.0" y="130.0" type="line"/>
      <point x="308.0" y="165.0" type="line"/>
      <point x="310.0" y="754.0" type="line"/>
      <point x="308.0" y="1322.0" type="line"/>
      <point x="90.0" y="1356.0" type="line"/>
      <point x="90.0" y="1500.0" type="line"/>
      <point x="1026.0" y="1500.0" type="line"/>
      <point x="1026.0" y="1356.0" type="line"/>
      <point x="813.0" y="1322.0" type="line"/>
      <point x="811.0" y="754.0" type="line"/>
      <point x="813.0" y="165.0" type="line"/>
      <point x="1026.0" y="130.0" type="line"/>
      <point x="1026.0" y="0.0" type="line"/>
    </contour>
    <contour>
      <point x="809.0" y="363.0" type="line"/>
      <point x="701.0" y="481.0" type="line"/>
      <point x="1212.0" y="803.0" type="line"/>
      <point x="1700.0" y="1133.0" type="line"/>
      <point x="1807.0" y="1014.0" type="line"/>
      <point x="1309.0" y="700.0" type="line"/>
    </contour>
  </outline>
</glyph>
<glyph name="Ka" format="2">
  <advance width="2296"/>
  <unicode hex="041A"/>
  <guideline x="480.0" y="796.0" angle="90.0" identifier="LxfLwWU0sJ"/>
  <outline>
    <contour>
      <point x="90.0" y="0.0" type="line"/>
      <point x="90.0" y="130.0" type="line"/>
      <point x="308.0" y="165.0" type="line"/>
      <point x="310.0" y="754.0" type="line"/>
      <point x="308.0" y="1322.0" type="line"/>
      <point x="90.0" y="1356.0" type="line"/>
      <point x="90.0" y="1500.0" type="line"/>
      <point x="1035.0" y="1500.0" type="line"/>
      <point x="1035.0" y="1356.0" type="line"/>
      <point x="812.0" y="1322.0" type="line"/>
      <point x="810.0" y="754.0" type="line"/>
      <point x="812.0" y="165.0" type="line"/>
      <point x="995.0" y="130.0" type="line"/>
      <point x="995.0" y="0.0" type="line"/>
    </contour>
    <contour>
      <point x="560.0" y="696.0" type="line"/>
      <point x="560.0" y="858.0" type="line"/>
      <point x="934.0" y="852.0" type="line"/>
      <point x="1644.0" y="1338.0" type="line"/>
      <point x="1459.0" y="1357.0" type="line"/>
      <point x="1459.0" y="1500.0" type="line"/>
      <point x="2140.0" y="1500.0" type="line"/>
      <point x="2140.0" y="1357.0" type="line"/>
      <point x="1912.0" y="1338.0" type="line"/>
      <point x="1083.0" y="805.0" type="line"/>
      <point x="992.0" y="696.0" type="line"/>
    </contour>
    <contour>
      <point x="904.0" y="729.0" type="line"/>
      <point x="1244.0" y="1071.0" type="line"/>
      <point x="2127.0" y="165.0" type="line"/>
      <point x="2294.0" y="130.0" type="line"/>
      <point x="2294.0" y="0.0" type="line"/>
      <point x="1367.0" y="0.0" type="line"/>
      <point x="1367.0" y="130.0" type="line"/>
      <point x="1532.0" y="165.0" type="line"/>
    </contour>
  </outline>
</glyph>
<glyph name="El" format="2">
  <advance width="2242"/>
  <unicode hex="041B"/>
  <outline>
    <contour>
      <point x="432.0" y="932.0" type="qcurve" smooth="yes"/>
      <point x="446.0" y="1322.0" type="line"/>
      <point x="228.0" y="1356.0" type="line"/>
      <point x="228.0" y="1500.0" type="line"/>
      <point x="2144.0" y="1500.0" type="line"/>
      <point x="2144.0" y="1356.0" type="line"/>
      <point x="1926.0" y="1322.0" type="line"/>
      <point x="1924.0" y="754.0" type="line"/>
      <point x="1926.0" y="165.0" type="line"/>
      <point x="2144.0" y="130.0" type="line"/>
      <point x="2144.0" y="0.0" type="line"/>
      <point x="1206.0" y="0.0" type="line"/>
      <point x="1206.0" y="130.0" type="line"/>
      <point x="1421.0" y="165.0" type="line"/>
      <point x="1423.0" y="754.0" type="line"/>
      <point x="1421.0" y="1326.0" type="line"/>
      <point x="1379.0" y="1342.0" type="line"/>
      <point x="697.0" y="1342.0" type="line"/>
      <point x="655.0" y="1326.0" type="line"/>
      <point x="641.0" y="917.0" type="line" smooth="yes"/>
      <point x="612.7896286594" y="345.0272181448"/>
      <point x="418.4821852732" y="-25.0"/>
      <point x="193.0" y="-25.0" type="qcurve" smooth="yes"/>
      <point x="142.0" y="-25.0"/>
      <point x="78.0" y="-16.0"/>
      <point x="40.0" y="0.0" type="qcurve"/>
      <point x="40.0" y="318.0" type="line"/>
      <point x="72.0" y="307.0"/>
      <point x="124.0" y="305.0"/>
      <point x="155.0" y="305.0" type="qcurve" smooth="yes"/>
      <point x="292.0" y="305.0"/>
      <point x="414.6860032861" y="586.8185222058"/>
    </contour>
  </outline>
</glyph>
<glyph name="Ucyr" format="2">
  <advance width="2225"/>
  <unicode hex="0423"/>
  <outline>
    <contour>
      <point x="1238.0" y="682.0" type="qcurve" smooth="yes"/>
      <point x="1443.0" y="863.0" type="line"/>
      <point x="1792.0" y="1315.0" type="line"/>
      <point x="1642.0" y="1355.0" type="line"/>
      <point x="1642.0" y="1500.0" type="line"/>
      <point x="2165.0" y="1500.0" type="line"/>
      <point x="2165.0" y="1355.0" type="line"/>
      <point x="1983.0" y="1314.0" type="line"/>
      <point x="1605.0" y="821.0" type="line"/>
      <point x="1433.0" y="671.0" type="line" smooth="yes"/>
      <point x="1165.8414226016" y="252.3795772454"/>
      <point x="894.7171717172" y="-25.0"/>
      <point x="665.0" y="-25.0" type="qcurve" smooth="yes"/>
      <point x="603.3394495413" y="-25.0"/>
      <point x="518.0" y="-12.0"/>
      <point x="492.0" y="0.0" type="qcurve"/>
      <point x="492.0" y="328.0" type="line"/>
      <point x="525.0" y="321.0"/>
      <point x="626.0" y="302.0"/>
      <point x="713.0" y="302.0" type="qcurve" smooth="yes"/>
      <point x="861.0" y="302.0"/>
      <point x="1063.0" y="433.0"/>
    </contour>
    <contour>
      <point x="1012.0" y="313.0" type="line"/>
      <point x="660.0" y="747.0" type="line"/>
      <point x="234.0" y="1313.0" type="line"/>
      <point x="57.0" y="1355.0" type="line"/>
      <point x="57.0" y="1500.0" type="line"/>
      <point x="969.0" y="1500.0" type="line"/>
      <point x="969.0" y="1355.0" type="line"/>
      <point x="796.0" y="1322.0" type="line"/>
      <point x="1103.0" y="947.0" type="line"/>
      <point x="1341.0" y="702.0" type="line"/>
    </contour>
  </outline>
</glyph>
<glyph name="Ef" format="2">
  <advance width="2788"/>
  <unicode hex="0424"/>
  <outline>
    <contour>
      <point x="1560.0" y="225.0" type="qcurve"/>
      <point x="1560.0" y="379.0" type="line"/>
      <point x="1904.0002024975" y="382.000001125"/>
      <point x="2183.0" y="543.4154589372"/>
      <point x="2183.0" y="750.0" type="qcurve" smooth="yes"/>
      <point x="2183.0" y="928.7553763441"/>
      <point x="1891.0" y="1083.0"/>
      <point x="1560.0" y="1083.0" type="qcurve"/>
      <point x="1560.0" y="1249.0" type="line"/>
      <point x="2223.0" y="1249.0"/>
      <point x="2743.0" y="999.0"/>
      <point x="2743.0" y="747.0" type="qcurve" smooth="yes"/>
      <point x="2743.0" y="468.0"/>
      <point x="2222.0" y="238.0"/>
    </contour>
    <contour>
      <point x="1228.0" y="225.0" type="line"/>
      <point x="577.0" y="225.0"/>
      <point x="45.0" y="465.0"/>
      <point x="45.0" y="728.0" type="qcurve" smooth="yes"/>
      <point x="45.0" y="996.0"/>
      <point x="578.0" y="1236.0"/>
      <point x="1228.0" y="1249.0" type="qcurve"/>
      <point x="1228.0" y="1085.0" type="line"/>
      <point x="892.9997851705" y="1081.9999987338"/>
      <point x="605.0" y="941.5845410628"/>
      <point x="605.0" y="735.0" type="qcurve" smooth="yes"/>
      <point x="605.0" y="555.2446236559"/>
      <point x="906.0" y="381.0"/>
      <point x="1228.0" y="381.0" type="qcurve"/>
    </contour>
    <contour>
      <point x="894.0" y="-40.0" type="line"/>
      <point x="894.0" y="80.0" type="line"/>
      <point x="1152.0" y="115.0" type="line"/>
      <point x="1154.0" y="270.0" type="line"/>
      <point x="1164.0" y="270.0" type="line"/>
      <point x="1166.0" y="725.0" type="line"/>
      <point x="1622.0" y="725.0" type="line"/>
      <point x="1624.0" y="271.0" type="line"/>
      <point x="1634.0" y="270.0" type="line"/>
      <point x="1636.0" y="115.0" type="line"/>
      <point x="1894.0" y="80.0" type="line"/>
      <point x="1894.0" y="-40.0" type="line"/>
    </contour>
    <contour>
      <point x="1166.0" y="725.0" type="line"/>
      <point x="1164.0" y="1192.0" type="line"/>
      <point x="1154.0" y="1193.0" type="line"/>
      <point x="1152.0" y="1352.0" type="line"/>
      <point x="894.0" y="1386.0" type="line"/>
      <point x="894.0" y="1520.0" type="line"/>
      <point x="1894.0" y="1520.0" type="line"/>
      <point x="1894.0" y="1386.0" type="line"/>
      <point x="1636.0" y="1352.0" type="line"/>
      <point x="1634.0" y="1193.0" type="line"/>
      <point x="1624.0" y="1193.0" type="line"/>
      <point x="1622.0" y="725.0" type="line"/>
    </contour>
  </outline>
</glyph>
<glyph name="Che" format="2">
  <advance width="2353"/>
  <unicode hex="0427"/>
  <guideline x="1330.0" y="777.0" angle="90.0" identifier="9CLqHZNG04"/>
  <outline>
    <contour>
      <point x="1306.0" y="0.0" type="line"/>
      <point x="1306.0" y="130.0" type="line"/>
      <point x="1541.0" y="165.0" type="line"/>
      <point x="1543.0" y="754.0" type="line"/>
      <point x="1541.0" y="1322.0" type="line"/>
      <point x="1338.0" y="1356.0" type="line"/>
      <point x="1338.0" y="1500.0" type="line"/>
      <point x="2263.0" y="1500.0" type="line"/>
      <point x="2263.0" y="1356.0" type="line"/>
      <point x="2045.0" y="1322.0" type="line"/>
      <point x="2043.0" y="754.0" type="line"/>
      <point x="2045.0" y="165.0" type="line"/>
      <point x="2263.0" y="130.0" type="line"/>
      <point x="2263.0" y="0.0" type="line"/>
    </contour>
    <contour>
      <point x="-5.0" y="1356.0" type="line"/>
      <point x="-5.0" y="1500.0" type="line"/>
      <point x="921.0" y="1500.0" type="line"/>
      <point x="921.0" y="1356.0" type="line"/>
      <point x="717.0" y="1322.0" type="line"/>
      <point x="715.0" y="1024.0" type="line" smooth="yes"/>
      <point x="714.0" y="867.0"/>
      <point x="898.0" y="755.0"/>
      <point x="1127.0" y="755.0" type="qcurve" smooth="yes"/>
      <point x="1278.0" y="755.0"/>
      <point x="1624.0" y="806.0"/>
      <point x="1795.0" y="862.0" type="qcurve"/>
      <point x="1795.0" y="695.0" type="line"/>
      <point x="1620.0" y="634.0"/>
      <point x="1240.0" y="575.0"/>
      <point x="968.0" y="575.0" type="qcurve" smooth="yes"/>
      <point x="622.0" y="575.0"/>
      <point x="217.0" y="764.0"/>
      <point x="215.0" y="1024.0" type="qcurve" smooth="yes"/>
      <point x="213.0" y="1322.0" type="line"/>
    </contour>
  </outline>
</glyph>
<glyph name="Soft" format="2">
  <advance width="2085"/>
  <unicode hex="042C"/>
  <outline>
    <contour>
      <point x="820.0" y="744.0" type="line"/>
      <point x="806.0" y="733.0" type="line"/>
      <point x="809.0" y="176.0" type="line"/>
      <point x="825.0" y="158.0" type="line"/>
      <point x="1216.0" y="158.0" type="line" smooth="yes"/>
      <point x="1422.0" y="158.0"/>
      <point x="1540.0" y="291.0"/>
      <point x="1540.0" y="459.0" type="qcurve" smooth="yes"/>
      <point x="1540.0" y="613.0"/>
      <point x="1422.0" y="744.0"/>
      <point x="1250.0" y="744.0" type="qcurve" smooth="yes"/>
    </contour>
    <contour>
      <point x="806.0" y="907.0" type="line"/>
      <point x="817.0" y="897.0" type="line"/>
      <point x="1330.0" y="897.0" type="line" smooth="yes"/>
      <point x="1704.0" y="897.0"/>
      <point x="2044.0" y="676.0"/>
      <point x="2044.0" y="452.0" type="qcurve" smooth="yes"/>
      <point x="2044.0" y="257.0"/>
      <point x="1753.0" y="0.0"/>
      <point x="1432.0" y="0.0" type="qcurve" smooth="yes"/>
      <point x="90.0" y="0.0" type="line"/>
      <point x="90.0" y="130.0" type="line"/>
      <point x="308.0" y="165.0" type="line"/>
      <point x="310.0" y="772.0" type="line"/>
      <point x="308.0" y="1322.0" type="line"/>
      <point x="90.0" y="1356.0" type="line"/>
      <point x="90.0" y="1500.0" type="line"/>
      <point x="1046.0" y="1500.0" type="line"/>
      <point x="1046.0" y="1356.0" type="line"/>
      <point x="813.0" y="1322.0" type="line"/>
    </contour>
  </outline>
</glyph>
<glyph name="Yu" format="2">
  <advance width="3321"/>
  <unicode hex="042E"/>
  <guideline x="732.0" y="785.0" angle="90.0" identifier="6nH5tb4DEh"/>
  <outline>
    <contour>
      <point x="90.0" y="0.0" type="line"/>
      <point x="90.0" y="130.0" type="line"/>
      <point x="308.0" y="165.0" type="line"/>
      <point x="310.0" y="754.0" type="line"/>
      <point x="308.0" y="1322.0" type="line"/>
      <point x="90.0" y="1356.0" type="line"/>
      <point x="90.0" y="1500.0" type="line"/>
      <point x="1025.0" y="1500.0" type="line"/>
      <point x="1025.0" y="1356.0" type="line"/>
      <point x="812.0" y="1322.0" type="line"/>
      <point x="810.0" y="754.0" type="line"/>
      <point x="812.0" y="165.0" type="line"/>
      <point x="1025.0" y="130.0" type="line"/>
      <point x="1025.0" y="0.0" type="line"/>
    </contour>
    <contour>
      <point x="558.0" y="695.0" type="line"/>
      <point x="558.0" y="857.0" type="line"/>
      <point x="1297.0" y="849.0" type="line"/>
      <point x="1297.0" y="695.0" type="line"/>
    </contour>
    <contour>
      <point x="1021.0" y="743.0" type="qcurve" smooth="yes"/>
      <point x="1021.0" y="1074.0"/>
      <point x="1636.0" y="1527.0"/>
      <point x="2130.0" y="1527.0" type="qcurve" smooth="yes"/>
      <point x="2642.0" y="1527.0"/>
      <point x="3240.0" y="1103.0"/>
      <point x="3240.0" y="758.0" type="qcurve" smooth="yes"/>
      <point x="3240.0" y="429.0"/>
      <point x="2631.0" y="-25.0"/>
      <point x="2136.0" y="-25.0" type="qcurve" smooth="yes"/>
      <point x="1626.0" y="-25.0"/>
      <point x="1021.0" y="392.0"/>
    </contour>
    <contour>
      <point x="1573.0" y="779.0" type="qcurve" smooth="yes"/>
      <point x="1573.0" y="416.0"/>
      <point x="1876.9993861265" y="143.0"/>
      <point x="2130.0" y="143.0" type="qcurve" smooth="yes"/>
      <point x="2395.0011559424" y="143.0"/>
      <point x="2682.0" y="399.0"/>
      <point x="2682.0" y="755.0" type="qcurve" smooth="yes"/>
      <point x="2682.0" y="1075.0"/>
      <point x="2399.9993222169" y="1357.0"/>
      <point x="2128.0" y="1357.0" type="qcurve" smooth="yes"/>
      <point x="1861.9967685848999" y="1357.0"/>
      <point x="1573.0" y="1078.0"/>
    </contour>
  </outline>
</glyph>
<glyph name="Ya" format="2">
  <advance width="2135"/>
  <unicode hex="042F"/>
  <outline>
    <contour>
      <point x="517.0" y="805.0" type="line"/>
      <point x="254.0" y="317.0" type="line" smooth="yes"/>
      <point x="228.0" y="247.0"/>
      <point x="135.0" y="136.0"/>
      <point x="10.0" y="130.0" type="qcurve"/>
      <point x="10.0" y="0.0" type="line"/>
      <point x="585.0" y="0.0" type="line"/>
      <point x="645.0" y="56.0" type="line"/>
      <point x="978.0" y="744.0" type="line"/>
    </contour>
    <contour>
      <point x="917.0" y="820.0" type="line" smooth="yes"/>
      <point x="801.0" y="820.0"/>
      <point x="703.0" y="917.0"/>
      <point x="703.0" y="1059.0" type="qcurve" smooth="yes"/>
      <point x="703.0" y="1204.0"/>
      <point x="799.8453608247" y="1320.0"/>
      <point x="904.0" y="1320.0" type="qcurve" smooth="yes"/>
      <point x="1308.0" y="1320.0" type="line"/>
      <point x="1323.0" y="1307.0" type="line"/>
      <point x="1324.0" y="750.0" type="line"/>
      <point x="1323.0" y="168.0" type="line"/>
      <point x="1126.0" y="130.0" type="line"/>
      <point x="1126.0" y="0.0" type="line"/>
      <point x="2045.0" y="0.0" type="line"/>
      <point x="2045.0" y="130.0" type="line"/>
      <point x="1827.0" y="163.0" type="line"/>
      <point x="1825.0" y="754.0" type="line"/>
      <point x="1827.0" y="1322.0" type="line"/>
      <point x="2045.0" y="1356.0" type="line"/>
      <point x="2045.0" y="1500.0" type="line"/>
      <point x="791.0" y="1500.0" type="line" smooth="yes"/>
      <point x="449.3529411765" y="1500.0"/>
      <point x="186.0" y="1265.0"/>
      <point x="186.0" y="1076.0" type="qcurve" smooth="yes"/>
      <point x="186.0" y="866.2169811321"/>
      <point x="456.0754680762" y="674.1606533536"/>
      <point x="631.0" y="667.0" type="qcurve"/>
      <point x="723.0" y="643.0" type="line"/>
      <point x="1578.0" y="655.0" type="line"/>
      <point x="1579.0" y="820.0" type="line"/>
    </contour>
  </outline>
</glyph>
<glyph name="ve" format="2">
  <advance width="1966"/>
  <unicode hex="0432"/>
  <guideline x="302.0" y="625.0" angle="90.0" identifier="FqbstdQzDn"/>
  <guideline x="954.0" y="842.0" angle="90.0" identifier="zbbKiP68t3"/>
  <outline>
    <contour>
      <point x="1462.0" y="0.0" type="qcurve" smooth="yes"/>
      <point x="75.0" y="0.0" type="line"/>
      <point x="75.0" y="124.0" type="line"/>
      <point x="273.0" y="159.0" type="line"/>
      <point x="275.0" y="525.0" type="line"/>
      <point x="273.0" y="891.0" type="line"/>
      <point x="75.0" y="926.0" type="line"/>
      <point x="75.0" y="1050.0" type="line"/>
      <point x="1465.0" y="1050.0" type="line" smooth="yes"/>
      <point x="1666.0" y="1050.0"/>
      <point x="1864.0" y="919.2777777778"/>
      <point x="1864.0" y="803.0" type="qcurve" smooth="yes"/>
      <point x="1864.0" y="713.3333333333"/>
      <point x="1731.0413930253" y="595.0409335417"/>
      <point x="1589.0" y="558.0" type="qcurve"/>
      <point x="1589.0" y="554.0" type="line"/>
      <point x="1747.6463172622" y="538.0353682738"/>
      <point x="1911.0" y="409.332046332"/>
      <point x="1911.0" y="294.0" type="qcurve" smooth="yes"/>
      <point x="1911.0" y="152.4440677966"/>
      <point x="1690.0" y="0.0"/>
    </contour>
    <contour>
      <point x="517.0" y="610.0" type="line"/>
      <point x="1236.0" y="610.0" type="line" smooth="yes"/>
      <point x="1317.0" y="610.0"/>
      <point x="1387.0" y="690.0"/>
      <point x="1387.0" y="751.0" type="qcurve" smooth="yes"/>
      <point x="1387.0" y="819.0"/>
      <point x="1315.0" y="889.0"/>
      <point x="1239.0" y="889.0" type="qcurve" smooth="yes"/>
      <point x="762.0" y="889.0" type="line"/>
      <point x="759.0" y="525.0" type="line"/>
      <point x="762.0" y="163.0" type="line"/>
      <point x="1270.0" y="163.0" type="line" smooth="yes"/>
      <point x="1351.0" y="163.0"/>
      <point x="1430.0" y="237.0"/>
      <point x="1430.0" y="316.0" type="qcurve" smooth="yes"/>
      <point x="1430.0" y="390.0"/>
      <point x="1352.0" y="465.0"/>
      <point x="1270.0" y="465.0" type="qcurve" smooth="yes"/>
      <point x="517.0" y="465.0" type="line"/>
    </contour>
  </outline>
</glyph>
<glyph name="de" format="2">
  <advance width="1939"/>
  <unicode hex="0434"/>
  <guideline x="302.0" y="625.0" angle="90.0" identifier="jHuxcyi1x5"/>
  <guideline x="627.0" y="553.0" angle="90.0" identifier="m4aYe0x4PZ"/>
  <outline>
    <contour>
      <point x="1726.0" y="-318.0" type="line"/>
      <point x="1627.0" y="0.0" type="line"/>
      <point x="312.0" y="0.0" type="line"/>
      <point x="213.0" y="-318.0" type="line"/>
      <point x="45.0" y="-318.0" type="line"/>
      <point x="55.0" y="166.0" type="line"/>
      <point x="1884.0" y="166.0" type="line"/>
      <point x="1894.0" y="-318.0" type="line"/>
    </contour>
    <contour>
      <point x="1656.0" y="0.0" type="line"/>
      <point x="1166.0" y="0.0" type="line"/>
      <point x="1169.0" y="525.0" type="line"/>
      <point x="1166.0" y="884.0" type="line"/>
      <point x="543.0" y="884.0" type="line"/>
      <point x="518.0" y="493.0" type="line" smooth="yes"/>
      <point x="510.4867721308" y="388.8982766769"/>
      <point x="477.0" y="196.0"/>
      <point x="439.0" y="117.0" type="qcurve"/>
      <point x="203.0" y="117.0" type="line"/>
      <point x="256.0" y="186.0"/>
      <point x="311.0" y="395.0"/>
      <point x="319.0" y="529.0" type="qcurve" smooth="yes"/>
      <point x="342.0" y="891.0" type="line"/>
      <point x="144.0" y="926.0" type="line"/>
      <point x="144.0" y="1050.0" type="line"/>
      <point x="1854.0" y="1050.0" type="line"/>
      <point x="1854.0" y="926.0" type="line"/>
      <point x="1656.0" y="891.0" type="line"/>
      <point x="1654.0" y="525.0" type="line"/>
    </contour>
  </outline>
</glyph>
<glyph name="ka" format="2">
  <advance width="1935"/>
  <unicode hex="043A"/>
  <guideline x="241.0" y="553.0" angle="90.0" identifier="lmgRx0QBdK"/>
  <guideline x="786.0" y="880.0" angle="0" identifier="nFoPGEsufr"/>
  <outline>
    <contour>
      <point x="275.0" y="525.0" type="line"/>
      <point x="273.0" y="891.0" type="line"/>
      <point x="75.0" y="926.0" type="line"/>
      <point x="75.0" y="1050.0" type="line"/>
      <point x="939.0" y="1050.0" type="line"/>
      <point x="939.0" y="926.0" type="line"/>
      <point x="762.0" y="891.0" type="line"/>
      <point x="759.0" y="525.0" type="line"/>
      <point x="762.0" y="159.0" type="line"/>
      <point x="939.0" y="124.0" type="line"/>
      <point x="939.0" y="0.0" type="line"/>
      <point x="75.0" y="0.0" type="line"/>
      <point x="75.0" y="124.0" type="line"/>
      <point x="273.0" y="159.0" type="line"/>
    </contour>
    <contour>
      <point x="889.0" y="504.0" type="line"/>
      <point x="1242.0" y="814.0" type="line"/>
      <point x="1777.0" y="159.0" type="line"/>
      <point x="1941.0" y="124.0" type="line"/>
      <point x="1941.0" y="0.0" type="line"/>
      <point x="1207.0" y="0.0" type="line"/>
      <point x="1191.0" y="109.0" type="line"/>
      <point x="1220.0" y="141.0" type="line"/>
    </contour>
    <contour>
      <point x="517.0" y="612.0" type="line"/>
      <point x="922.0" y="610.0" type="line"/>
      <point x="1294.0" y="880.0" type="line"/>
      <point x="1165.0" y="910.0" type="line"/>
      <point x="1165.0" y="1050.0" type="line"/>
      <point x="1803.0" y="1050.0" type="line"/>
      <point x="1803.0" y="910.0" type="line"/>
      <point x="1572.0" y="875.0" type="line"/>
      <point x="951.0" y="452.0" type="line"/>
      <point x="517.0" y="451.0" type="line"/>
    </contour>
  </outline>
</glyph>
<glyph name="em" format="2">
  <advance width="2279"/>
  <unicode hex="043C"/>
  <guideline x="1191.0" y="890.0" angle="0" identifier="6e2z48lNZ1"/>
  <outline>
    <contour>
      <point x="406.0" y="159.0" type="line"/>
      <point x="583.0" y="124.0" type="line"/>
      <point x="583.0" y="0.0" type="line"/>
      <point x="75.0" y="0.0" type="line"/>
      <point x="75.0" y="124.0" type="line"/>
      <point x="274.0" y="159.0" type="line"/>
      <point x="276.0" y="527.0" type="line"/>
      <point x="274.0" y="891.0" type="line"/>
      <point x="75.0" y="926.0" type="line"/>
      <point x="75.0" y="1050.0" type="line"/>
      <point x="783.0" y="1050.0" type="line"/>
      <point x="942.0" y="723.0" type="line"/>
      <point x="1115.0" y="369.0" type="line"/>
      <point x="1289.0" y="714.0" type="line"/>
      <point x="1465.0" y="1050.0" type="line"/>
      <point x="2204.0" y="1050.0" type="line"/>
      <point x="2204.0" y="926.0" type="line"/>
      <point x="2006.0" y="891.0" type="line"/>
      <point x="2004.0" y="525.0" type="line"/>
      <point x="2006.0" y="159.0" type="line"/>
      <point x="2204.0" y="124.0" type="line"/>
      <point x="2204.0" y="0.0" type="line"/>
      <point x="1359.0" y="0.0" type="line"/>
      <point x="1359.0" y="124.0" type="line"/>
      <point x="1536.0" y="159.0" type="line"/>
      <point x="1539.0" y="525.0" type="line"/>
      <point x="1536.0" y="896.0" type="line"/>
      <point x="1356.0" y="516.0" type="line"/>
      <point x="1128.0" y="-4.0" type="line"/>
      <point x="799.0" y="-4.0" type="line"/>
      <point x="595.0" y="487.0" type="line"/>
      <point x="404.0" y="893.0" type="line"/>
      <point x="402.0" y="527.0" type="line"/>
    </contour>
  </outline>
</glyph>
<glyph name="pe" format="2">
  <advance width="2212"/>
  <unicode hex="043F"/>
  <guideline x="302.0" y="625.0" angle="90.0" identifier="jHuxcyi1x5"/>
  <guideline x="953.0" y="554.0" angle="90.0" identifier="b1mHk7wgTR"/>
  <guideline x="627.0" y="553.0" angle="90.0" identifier="m4aYe0x4PZ"/>
  <outline>
    <contour>
      <point x="275.0" y="525.0" type="line"/>
      <point x="273.0" y="891.0" type="line"/>
      <point x="75.0" y="926.0" type="line"/>
      <point x="75.0" y="1050.0" type="line"/>
      <point x="2137.0" y="1050.0" type="line"/>
      <point x="2137.0" y="926.0" type="line"/>
      <point x="1939.0" y="891.0" type="line"/>
      <point x="1937.0" y="525.0" type="line"/>
      <point x="1939.0" y="159.0" type="line"/>
      <point x="2137.0" y="124.0" type="line"/>
      <point x="2137.0" y="0.0" type="line"/>
      <point x="1277.0" y="0.0" type="line"/>
      <point x="1277.0" y="124.0" type="line"/>
      <point x="1449.0" y="159.0" type="line"/>
      <point x="1452.0" y="525.0" type="line"/>
      <point x="1449.0" y="884.0" type="line"/>
      <point x="763.0" y="884.0" type="line"/>
      <point x="760.0" y="525.0" type="line"/>
      <point x="763.0" y="159.0" type="line"/>
      <point x="935.0" y="124.0" type="line"/>
      <point x="935.0" y="0.0" type="line"/>
      <point x="75.0" y="0.0" type="line"/>
      <point x="75.0" y="124.0" type="line"/>
      <point x="273.0" y="159.0" type="line"/>
    </contour>
  </outline>
</glyph>
<glyph name="shcha" format="2">
  <advance width="2967"/>
  <unicode hex="0449"/>
  <outline>
    <contour>
      <point x="2655.0" y="0.0" type="line"/>
      <point x="75.0" y="0.0" type="line"/>
      <point x="75.0" y="124.0" type="line"/>
      <point x="273.0" y="159.0" type="line"/>
      <point x="275.0" y="525.0" type="line"/>
      <point x="273.0" y="891.0" type="line"/>
      <point x="75.0" y="926.0" type="line"/>
      <point x="75.0" y="1050.0" type="line"/>
      <point x="904.0" y="1050.0" type="line"/>
      <point x="904.0" y="926.0" type="line"/>
      <point x="762.0" y="891.0" type="line"/>
      <point x="760.0" y="525.0" type="line"/>
      <point x="762.0" y="166.0" type="line"/>
      <point x="1236.0" y="166.0" type="line"/>
      <point x="1238.0" y="525.0" type="line"/>
      <point x="1237.0" y="891.0" type="line"/>
      <point x="1094.0" y="926.0" type="line"/>
      <point x="1094.0" y="1050.0" type="line"/>
      <point x="1869.0" y="1050.0" type="line"/>
      <point x="1869.0" y="926.0" type="line"/>
      <point x="1726.0" y="891.0" type="line"/>
      <point x="1723.0" y="525.0" type="line"/>
      <point x="1725.0" y="166.0" type="line"/>
      <point x="2199.0" y="166.0" type="line"/>
      <point x="2201.0" y="525.0" type="line"/>
      <point x="2199.0" y="891.0" type="line"/>
      <point x="2057.0" y="926.0" type="line"/>
      <point x="2057.0" y="1050.0" type="line"/>
      <point x="2887.0" y="1050.0" type="line"/>
      <point x="2887.0" y="926.0" type="line"/>
      <point x="2688.0" y="891.0" type="line"/>
      <point x="2686.0" y="525.0" type="line"/>
      <point x="2688.0" y="166.0" type="line"/>
      <point x="2912.0" y="166.0" type="line"/>
      <point x="2922.0" y="-318.0" type="line"/>
      <point x="2754.0" y="-318.0" type="line"/>
    </contour>
  </outline>
</glyph>
<glyph name="ecyr" format="2">
  <advance width="1659"/>
  <unicode hex="044D"/>
  <guideline x="180.0" y="548.0" angle="90.0" identifier="n4jm0tBg3Y"/>
  <outline>
    <contour>
      <point x="1325.0" y="613.0" type="line"/>
      <point x="1325.0" y="457.0" type="line"/>
      <point x="459.0" y="455.0" type="line"/>
      <point x="459.0" y="616.0" type="line"/>
    </contour>
    <contour>
      <point x="775.0" y="-35.0" type="qcurve" smooth="yes"/>
      <point x="605.0" y="-35.0"/>
      <point x="346.0" y="34.0"/>
      <point x="277.0" y="77.0" type="qcurve"/>
      <point x="250.0" y="-3.0" type="line"/>
      <point x="100.0" y="-3.0" type="line"/>
      <point x="100.0" y="365.0" type="line"/>
      <point x="259.0" y="365.0" type="line"/>
      <point x="278.0" y="277.0" type="line" smooth="yes"/>
      <point x="295.0" y="201.0"/>
      <point x="490.0" y="128.0"/>
      <point x="662.0" y="128.0" type="qcurve" smooth="yes"/>
      <point x="879.0" y="128.0"/>
      <point x="1069.0" y="300.0"/>
      <point x="1069.0" y="526.0" type="qcurve" smooth="yes"/>
      <point x="1069.0" y="746.0"/>
      <point x="870.0" y="917.0"/>
      <point x="662.0" y="917.0" type="qcurve" smooth="yes"/>
      <point x="522.0" y="917.0"/>
      <point x="299.0" y="843.0"/>
      <point x="280.0" y="755.0" type="qcurve" smooth="yes"/>
      <point x="266.0" y="685.0" type="line"/>
      <point x="117.0" y="685.0" type="line"/>
      <point x="117.0" y="1053.0" type="line"/>
      <point x="259.0" y="1053.0" type="line"/>
      <point x="292.0" y="976.0" type="line"/>
      <point x="380.0" y="1028.0"/>
      <point x="642.0" y="1086.0"/>
      <point x="784.0" y="1086.0" type="qcurve" smooth="yes"/>
      <point x="1150.0" y="1086.0"/>
      <point x="1581.0" y="794.0"/>
      <point x="1581.0" y="531.0" type="qcurve" smooth="yes"/>
      <point x="1581.0" y="272.0"/>
      <point x="1161.0" y="-35.0"/>
    </contour>
  </outline>
</glyph>
<glyph name="ya" format="2">
  <advance width="2045"/>
  <unicode hex="044F"/>
  <guideline x="302.0" y="625.0" angle="90.0" identifier="XQgmgmO2xX"/>
  <guideline x="953.0" y="554.0" angle="90.0" identifier="MobSutKfE9"/>
  <guideline x="627.0" y="553.0" angle="90.0" identifier="l2g0Cp9ZiO"/>
  <outline>
    <contour>
      <point x="1394.0" y="546.0" type="line"/>
      <point x="1394.0" y="386.0" type="line"/>
      <point x="783.0" y="386.0" type="line"/>
      <point x="742.0" y="395.0" type="line"/>
      <point x="461.0" y="384.0"/>
      <point x="197.0" y="556.0"/>
      <point x="197.0" y="724.0" type="qcurve" smooth="yes"/>
      <point x="197.0" y="891.0"/>
      <point x="483.0" y="1050.0"/>
      <point x="777.0" y="1050.0" type="qcurve" smooth="yes"/>
      <point x="1970.0" y="1050.0" type="line"/>
      <point x="1970.0" y="926.0" type="line"/>
      <point x="1772.0" y="891.0" type="line"/>
      <point x="1770.0" y="525.0" type="line"/>
      <point x="1772.0" y="159.0" type="line"/>
      <point x="1970.0" y="124.0" type="line"/>
      <point x="1970.0" y="0.0" type="line"/>
      <point x="1105.0" y="0.0" type="line"/>
      <point x="1105.0" y="124.0" type="line"/>
      <point x="1282.0" y="159.0" type="line"/>
      <point x="1285.0" y="525.0" type="line"/>
      <point x="1282.0" y="887.0" type="line"/>
      <point x="963.0" y="887.0" type="line" smooth="yes"/>
      <point x="798.0" y="887.0"/>
      <point x="677.0" y="799.0"/>
      <point x="677.0" y="720.0" type="qcurve" smooth="yes"/>
      <point x="677.0" y="639.0"/>
      <point x="795.0" y="546.0"/>
      <point x="954.0" y="546.0" type="qcurve" smooth="yes"/>
    </contour>
    <contour>
      <point x="1065.0" y="430.0" type="line"/>
      <point x="705.0" y="141.0" type="line"/>
      <point x="734.0" y="109.0" type="line"/>
      <point x="718.0" y="0.0" type="line"/>
      <point x="50.0" y="0.0" type="line"/>
      <point x="50.0" y="124.0" type="line"/>
      <point x="207.0" y="159.0" type="line"/>
      <point x="640.0" y="556.0" type="line"/>
    </contour>
  </outline>
</glyph>
<glyph name="dje" format="2">
  <advance width="2166"/>
  <unicode hex="0452"/>
  <outline>
    <contour>
      <point x="639.0" y="1150.0" type="line"/>
      <point x="120.0" y="1150.0" type="line"/>
      <point x="134.0" y="1272.0" type="line"/>
      <point x="654.0" y="1272.0" type="line"/>
      <point x="1166.0" y="1272.0" type="line"/>
      <point x="1166.0" y="1150.0" type="line"/>
    </contour>
    <contour>
      <point x="1985.0" y="582.0" type="qcurve"/>
      <point x="1984.0" y="-94.0" type="line" smooth="yes"/>
      <point x="1983.0" y="-273.0"/>
      <point x="1704.0" y="-487.0"/>
      <point x="1270.0" y="-471.0" type="qcurve"/>
      <point x="1270.0" y="-293.0" type="line"/>
      <point x="1409.0" y="-290.0"/>
      <point x="1498.0" y="-184.0"/>
      <point x="1496.0" y="-82.0" type="qcurve" smooth="yes"/>
      <point x="1492.0" y="540.0" type="line"/>
      <point x="1495.0" y="581.0" type="line" smooth="yes"/>
      <point x="1495.0" y="723.0"/>
      <point x="1362.0" y="813.0"/>
      <point x="1228.0" y="813.0" type="qcurve" smooth="yes"/>
      <point x="1078.0" y="813.0"/>
      <point x="834.0" y="686.0"/>
      <point x="770.0" y="639.0" type="qcurve"/>
      <point x="767.0" y="510.0" type="line"/>
      <point x="770.0" y="159.0" type="line"/>
      <point x="957.0" y="124.0" type="line"/>
      <point x="957.0" y="0.0" type="line"/>
      <point x="77.0" y="0.0" type="line"/>
      <point x="77.0" y="124.0" type="line"/>
      <point x="281.0" y="159.0" type="line"/>
      <point x="283.0" y="562.0" type="line"/>
      <point x="281.0" y="1336.0" type="line"/>
      <point x="104.0" y="1366.0" type="line"/>
      <point x="104.0" y="1500.0" type="line"/>
      <point x="677.0" y="1534.0" type="line"/>
      <point x="709.0" y="1534.0" type="line"/>
      <point x="768.0" y="1485.0" type="line"/>
      <point x="769.0" y="834.0" type="line"/>
      <point x="879.5580117498" y="925.6082701933"/>
      <point x="1257.1337907376" y="1071.0"/>
      <point x="1481.0" y="1071.0" type="qcurve" smooth="yes"/>
      <point x="1737.9567099567" y="1071.0"/>
      <point x="1982.0" y="867.0"/>
      <point x="1982.0" y="703.0" type="qcurve" smooth="yes"/>
      <point x="1982.0" y="669.0"/>
      <point x="1985.0" y="705.0"/>
    </contour>
  </outline>
</glyph>
<glyph name="yi" format="2">
  <advance width="981"/>
  <unicode hex="0457"/>
  <outline>
    <contour>
      <point x="87.0" y="0.0" type="line"/>
      <point x="87.0" y="124.0" type="line"/>
      <point x="265.0" y="159.0" type="line"/>
      <point x="267.0" y="552.0" type="line"/>
      <point x="265.0" y="857.0" type="line"/>
      <point x="87.0" y="887.0" type="line"/>
      <point x="87.0" y="1020.0" type="line"/>
      <point x="637.0" y="1052.0" type="line"/>
      <point x="715.0" y="1052.0" type="line"/>
      <point x="758.0" y="1003.0" type="line"/>
      <point x="751.0" y="552.0" type="line"/>
      <point x="753.0" y="159.0" type="line"/>
      <point x="931.0" y="124.0" type="line"/>
      <point x="931.0" y="0.0" type="line"/>
    </contour>
    <contour>
      <point x="35.0" y="1329.0" type="qcurve" smooth="yes"/>
      <point x="35.0" y="1413.0"/>
      <point x="138.0" y="1517.0"/>
      <point x="231.0" y="1517.0" type="qcurve" smooth="yes"/>
      <point x="322.0" y="1517.0"/>
      <point x="430.0" y="1415.0"/>
      <point x="430.0" y="1329.0" type="qcurve" smooth="yes"/>
      <point x="430.0" y="1251.0"/>
      <point x="329.0" y="1153.0"/>
      <point x="233.0" y="1153.0" type="qcurve" smooth="yes"/>
      <point x="142.0" y="1153.0"/>
      <point x="35.0" y="1255.0"/>
    </contour>
    <contour>
      <point x="525.0" y="1329.0" type="qcurve" smooth="yes"/>
      <point x="525.0" y="1413.0"/>
      <point x="627.0" y="1517.0"/>
      <point x="721.0" y="1517.0" type="qcurve" smooth="yes"/>
      <point x="811.0" y="1517.0"/>
      <point x="920.0" y="1415.0"/>
      <point x="920.0" y="1329.0" type="qcurve" smooth="yes"/>
      <point x="920.0" y="1251.0"/>
      <point x="819.0" y="1153.0"/>
      <point x="722.0" y="1153.0" type="qcurve" smooth="yes"/>
      <point x="633.0" y="1153.0"/>
      <point x="525.0" y="1255.0"/>
    </contour>
  </outline>
</glyph>
<glyph name="lje" format="2">
  <advance width="2588"/>
  <unicode hex="0459"/>
  <guideline x="302.0" y="200.0" angle="90.0" identifier="jHuxcyi1x5"/>
  <guideline x="953.0" y="554.0" angle="90.0" identifier="b1mHk7wgTR"/>
  <guideline x="627.0" y="553.0" angle="90.0" identifier="m4aYe0x4PZ"/>
  <guideline x="302.0" y="625.0" angle="90.0" identifier="vLcWUVIRLn"/>
  <guideline x="953.0" y="554.0" angle="90.0" identifier="6dzOxXKOwA"/>
  <guideline x="627.0" y="553.0" angle="90.0" identifier="mJzxvRVyB1"/>
  <guideline x="302.0" y="625.0" angle="90.0" identifier="NbdfSyw2GO"/>
  <outline>
    <contour>
      <point x="1064.0" y="884.0" type="line"/>
      <point x="1065.0" y="525.0" type="line"/>
      <point x="1063.0" y="159.0" type="line"/>
      <point x="865.0" y="124.0" type="line"/>
      <point x="865.0" y="0.0" type="line"/>
      <point x="2082.0" y="0.0" type="line" smooth="yes"/>
      <point x="2349.0" y="0.0"/>
      <point x="2588.0" y="178.0"/>
      <point x="2588.0" y="341.0" type="qcurve" smooth="yes"/>
      <point x="2588.0" y="516.0"/>
      <point x="2344.0" y="684.0"/>
      <point x="2082.0" y="684.0" type="qcurve" smooth="yes"/>
      <point x="1307.0" y="684.0" type="line"/>
      <point x="1307.0" y="524.0" type="line"/>
      <point x="1871.0" y="524.0" type="line" smooth="yes"/>
      <point x="2010.0" y="524.0"/>
      <point x="2111.0" y="429.0"/>
      <point x="2111.0" y="345.0" type="qcurve" smooth="yes"/>
      <point x="2111.0" y="259.0"/>
      <point x="2007.0" y="163.0"/>
      <point x="1862.0" y="163.0" type="qcurve" smooth="yes"/>
      <point x="1552.0" y="163.0" type="line"/>
      <point x="1549.0" y="525.0" type="line"/>
      <point x="1552.0" y="891.0" type="line"/>
      <point x="1759.0" y="926.0" type="line"/>
      <point x="1759.0" y="1050.0" type="line"/>
      <point x="155.0" y="1050.0" type="line"/>
      <point x="155.0" y="926.0" type="line"/>
      <point x="363.0" y="891.0" type="line"/>
      <point x="344.0" y="576.0" type="line" smooth="yes"/>
      <point x="330.0" y="393.0"/>
      <point x="226.0" y="299.0"/>
      <point x="117.0" y="299.0" type="qcurve" smooth="yes"/>
      <point x="98.0" y="299.0"/>
      <point x="52.0" y="304.0"/>
      <point x="30.0" y="311.0" type="qcurve"/>
      <point x="30.0" y="0.0" type="line"/>
      <point x="41.0" y="-5.0"/>
      <point x="130.42857142859998" y="-18.0"/>
      <point x="169.0" y="-18.0" type="qcurve" smooth="yes"/>
      <point x="357.68076539770004" y="-18.0"/>
      <point x="509.3968401637" y="210.0059481931"/>
      <point x="531.0" y="529.0" type="qcurve" smooth="yes"/>
      <point x="553.0" y="884.0" type="line"/>
    </contour>
  </outline>
</glyph>
<glyph name="nje" format="2">
  <advance width="2899"/>
  <unicode hex="045A"/>
  <guideline x="302.0" y="625.0" angle="90.0" identifier="jHuxcyi1x5"/>
  <guideline x="953.0" y="554.0" angle="90.0" identifier="b1mHk7wgTR"/>
  <guideline x="627.0" y="553.0" angle="90.0" identifier="m4aYe0x4PZ"/>
  <guideline x="422.0" y="546.0" angle="90.0" identifier="rq0U6aqci5"/>
  <guideline x="1235.0" y="655.0" angle="90.0" identifier="XL8H0eYrVF"/>
  <outline>
    <contour>
      <point x="517.0" y="642.0" type="line"/>
      <point x="1119.0" y="639.0" type="line"/>
      <point x="1618.0" y="642.0" type="line"/>
      <point x="1618.0" y="481.0" type="line"/>
      <point x="1119.0" y="483.0" type="line"/>
      <point x="517.0" y="481.0" type="line"/>
    </contour>
    <contour>
      <point x="275.0" y="525.0" type="line"/>
      <point x="273.0" y="891.0" type="line"/>
      <point x="75.0" y="926.0" type="line"/>
      <point x="75.0" y="1050.0" type="line"/>
      <point x="939.0" y="1050.0" type="line"/>
      <point x="939.0" y="926.0" type="line"/>
      <point x="762.0" y="891.0" type="line"/>
      <point x="759.0" y="525.0" type="line"/>
      <point x="762.0" y="159.0" type="line"/>
      <point x="939.0" y="124.0" type="line"/>
      <point x="939.0" y="0.0" type="line"/>
      <point x="75.0" y="0.0" type="line"/>
      <point x="75.0" y="124.0" type="line"/>
      <point x="273.0" y="159.0" type="line"/>
    </contour>
    <contour>
      <point x="1618.0" y="482.0" type="line"/>
      <point x="1618.0" y="642.0" type="line"/>
      <point x="2393.0" y="642.0" type="line" smooth="yes"/>
      <point x="2655.0" y="642.0"/>
      <point x="2899.0" y="486.0"/>
      <point x="2899.0" y="324.0" type="qcurve" smooth="yes"/>
      <point x="2899.0" y="169.0"/>
      <point x="2660.0" y="0.0"/>
      <point x="2393.0" y="0.0" type="qcurve" smooth="yes"/>
      <point x="1196.0" y="0.0" type="line"/>
      <point x="1196.0" y="124.0" type="line"/>
      <point x="1374.0" y="159.0" type="line"/>
      <point x="1376.0" y="525.0" type="line"/>
      <point x="1374.0" y="891.0" type="line"/>
      <point x="1196.0" y="926.0" type="line"/>
      <point x="1196.0" y="1050.0" type="line"/>
      <point x="2070.0" y="1050.0" type="line"/>
      <point x="2070.0" y="926.0" type="line"/>
      <point x="1863.0" y="891.0" type="line"/>
      <point x="1860.0" y="525.0" type="line"/>
      <point x="1863.0" y="163.0" type="line"/>
      <point x="2173.0" y="163.0" type="line" smooth="yes"/>
      <point x="2318.0" y="163.0"/>
      <point x="2422.0" y="250.0"/>
      <point x="2422.0" y="328.0" type="qcurve" smooth="yes"/>
      <point x="2422.0" y="400.0"/>
      <point x="2321.0" y="482.0"/>
      <point x="2182.0" y="482.0" type="qcurve" smooth="yes"/>
    </contour>
  </outline>
</glyph>
<glyph name="Gheup" format="2">
  <advance width="1932"/>
  <unicode hex="0490"/>
  <outline>
    <contour>
      <point x="1617.0" y="1500.0" type="line"/>
      <point x="1703.0" y="1838.0" type="line"/>
      <point x="1888.0" y="1838.0" type="line"/>
      <point x="1878.0" y="1342.0" type="line"/>
      <point x="868.0" y="1342.0" type="line"/>
      <point x="813.0" y="1318.0" type="line"/>
      <point x="817.0" y="760.0" type="line"/>
      <point x="819.0" y="165.0" type="line"/>
      <point x="1038.0" y="131.0" type="line"/>
      <point x="1038.0" y="0.0" type="line"/>
      <point x="90.0" y="0.0" type="line"/>
      <point x="90.0" y="130.0" type="line"/>
      <point x="308.0" y="165.0" type="line"/>
      <point x="310.0" y="754.0" type="line"/>
      <point x="308.0" y="1322.0" type="line"/>
      <point x="90.0" y="1356.0" type="line"/>
      <point x="90.0" y="1500.0" type="line"/>
    </contour>
  </outline>
</glyph>
<glyph name="gheup" format="2">
  <advance width="1662"/>
  <unicode hex="0491"/>
  <guideline x="302.0" y="625.0" angle="90.0" identifier="jHuxcyi1x5"/>
  <guideline x="953.0" y="554.0" angle="90.0" identifier="b1mHk7wgTR"/>
  <guideline x="627.0" y="553.0" angle="90.0" identifier="m4aYe0x4PZ"/>
  <outline>
    <contour>
      <point x="1334.0" y="1050.0" type="line"/>
      <point x="1433.0" y="1368.0" type="line"/>
      <point x="1593.0" y="1368.0" type="line"/>
      <point x="1583.0" y="884.0" type="line"/>
      <point x="763.0" y="884.0" type="line"/>
      <point x="760.0" y="525.0" type="line"/>
      <point x="763.0" y="159.0" type="line"/>
      <point x="975.0" y="124.0" type="line"/>
      <point x="975.0" y="0.0" type="line"/>
      <point x="75.0" y="0.0" type="line"/>
      <point x="75.0" y="124.0" type="line"/>
      <point x="273.0" y="159.0" type="line"/>
      <point x="275.0" y="525.0" type="line"/>
      <point x="273.0" y="891.0" type="line"/>
      <point x="75.0" y="926.0" type="line"/>
      <point x="75.0" y="1050.0" type="line"/>
    </contour>
  </outline>
</glyph>
<glyph name="Kaverticalstrokecyr" format="2">
  <advance width="2451"/>
  <unicode hex="049C"/>
  <guideline x="480.0" y="796.0" angle="90.0" identifier="LxfLwWU0sJ"/>
  <outline>
    <contour>
      <point x="90.0" y="0.0" type="line"/>
      <point x="90.0" y="130.0" type="line"/>
      <point x="308.0" y="165.0" type="line"/>
      <point x="310.0" y="754.0" type="line"/>
      <point x="308.0" y="1322.0" type="line"/>
      <point x="90.0" y="1356.0" type="line"/>
      <point x="90.0" y="1500.0" type="line"/>
      <point x="1036.0" y="1500.0" type="line"/>
      <point x="1036.0" y="1356.0" type="line"/>
      <point x="813.0" y="1322.0" type="line"/>
      <point x="811.0" y="754.0" type="line"/>
      <point x="813.0" y="165.0" type="line"/>
      <point x="996.0" y="130.0" type="line"/>
      <point x="996.0" y="0.0" type="line"/>
    </contour>
    <contour>
      <point x="1075.0" y="696.0" type="line"/>
      <point x="1075.0" y="858.0" type="line"/>
      <point x="1219.0" y="852.0" type="line"/>
      <point x="1849.0" y="1338.0" type="line"/>
      <point x="1664.0" y="1357.0" type="line"/>
      <point x="1664.0" y="1500.0" type="line"/>
      <point x="2345.0" y="1500.0" type="line"/>
      <point x="2345.0" y="1357.0" type="line"/>
      <point x="2117.0" y="1338.0" type="line"/>
      <point x="1368.0" y="805.0" type="line"/>
      <point x="1277.0" y="696.0" type="line"/>
    </contour>
    <contour>
      <point x="1189.0" y="729.0" type="line"/>
      <point x="1539.0" y="1070.0" type="line"/>
      <point x="2322.0" y="165.0" type="line"/>
      <point x="2499.0" y="130.0" type="line"/>
      <point x="2499.0" y="0.0" type="line"/>
      <point x="1572.0" y="0.0" type="line"/>
      <point x="1572.0" y="130.0" type="line"/>
      <point x="1747.0" y="165.0" type="line"/>
    </contour>
    <contour>
      <point x="1170.0" y="1193.0" type="line"/>
      <point x="1170.0" y="371.0" type="line"/>
      <point x="980.0" y="371.0" type="line"/>
      <point x="980.0" y="1193.0" type="line"/>
    </contour>
  </outline>
</glyph>
<glyph name="kaverticalstrokecyr" format="2">
  <advance width="2125"/>
  <unicode hex="049D"/>
  <guideline x="241.0" y="553.0" angle="90.0" identifier="lmgRx0QBdK"/>
  <outline>
    <contour>
      <point x="1033.0" y="210.0" type="line"/>
      <point x="887.0" y="210.0" type="line"/>
      <point x="887.0" y="792.0" type="line"/>
      <point x="1033.0" y="792.0" type="line"/>
    </contour>
    <contour>
      <point x="275.0" y="525.0" type="line"/>
      <point x="273.0" y="891.0" type="line"/>
      <point x="75.0" y="926.0" type="line"/>
      <point x="75.0" y="1050.0" type="line"/>
      <point x="940.0" y="1050.0" type="line"/>
      <point x="940.0" y="926.0" type="line"/>
      <point x="763.0" y="891.0" type="line"/>
      <point x="760.0" y="525.0" type="line"/>
      <point x="763.0" y="159.0" type="line"/>
      <point x="940.0" y="124.0" type="line"/>
      <point x="940.0" y="0.0" type="line"/>
      <point x="75.0" y="0.0" type="line"/>
      <point x="75.0" y="124.0" type="line"/>
      <point x="273.0" y="159.0" type="line"/>
    </contour>
    <contour>
      <point x="1109.0" y="504.0" type="line"/>
      <point x="1452.0" y="814.0" type="line"/>
      <point x="1967.0" y="159.0" type="line"/>
      <point x="2131.0" y="124.0" type="line"/>
      <point x="2131.0" y="0.0" type="line"/>
      <point x="1397.0" y="0.0" type="line"/>
      <point x="1381.0" y="109.0" type="line"/>
      <point x="1410.0" y="141.0" type="line"/>
    </contour>
    <contour>
      <point x="960.0" y="611.0" type="line"/>
      <point x="1144.0" y="610.0" type="line"/>
      <point x="1486.0" y="880.0" type="line"/>
      <point x="1355.0" y="910.0" type="line"/>
      <point x="1355.0" y="1050.0" type="line"/>
      <point x="1993.0" y="1050.0" type="line"/>
      <point x="1993.0" y="910.0" type="line"/>
      <point x="1762.0" y="875.0" type="line"/>
      <point x="1183.0" y="452.0" type="line"/>
      <point x="960.0" y="452.0" type="line"/>
    </contour>
  </outline>
</glyph>
<glyph name="kabashkircyr" format="2">
  <advance width="2250"/>
  <unicode hex="04A1"/>
  <guideline x="302.0" y="625.0" angle="90.0" identifier="0glbwjr6f1"/>
  <guideline x="953.0" y="554.0" angle="90.0" identifier="41A0uQDzZV"/>
  <guideline x="627.0" y="553.0" angle="90.0" identifier="rA3XBl1QkZ"/>
  <guideline x="241.0" y="553.0" angle="90.0" identifier="UwAftolvUF"/>
  <outline>
    <contour>
      <point x="1204.0" y="504.0" type="line"/>
      <point x="1557.0" y="814.0" type="line"/>
      <point x="2092.0" y="159.0" type="line"/>
      <point x="2256.0" y="124.0" type="line"/>
      <point x="2256.0" y="0.0" type="line"/>
      <point x="1522.0" y="0.0" type="line"/>
      <point x="1506.0" y="109.0" type="line"/>
      <point x="1535.0" y="141.0" type="line"/>
    </contour>
    <contour>
      <point x="832.0" y="612.0" type="line"/>
      <point x="1237.0" y="610.0" type="line"/>
      <point x="1609.0" y="880.0" type="line"/>
      <point x="1480.0" y="910.0" type="line"/>
      <point x="1480.0" y="1050.0" type="line"/>
      <point x="2118.0" y="1050.0" type="line"/>
      <point x="2118.0" y="910.0" type="line"/>
      <point x="1887.0" y="875.0" type="line"/>
      <point x="1419.0" y="564.0" type="line"/>
      <point x="1330.0" y="452.0" type="line"/>
      <point x="832.0" y="451.0" type="line"/>
    </contour>
    <contour>
      <point x="1255.0" y="124.0" type="line"/>
      <point x="1255.0" y="0.0" type="line"/>
      <point x="390.0" y="0.0" type="line"/>
      <point x="390.0" y="124.0" type="line"/>
      <point x="588.0" y="159.0" type="line"/>
      <point x="590.0" y="525.0" type="line"/>
      <point x="588.0" y="884.0" type="line"/>
      <point x="272.0" y="884.0" type="line"/>
      <point x="195.0" y="619.0" type="line"/>
      <point x="35.0" y="619.0" type="line"/>
      <point x="45.0" y="1050.0" type="line"/>
      <point x="1255.0" y="1050.0" type="line"/>
      <point x="1255.0" y="926.0" type="line"/>
      <point x="1078.0" y="891.0" type="line"/>
      <point x="1075.0" y="525.0" type="line"/>
      <point x="1078.0" y="159.0" type="line"/>
    </contour>
  </outline>
</glyph>
<glyph name="ustraight" format="2">
  <advance width="1944"/>
  <unicode hex="04AF"/>
  <outline>
    <contour>
      <point x="20.0" y="910.0" type="line"/>
      <point x="20.0" y="1050.0" type="line"/>
      <point x="932.0" y="1050.0" type="line"/>
      <point x="932.0" y="910.0" type="line"/>
      <point x="758.0" y="874.0" type="line"/>
      <point x="943.0" y="559.0" type="line"/>
      <point x="1153.0" y="207.0" type="line"/>
      <point x="1354.0" y="573.0" type="line"/>
      <point x="1504.0" y="875.0" type="line"/>
      <point x="1324.0" y="910.0" type="line"/>
      <point x="1324.0" y="1050.0" type="line"/>
      <point x="1904.0" y="1050.0" type="line"/>
      <point x="1904.0" y="910.0" type="line"/>
      <point x="1718.0" y="875.0" type="line"/>
      <point x="1509.0" y="534.0" type="line"/>
      <point x="1234.0" y="0.0" type="line"/>
      <point x="1235.0" y="-321.0" type="line"/>
      <point x="1422.0" y="-356.0" type="line"/>
      <point x="1422.0" y="-480.0" type="line"/>
      <point x="548.0" y="-480.0" type="line"/>
      <point x="548.0" y="-356.0" type="line"/>
      <point x="740.0" y="-321.0" type="line"/>
      <point x="743.0" y="0.0" type="line"/>
      <point x="484.0" y="425.0" type="line"/>
      <point x="202.0" y="875.0" type="line"/>
    </contour>
  </outline>
</glyph>
<glyph name="Chedescender-cy" format="2">
  <advance width="2385"/>
  <unicode hex="04B6"/>
  <guideline x="1330.0" y="777.0" angle="90.0" identifier="9CLqHZNG04"/>
  <outline>
    <contour>
      <point x="-5.0" y="1356.0" type="line"/>
      <point x="-5.0" y="1500.0" type="line"/>
      <point x="921.0" y="1500.0" type="line"/>
      <point x="921.0" y="1356.0" type="line"/>
      <point x="717.0" y="1322.0" type="line"/>
      <point x="715.0" y="1024.0" type="line" smooth="yes"/>
      <point x="714.0" y="867.0"/>
      <point x="898.0" y="755.0"/>
      <point x="1127.0" y="755.0" type="qcurve" smooth="yes"/>
      <point x="1278.0" y="755.0"/>
      <point x="1624.0" y="806.0"/>
      <point x="1795.0" y="862.0" type="qcurve"/>
      <point x="1795.0" y="695.0" type="line"/>
      <point x="1620.0" y="634.0"/>
      <point x="1240.0" y="575.0"/>
      <point x="968.0" y="575.0" type="qcurve" smooth="yes"/>
      <point x="622.0" y="575.0"/>
      <point x="217.0" y="764.0"/>
      <point x="215.0" y="1024.0" type="qcurve" smooth="yes"/>
      <point x="213.0" y="1322.0" type="line"/>
    </contour>
    <contour>
      <point x="2045.0" y="166.0" type="line"/>
      <point x="2305.0" y="166.0" type="line"/>
      <point x="2315.0" y="-338.0" type="line"/>
      <point x="2135.0" y="-338.0" type="line"/>
      <point x="2036.0" y="0.0" type="line"/>
      <point x="1305.0" y="0.0" type="line"/>
      <point x="1305.0" y="130.0" type="line"/>
      <point x="1540.0" y="165.0" type="line"/>
      <point x="1542.0" y="754.0" type="line"/>
      <point x="1540.0" y="1322.0" type="line"/>
      <point x="1337.0" y="1356.0" type="line"/>
      <point x="1337.0" y="1500.0" type="line"/>
      <point x="2263.0" y="1500.0" type="line"/>
      <point x="2263.0" y="1356.0" type="line"/>
      <point x="2045.0" y="1322.0" type="line"/>
      <point x="2043.0" y="754.0" type="line"/>
    </contour>
  </outline>
</glyph>
<glyph name="Shha" format="2">
  <advance width="2383"/>
  <unicode hex="04BA"/>
  <outline>
    <contour>
      <point x="1048.0" y="1500.0" type="line"/>
      <point x="1048.0" y="1356.0" type="line"/>
      <point x="812.0" y="1322.0" type="line"/>
      <point x="810.0" y="766.0" type="line"/>
      <point x="812.0" y="166.0" type="line"/>
      <point x="1015.0" y="130.0" type="line"/>
      <point x="1015.0" y="0.0" type="line"/>
      <point x="90.0" y="0.0" type="line"/>
      <point x="90.0" y="130.0" type="line"/>
      <point x="308.0" y="166.0" type="line"/>
      <point x="310.0" y="746.0" type="line"/>
      <point x="308.0" y="1322.0" type="line"/>
      <point x="90.0" y="1356.0" type="line"/>
      <point x="90.0" y="1500.0" type="line"/>
    </contour>
    <contour>
      <point x="2358.0" y="130.0" type="line"/>
      <point x="2358.0" y="0.0" type="line"/>
      <point x="1432.0" y="0.0" type="line"/>
      <point x="1432.0" y="130.0" type="line"/>
      <point x="1636.0" y="166.0" type="line"/>
      <point x="1638.0" y="456.0" type="line" smooth="yes"/>
      <point x="1639.0" y="624.0"/>
      <point x="1455.0" y="745.0"/>
      <point x="1226.0" y="745.0" type="qcurve" smooth="yes"/>
      <point x="1075.2023809523998" y="745.0"/>
      <point x="729.0" y="692.0"/>
      <point x="558.0" y="636.0" type="qcurve"/>
      <point x="558.0" y="803.0" type="line"/>
      <point x="733.0" y="864.0"/>
      <point x="1133.0" y="925.0"/>
      <point x="1385.0" y="925.0" type="qcurve" smooth="yes"/>
      <point x="1731.0" y="925.0"/>
      <point x="2136.0" y="727.0"/>
      <point x="2138.0" y="456.0" type="qcurve" smooth="yes"/>
      <point x="2140.0" y="166.0" type="line"/>
    </contour>
  </outline>
</glyph>
<glyph name="obarcyr" format="2">
  <advance width="1979"/>
  <unicode hex="04E9"/>
  <guideline x="585.0" y="692.0" angle="90.0" identifier="TW15yk9ONy"/>
  <guideline x="773.0" y="661.0" angle="90.0" identifier="iXYCZjvR1w"/>
  <guideline x="313.0" y="644.0" angle="90.0" identifier="1N1aDOFkes"/>
  <outline>
    <contour>
      <point x="80.0" y="525.0" type="qcurve" smooth="yes"/>
      <point x="80.0" y="773.0"/>
      <point x="590.0" y="1085.0"/>
      <point x="987.0" y="1085.0" type="qcurve" smooth="yes"/>
      <point x="1386.0" y="1085.0"/>
      <point x="1901.0" y="794.0"/>
      <point x="1901.0" y="531.0" type="qcurve" smooth="yes"/>
      <point x="1901.0" y="284.0"/>
      <point x="1395.0" y="-36.0"/>
      <point x="997.0" y="-36.0" type="qcurve" smooth="yes"/>
      <point x="599.0" y="-36.0"/>
      <point x="80.0" y="260.0"/>
    </contour>
    <contour>
      <point x="574.0" y="540.0" type="qcurve" smooth="yes"/>
      <point x="575.999999909" y="313.000016467"/>
      <point x="800.4494047619" y="105.0"/>
      <point x="989.0" y="105.0" type="qcurve" smooth="yes"/>
      <point x="1190.124260355" y="105.0"/>
      <point x="1406.0" y="292.0"/>
      <point x="1406.0" y="526.0" type="qcurve" smooth="yes"/>
      <point x="1406.0" y="746.0"/>
      <point x="1179.2857142857001" y="928.0"/>
      <point x="992.0" y="928.0" type="qcurve" smooth="yes"/>
      <point x="786.4852071006001" y="928.0"/>
      <point x="573.0000000914" y="764.9999835396"/>
    </contour>
    <contour>
      <point x="327.0" y="612.0" type="line"/>
      <point x="972.0" y="609.0" type="line"/>
      <point x="1653.0" y="612.0" type="line"/>
      <point x="1653.0" y="451.0" type="line"/>
      <point x="972.0" y="453.0" type="line"/>
      <point x="327.0" y="451.0" type="line"/>
    </contour>
  </outline>
</glyph>
<glyph name="Germandbls" format="2">
  <advance width="2451"/>
  <unicode hex="1E9E"/>
  <outline>
    <contour>
      <point x="298.0" y="690.0" type="line"/>
      <point x="295.0" y="1002.0" type="line" smooth="yes"/>
      <point x="292.0" y="1245.0"/>
      <point x="645.0" y="1524.0"/>
      <point x="1116.0" y="1524.0" type="qcurve" smooth="yes"/>
      <point x="1272.0" y="1524.0"/>
      <point x="1650.0" y="1506.0"/>
      <point x="1772.0" y="1500.0" type="qcurve"/>
      <point x="1775.0" y="1336.0" type="line"/>
      <point x="1618.0" y="1336.0"/>
      <point x="1442.0" y="1249.0"/>
      <point x="1442.0" y="1151.0" type="qcurve" smooth="yes"/>
      <point x="1442.0" y="1077.0"/>
      <point x="1556.0" y="975.0"/>
      <point x="1819.0" y="894.0" type="qcurve" smooth="yes"/>
      <point x="2158.0" y="783.0"/>
      <point x="2350.0" y="582.0"/>
      <point x="2350.0" y="417.0" type="qcurve" smooth="yes"/>
      <point x="2350.0" y="224.0"/>
      <point x="1976.0" y="-33.0"/>
      <point x="1617.0" y="-33.0" type="qcurve" smooth="yes"/>
      <point x="1439.0" y="-33.0"/>
      <point x="1240.0" y="27.0"/>
      <point x="1166.0" y="83.0" type="qcurve"/>
      <point x="1119.0" y="0.0" type="line"/>
      <point x="978.0" y="0.0" type="line"/>
      <point x="978.0" y="484.0" type="line"/>
      <point x="1135.0" y="484.0" type="line"/>
      <point x="1156.0" y="423.0" type="line" smooth="yes"/>
      <point x="1191.0" y="305.0"/>
      <point x="1414.0" y="182.0"/>
      <point x="1577.0" y="182.0" type="qcurve" smooth="yes"/>
      <point x="1755.0" y="182.0"/>
      <point x="1944.0" y="273.0"/>
      <point x="1944.0" y="364.0" type="qcurve" smooth="yes"/>
      <point x="1944.0" y="451.0"/>
      <point x="1722.0" y="548.0"/>
      <point x="1528.0" y="592.0" type="qcurve" smooth="yes"/>
      <point x="1292.0" y="655.0"/>
      <point x="1076.0" y="859.0"/>
      <point x="1076.0" y="1022.0" type="qcurve" smooth="yes"/>
      <point x="1076.0" y="1127.0"/>
      <point x="1180.0" y="1280.0"/>
      <point x="1285.0" y="1332.0" type="qcurve"/>
      <point x="1139.0" y="1332.0" type="line" smooth="yes"/>
      <point x="959.0" y="1332.0"/>
      <point x="799.0" y="1195.0"/>
      <point x="797.0" y="1019.0" type="qcurve" smooth="yes"/>
      <point x="794.0" y="760.0" type="line"/>
      <point x="797.0" y="-385.0" type="line"/>
      <point x="1088.0" y="-420.0" type="line"/>
      <point x="1088.0" y="-520.0" type="line"/>
      <point x="46.0" y="-520.0" type="line"/>
      <point x="46.0" y="-420.0" type="line"/>
      <point x="295.0" y="-385.0" type="line"/>
    </contour>
  </outline>
</glyph>
<glyph name="endash" format="2">
  <advance width="1024"/>
  <unicode hex="2013"/>
  <outline>
    <contour>
      <point x="0.0" y="507.0" type="line"/>
      <point x="0.0" y="811.0" type="line"/>
      <point x="503.0" y="813.0" type="line"/>
      <point x="1024.0" y="811.0" type="line"/>
      <point x="1024.0" y="507.0" type="line"/>
      <point x="503.0" y="501.0" type="line"/>
    </contour>
  </outline>
</glyph>
<glyph name="dong" format="2">
  <advance width="1988"/>
  <unicode hex="20AB"/>
  <outline>
    <contour>
      <point x="77.0" y="507.0" type="qcurve" smooth="yes"/>
      <point x="77.0" y="766.0"/>
      <point x="492.0" y="1051.0"/>
      <point x="832.0" y="1051.0" type="qcurve" smooth="yes"/>
      <point x="952.0" y="1051.0"/>
      <point x="1192.0" y="1007.0"/>
      <point x="1260.0" y="971.0" type="qcurve"/>
      <point x="1263.0" y="1331.0" type="line"/>
      <point x="1065.0" y="1366.0" type="line"/>
      <point x="1065.0" y="1500.0" type="line"/>
      <point x="1615.0" y="1534.0" type="line"/>
      <point x="1656.0" y="1534.0" type="line"/>
      <point x="1710.0" y="1485.0" type="line"/>
      <point x="1705.0" y="507.0" type="line"/>
      <point x="1707.0" y="149.0" type="line"/>
      <point x="1883.0" y="114.0" type="line"/>
      <point x="1883.0" y="-20.0" type="line"/>
      <point x="1307.0" y="0.0" type="line"/>
      <point x="1274.0" y="16.0" type="line"/>
      <point x="1261.0" y="121.0" type="line"/>
      <point x="1190.0" y="60.0"/>
      <point x="898.0" y="-19.0"/>
      <point x="730.0" y="-19.0" type="qcurve" smooth="yes"/>
      <point x="458.0" y="-19.0"/>
      <point x="77.0" y="261.0"/>
    </contour>
    <contour>
      <point x="536.0" y="524.0" type="qcurve" smooth="yes"/>
      <point x="536.0" y="324.0"/>
      <point x="720.0" y="171.0"/>
      <point x="868.0" y="171.0" type="qcurve" smooth="yes"/>
      <point x="1008.0" y="171.0"/>
      <point x="1215.0" y="249.0"/>
      <point x="1256.0" y="303.0" type="qcurve"/>
      <point x="1257.0" y="527.0" type="line"/>
      <point x="1256.0" y="786.0" type="line"/>
      <point x="1219.0" y="827.0"/>
      <point x="1025.0" y="877.0"/>
      <point x="935.0" y="877.0" type="qcurve" smooth="yes"/>
      <point x="737.0" y="877.0"/>
      <point x="536.0" y="729.0"/>
    </contour>
    <contour>
      <point x="185.0" y="-296.0" type="line"/>
      <point x="185.0" y="-124.0" type="line"/>
      <point x="996.0" y="-128.0" type="line"/>
      <point x="1817.0" y="-124.0" type="line"/>
      <point x="1817.0" y="-296.0" type="line"/>
      <point x="997.0" y="-292.0" type="line"/>
    </contour>
    <contour>
      <point x="666.0" y="1111.0" type="line"/>
      <point x="667.0" y="1260.0" type="line"/>
      <point x="1364.0" y="1257.0" type="line"/>
      <point x="1933.0" y="1260.0" type="line"/>
      <point x="1933.0" y="1111.0" type="line"/>
      <point x="1363.0" y="1115.0" type="line"/>
    </contour>
  </outline>
</glyph>
<glyph name="hryvnia" format="2">
  <advance width="1792"/>
  <unicode hex="20B4"/>
  <outline>
    <contour>
      <point x="1606.0" y="219.0" type="line"/>
      <point x="1521.7308579084" y="80.4206641636"/>
      <point x="1178.0" y="-55.0"/>
      <point x="917.0" y="-55.0" type="qcurve" smooth="yes"/>
      <point x="570.0" y="-55.0"/>
      <point x="228.0" y="187.0215827338"/>
      <point x="228.0" y="386.0" type="qcurve" smooth="yes"/>
      <point x="228.0" y="446.0"/>
      <point x="250.4083749341" y="550.7604046239"/>
      <point x="272.0" y="596.0" type="qcurve"/>
      <point x="286.0" y="601.0" type="line"/>
      <point x="349.0" y="706.0"/>
      <point x="601.0" y="832.0"/>
      <point x="807.0" y="888.0" type="qcurve" smooth="yes"/>
      <point x="891.0" y="894.0"/>
      <point x="1021.0" y="900.0"/>
      <point x="1057.0" y="923.0" type="qcurve"/>
      <point x="991.0" y="960.0" type="line"/>
      <point x="1062.0305465981" y="1009.4125541552"/>
      <point x="1115.0" y="1132.5964912281"/>
      <point x="1115.0" y="1197.0" type="qcurve" smooth="yes"/>
      <point x="1115.0" y="1290.8287292818"/>
      <point x="974.0" y="1389.0"/>
      <point x="833.0" y="1389.0" type="qcurve" smooth="yes"/>
      <point x="724.0" y="1389.0"/>
      <point x="506.0" y="1327.0"/>
      <point x="420.0" y="1252.0" type="qcurve"/>
      <point x="318.0" y="1404.0" type="line"/>
      <point x="434.0" y="1487.0"/>
      <point x="732.0" y="1547.0"/>
      <point x="914.0" y="1547.0" type="qcurve" smooth="yes"/>
      <point x="1208.0" y="1547.0"/>
      <point x="1561.0" y="1325.8612440191"/>
      <point x="1561.0" y="1139.0" type="qcurve" smooth="yes"/>
      <point x="1561.0" y="1075.2408376963"/>
      <point x="1539.8949231183" y="964.2371603271"/>
      <point x="1513.0" y="918.0" type="qcurve"/>
      <point x="1484.0" y="902.0" type="line"/>
      <point x="1429.0" y="821.0"/>
      <point x="1240.0" y="726.0"/>
      <point x="1025.0" y="679.0" type="qcurve" smooth="yes"/>
      <point x="903.0" y="664.0"/>
      <point x="726.0" y="639.0"/>
      <point x="688.0" y="603.0" type="qcurve"/>
      <point x="748.0" y="574.0" type="line"/>
      <point x="712.3520810194" y="538.3170583718"/>
      <point x="677.0" y="424.4433962264"/>
      <point x="677.0" y="345.0" type="qcurve" smooth="yes"/>
      <point x="677.0" y="236.3192488263"/>
      <point x="852.0" y="119.0"/>
      <point x="1017.0" y="119.0" type="qcurve" smooth="yes"/>
      <point x="1171.0" y="119.0"/>
      <point x="1411.2300671479" y="228.16546058810002"/>
      <point x="1476.0" y="343.0" type="qcurve"/>
    </contour>
    <contour>
      <point x="60.0" y="667.0" type="line"/>
      <point x="1732.0" y="667.0" type="line"/>
      <point x="1719.0" y="501.0" type="line"/>
      <point x="73.0" y="501.0" type="line"/>
    </contour>
    <contour>
      <point x="73.0" y="1024.0" type="line"/>
      <point x="1719.0" y="1024.0" type="line"/>
      <point x="1732.0" y="858.0" type="line"/>
      <point x="60.0" y="858.0" type="line"/>
    </contour>
  </outline>
</glyph>
<glyph name="ruble" format="2">
  <advance width="1837"/>
  <unicode hex="20BD"/>
  <outline>
    <contour>
      <point x="78.0" y="0.0" type="line"/>
      <point x="78.0" y="124.0" type="line"/>
      <point x="276.0" y="162.0" type="line"/>
      <point x="278.0" y="754.0" type="line"/>
      <point x="276.0" y="1322.0" type="line"/>
      <point x="98.0" y="1356.0" type="line"/>
      <point x="98.0" y="1500.0" type="line"/>
      <point x="1180.0" y="1500.0" type="line" smooth="yes"/>
      <point x="1442.0" y="1500.0"/>
      <point x="1753.0" y="1277.0"/>
      <point x="1753.0" y="1064.0" type="qcurve" smooth="yes"/>
      <point x="1753.0" y="783.0"/>
      <point x="1339.0" y="538.0"/>
      <point x="926.0" y="538.0" type="qcurve" smooth="yes"/>
      <point x="610.0" y="538.0"/>
      <point x="236.0" y="585.0"/>
      <point x="105.0" y="632.0" type="qcurve"/>
      <point x="114.0" y="787.0" type="line"/>
      <point x="272.0" y="739.0"/>
      <point x="636.0" y="696.0"/>
      <point x="920.0" y="696.0" type="qcurve" smooth="yes"/>
      <point x="1080.0" y="696.0"/>
      <point x="1255.0" y="858.0"/>
      <point x="1251.0" y="1046.0" type="qcurve" smooth="yes"/>
      <point x="1248.0" y="1193.0"/>
      <point x="1118.0" y="1332.0"/>
      <point x="1010.0" y="1332.0" type="qcurve" smooth="yes"/>
      <point x="805.0" y="1332.0" type="line"/>
      <point x="777.0" y="1312.0" type="line"/>
      <point x="775.0" y="764.0" type="line"/>
      <point x="777.0" y="167.0" type="line"/>
      <point x="1007.0" y="124.0" type="line"/>
      <point x="1007.0" y="0.0" type="line"/>
    </contour>
    <contour>
      <point x="86.0" y="309.0" type="line"/>
      <point x="66.0" y="445.0" type="line"/>
      <point x="1380.0" y="445.0" type="line"/>
      <point x="1349.0" y="279.0" type="line"/>
    </contour>
  </outline>
</glyph>
<glyph name="notequal" format="2">
  <advance width="1297"/>
  <unicode hex="2260"/>
  <outline>
    <contour>
      <point x="133.0" y="275.0" type="line"/>
      <point x="133.0" y="541.0" type="line"/>
      <point x="647.0" y="537.0" type="line"/>
      <point x="1163.0" y="541.0" type="line"/>
      <point x="1163.0" y="275.0" type="line"/>
      <point x="647.0" y="279.0" type="line"/>
    </contour>
    <contour>
      <point x="133.0" y="711.0" type="line"/>
      <point x="133.0" y="977.0" type="line"/>
      <point x="647.0" y="973.0" type="line"/>
      <point x="1163.0" y="977.0" type="line"/>
      <point x="1163.0" y="711.0" type="line"/>
      <point x="647.0" y="715.0" type="line"/>
    </contour>
    <contour>
      <point x="252.0" y="83.0" type="line"/>
      <point x="841.0" y="1218.0" type="line"/>
      <point x="1047.0" y="1130.0" type="line"/>
      <point x="458.0" y="-5.0" type="line"/>
    </contour>
  </outline>
</glyph>
<glyph name="greaterequal" format="2">
  <advance width="1297"/>
  <unicode hex="2265"/>
  <outline>
    <contour>
      <point x="70.0" y="-45.0" type="line"/>
      <point x="70.0" y="207.0" type="line"/>
      <point x="1268.0" y="207.0" type="line"/>
      <point x="1268.0" y="-45.0" type="line"/>
    </contour>
    <contour>
      <point x="1237.0" y="796.0" type="qcurve"/>
      <point x="1235.0" y="792.0"/>
      <point x="444.0" y="360.0"/>
      <point x="346.0" y="301.0" type="qcurve" smooth="yes"/>
      <point x="254.0" y="245.0"/>
      <point x="132.0" y="435.0"/>
      <point x="225.0" y="504.0" type="qcurve" smooth="yes"/>
      <point x="360.0" y="592.0"/>
      <point x="661.0" y="782.0"/>
      <point x="684.0" y="799.0" type="qcurve"/>
      <point x="645.0" y="825.0"/>
      <point x="392.0" y="999.0"/>
      <point x="230.0" y="1101.0" type="qcurve"/>
      <point x="135.0" y="1168.0"/>
      <point x="255.0" y="1364.0"/>
      <point x="360.0" y="1297.0" type="qcurve" smooth="yes"/>
      <point x="456.0" y="1239.0"/>
      <point x="1233.0" y="800.0"/>
    </contour>
  </outline>
</glyph>
<glyph name="fi" format="2">
  <advance width="2167"/>
  <unicode hex="FB01"/>
  <outline>
    <contour>
      <point x="139.0" y="0.0" type="line"/>
      <point x="139.0" y="124.0" type="line"/>
      <point x="310.0" y="159.0" type="line"/>
      <point x="321.0" y="552.0" type="line"/>
      <point x="321.0" y="862.0" type="line"/>
      <point x="123.0" y="876.0" type="line"/>
      <point x="118.0" y="1008.0" type="line"/>
      <point x="322.0" y="1034.0" type="line"/>
      <point x="321.0" y="1164.0" type="line" smooth="yes"/>
      <point x="320.0" y="1317.0"/>
      <point x="523.0" y="1533.0"/>
      <point x="764.0" y="1534.0" type="qcurve" smooth="yes"/>
      <point x="851.0" y="1535.0"/>
      <point x="1020.0" y="1514.0"/>
      <point x="1059.0" y="1497.0" type="qcurve" smooth="yes"/>
      <point x="1093.0" y="1483.0" type="line"/>
      <point x="1093.0" y="1318.0" type="line"/>
      <point x="1074.0" y="1325.0" type="line" smooth="yes"/>
      <point x="1053.0" y="1332.0"/>
      <point x="1013.0" y="1331.0"/>
      <point x="994.0" y="1331.0" type="qcurve" smooth="yes"/>
      <point x="891.0" y="1331.0"/>
      <point x="812.0" y="1241.0"/>
      <point x="812.0" y="1198.0" type="qcurve" smooth="yes"/>
      <point x="811.0" y="1024.0" type="line"/>
      <point x="1822.0" y="1042.0" type="line"/>
      <point x="1900.0" y="1042.0" type="line"/>
      <point x="1943.0" y="993.0" type="line"/>
      <point x="1936.0" y="552.0" type="line"/>
      <point x="1938.0" y="159.0" type="line"/>
      <point x="2116.0" y="124.0" type="line"/>
      <point x="2116.0" y="0.0" type="line"/>
      <point x="1272.0" y="0.0" type="line"/>
      <point x="1272.0" y="124.0" type="line"/>
      <point x="1450.0" y="159.0" type="line"/>
      <point x="1452.0" y="552.0" type="line"/>
      <point x="1450.0" y="850.0" type="line"/>
      <point x="1422.0" y="877.0" type="line"/>
      <point x="810.0" y="874.0" type="line"/>
      <point x="809.0" y="552.0" type="line"/>
      <point x="808.0" y="159.0" type="line"/>
      <point x="1005.0" y="124.0" type="line"/>
      <point x="1005.0" y="0.0" type="line"/>
    </contour>
    <contour>
      <point x="1366.0" y="1329.0" type="qcurve" smooth="yes"/>
      <point x="1366.0" y="1413.0"/>
      <point x="1514.0" y="1517.0"/>
      <point x="1651.0" y="1517.0" type="qcurve" smooth="yes"/>
      <point x="1782.0" y="1517.0"/>
      <point x="1941.0" y="1415.0"/>
      <point x="1940.0" y="1329.0" type="qcurve" smooth="yes"/>
      <point x="1940.0" y="1251.0"/>
      <point x="1792.0" y="1153.0"/>
      <point x="1653.0" y="1153.0" type="qcurve" smooth="yes"/>
      <point x="1523.0" y="1153.0"/>
      <point x="1366.0" y="1255.0"/>
    </contour>
  </outline>
</glyph>
<glyph name="be.locl" format="2">
  <advance width="1979"/>
  <outline>
    <contour>
      <point x="593.0" y="500.0" type="qcurve" smooth="yes"/>
      <point x="593.9746841203" y="280.3416506132"/>
      <point x="812.0" y="105.0"/>
      <point x="998.0" y="105.0" type="qcurve" smooth="yes"/>
      <point x="1180.0" y="105.0"/>
      <point x="1388.0" y="269.6955380577"/>
      <point x="1388.0" y="486.0" type="qcurve" smooth="yes"/>
      <point x="1388.0" y="687.3922651934"/>
      <point x="1180.0" y="847.0"/>
      <point x="1000.0" y="847.0" type="qcurve" smooth="yes"/>
      <point x="798.0" y="847.0"/>
      <point x="592.028734945" y="704.0806013236"/>
    </contour>
    <contour>
      <point x="80.0" y="485.0" type="qcurve" smooth="yes"/>
      <point x="80.0" y="673.9096385542"/>
      <point x="364.0" y="906.0"/>
      <point x="578.0" y="927.0" type="qcurve"/>
      <point x="578.0" y="932.0" type="line"/>
      <point x="356.9031498907" y="958.9205097276"/>
      <point x="144.0" y="1066.0"/>
      <point x="144.0" y="1190.0" type="qcurve" smooth="yes"/>
      <point x="144.0" y="1326.0"/>
      <point x="368.0" y="1472.0"/>
      <point x="741.0" y="1472.0" type="qcurve" smooth="yes"/>
      <point x="1386.0" y="1472.0" type="line" smooth="yes"/>
      <point x="1559.0" y="1472.0"/>
      <point x="1664.0" y="1509.0"/>
      <point x="1679.0" y="1537.0" type="qcurve"/>
      <point x="1816.0" y="1537.0" type="line"/>
      <point x="1812.7464038386" y="1313.1512970164001"/>
      <point x="1588.0" y="1110.0"/>
      <point x="1340.0" y="1110.0" type="qcurve" smooth="yes"/>
      <point x="744.0" y="1110.0" type="line" smooth="yes"/>
      <point x="572.0" y="1110.0"/>
      <point x="528.0" y="1092.3636363636"/>
      <point x="528.0" y="1080.0" type="qcurve" smooth="yes"/>
      <point x="528.0" y="1048.2658959538"/>
      <point x="630.2043888602" y="1050.6994393072"/>
      <point x="993.0" y="1013.0" type="qcurve" smooth="yes"/>
      <point x="1420.5701053991002" y="978.5668046162"/>
      <point x="1901.0" y="742.1493811634999"/>
      <point x="1901.0" y="491.0" type="qcurve" smooth="yes"/>
      <point x="1901.0" y="247.4318181818"/>
      <point x="1398.0" y="-37.0"/>
      <point x="1005.0" y="-37.0" type="qcurve" smooth="yes"/>
      <point x="594.0" y="-37.0"/>
      <point x="80.0" y="235.0"/>
    </contour>
  </outline>
</glyph>
<glyph name="breve.cyr" format="2">
  <advance width="1022"/>
  <outline>
    <contour>
      <point x="514.0" y="1171.0" type="qcurve" smooth="yes"/>
      <point x="320.4689265537" y="1171.0"/>
      <point x="80.0" y="1354.0"/>
      <point x="47.0" y="1488.0" type="qcurve"/>
      <point x="225.0" y="1570.0" type="line"/>
      <point x="254.42835762739998" y="1438.8307398984"/>
      <point x="398.5806451613" y="1333.0"/>
      <point x="514.0" y="1333.0" type="qcurve" smooth="yes"/>
      <point x="629.4193548387" y="1333.0"/>
      <point x="773.3701626057" y="1438.0820137706"/>
      <point x="803.0" y="1570.0" type="qcurve"/>
      <point x="981.0" y="1488.0" type="line"/>
      <point x="947.0" y="1352.0"/>
      <point x="707.5310734463" y="1171.0"/>
    </contour>
  </outline>
</glyph>
<glyph name="brevebelowcomb.case" format="2">
  <advance width="1024"/>
  <outline>
    <contour>
      <point x="854.0" y="-195.0" type="qcurve"/>
      <point x="929.0" y="-222.0" type="line"/>
      <point x="926.0" y="-337.0"/>
      <point x="696.0" y="-563.0"/>
      <point x="515.0" y="-563.0" type="qcurve" smooth="yes"/>
      <point x="318.0" y="-563.0"/>
      <point x="102.0" y="-367.0"/>
      <point x="96.0" y="-229.0" type="qcurve"/>
      <point x="174.0" y="-193.0" type="line"/>
      <point x="217.0" y="-275.0"/>
      <point x="382.0" y="-386.0"/>
      <point x="517.0" y="-386.0" type="qcurve" smooth="yes"/>
      <point x="655.0" y="-386.0"/>
      <point x="823.0" y="-266.0"/>
    </contour>
  </outline>
</glyph>
<glyph name="breveinvertedcomb.case" format="2">
  <advance width="1024"/>
  <outline>
    <contour>
      <point x="170.0" y="1595.0" type="qcurve"/>
      <point x="95.0" y="1622.0" type="line"/>
      <point x="98.0" y="1737.0"/>
      <point x="328.0" y="1963.0"/>
      <point x="509.0" y="1963.0" type="qcurve" smooth="yes"/>
      <point x="706.0" y="1963.0"/>
      <point x="922.0" y="1767.0"/>
      <point x="928.0" y="1629.0" type="qcurve"/>
      <point x="850.0" y="1593.0" type="line"/>
      <point x="807.0" y="1675.0"/>
      <point x="642.0" y="1786.0"/>
      <point x="507.0" y="1786.0" type="qcurve" smooth="yes"/>
      <point x="369.0" y="1786.0"/>
      <point x="201.0" y="1666.0"/>
    </contour>
  </outline>
</glyph>
<glyph name="commaaccentcomb.case" format="2">
  <advance width="1024"/>
  <outline>
    <contour>
      <point x="372.0" y="-649.0" type="line"/>
      <point x="416.0" y="-625.0"/>
      <point x="494.0" y="-544.0"/>
      <point x="522.0" y="-481.0" type="qcurve"/>
      <point x="448.0" y="-481.0"/>
      <point x="373.0" y="-396.0"/>
      <point x="373.0" y="-337.0" type="qcurve" smooth="yes"/>
      <point x="373.0" y="-280.0"/>
      <point x="455.0" y="-192.0"/>
      <point x="525.0" y="-192.0" type="qcurve" smooth="yes"/>
      <point x="594.0" y="-192.0"/>
      <point x="684.0" y="-271.0"/>
      <point x="684.0" y="-351.0" type="qcurve" smooth="yes"/>
      <point x="684.0" y="-457.0"/>
      <point x="520.0" y="-664.0"/>
      <point x="416.0" y="-704.0" type="qcurve"/>
    </contour>
  </outline>
</glyph>
<glyph name="dieresiscomb.case" format="2">
  <advance width="1024"/>
  <outline>
    <contour>
      <point x="89.0" y="1741.0" type="qcurve" smooth="yes"/>
      <point x="89.0" y="1814.0"/>
      <point x="169.0" y="1892.0"/>
      <point x="245.0" y="1892.0" type="qcurve" smooth="yes"/>
      <point x="317.0" y="1892.0"/>
      <point x="401.0" y="1808.0"/>
      <point x="401.0" y="1741.0" type="qcurve" smooth="yes"/>
      <point x="401.0" y="1667.0"/>
      <point x="321.0" y="1588.0"/>
      <point x="245.0" y="1588.0" type="qcurve" smooth="yes"/>
      <point x="173.0" y="1588.0"/>
      <point x="89.0" y="1671.0"/>
    </contour>
    <contour>
      <point x="623.0" y="1741.0" type="qcurve" smooth="yes"/>
      <point x="623.0" y="1814.0"/>
      <point x="704.0" y="1892.0"/>
      <point x="779.0" y="1892.0" type="qcurve" smooth="yes"/>
      <point x="851.0" y="1892.0"/>
      <point x="935.0" y="1808.0"/>
      <point x="935.0" y="1741.0" type="qcurve" smooth="yes"/>
      <point x="935.0" y="1667.0"/>
      <point x="856.0" y="1588.0"/>
      <point x="779.0" y="1588.0" type="qcurve" smooth="yes"/>
      <point x="707.0" y="1588.0"/>
      <point x="623.0" y="1671.0"/>
    </contour>
  </outline>
</glyph>
<glyph name="eight.tab" format="2">
  <advance width="1923"/>
  <outline>
    <contour>
      <point x="126.0" y="379.0" type="qcurve" smooth="yes"/>
      <point x="126.0" y="557.0"/>
      <point x="522.0" y="777.0"/>
      <point x="802.0" y="831.0" type="qcurve"/>
      <point x="931.0" y="775.0" type="line"/>
      <point x="806.0" y="713.0"/>
      <point x="591.0" y="515.0"/>
      <point x="591.0" y="357.0" type="qcurve" smooth="yes"/>
      <point x="591.0" y="232.0"/>
      <point x="773.0" y="115.0"/>
      <point x="952.0" y="115.0" type="qcurve" smooth="yes"/>
      <point x="1129.0" y="115.0"/>
      <point x="1322.0" y="223.0"/>
      <point x="1322.0" y="340.0" type="qcurve" smooth="yes"/>
      <point x="1322.0" y="441.0"/>
      <point x="1115.0" y="585.0"/>
      <point x="837.0" y="667.0" type="qcurve" smooth="yes"/>
      <point x="507.0" y="764.0"/>
      <point x="275.0" y="969.0"/>
      <point x="279.0" y="1141.0" type="qcurve" smooth="yes"/>
      <point x="283.0" y="1311.0"/>
      <point x="615.0" y="1515.0"/>
      <point x="966.0" y="1515.0" type="qcurve" smooth="yes"/>
      <point x="1316.0" y="1515.0"/>
      <point x="1650.0" y="1345.0"/>
      <point x="1650.0" y="1199.0" type="qcurve" smooth="yes"/>
      <point x="1650.0" y="1064.0"/>
      <point x="1368.0" y="870.0"/>
      <point x="1112.0" y="808.0" type="qcurve"/>
      <point x="959.0" y="861.0" type="line"/>
      <point x="1114.0" y="929.0"/>
      <point x="1253.0" y="1097.0"/>
      <point x="1253.0" y="1208.0" type="qcurve" smooth="yes"/>
      <point x="1253.0" y="1298.0"/>
      <point x="1098.0" y="1362.0"/>
      <point x="955.0" y="1362.0" type="qcurve" smooth="yes"/>
      <point x="810.0" y="1362.0"/>
      <point x="682.0" y="1308.0"/>
      <point x="682.0" y="1223.0" type="qcurve" smooth="yes"/>
      <point x="682.0" y="1125.0"/>
      <point x="883.0" y="991.0"/>
      <point x="1176.0" y="918.0" type="qcurve" smooth="yes"/>
      <point x="1480.0" y="841.0"/>
      <point x="1796.0" y="623.0"/>
      <point x="1796.0" y="433.0" type="qcurve" smooth="yes"/>
      <point x="1796.0" y="230.0"/>
      <point x="1393.0" y="-26.0"/>
      <point x="950.0" y="-26.0" type="qcurve" smooth="yes"/>
      <point x="509.0" y="-26.0"/>
      <point x="126.0" y="204.0"/>
    </contour>
  </outline>
</glyph>
<glyph name="el.bgr" format="2">
  <advance width="1934"/>
  <outline>
    <contour>
      <point x="1904.0" y="140.0" type="line"/>
      <point x="1904.0" y="0.0" type="line"/>
      <point x="992.0" y="0.0" type="line"/>
      <point x="992.0" y="140.0" type="line"/>
      <point x="1164.0" y="176.0" type="line"/>
      <point x="985.0" y="455.0" type="line"/>
      <point x="766.0" y="743.0" type="line"/>
      <point x="575.0" y="447.0" type="line"/>
      <point x="420.0" y="175.0" type="line"/>
      <point x="600.0" y="140.0" type="line"/>
      <point x="600.0" y="0.0" type="line"/>
      <point x="20.0" y="0.0" type="line"/>
      <point x="20.0" y="140.0" type="line"/>
      <point x="206.0" y="175.0" type="line"/>
      <point x="411.0" y="486.0" type="line"/>
      <point x="704.0" y="1050.0" type="line"/>
      <point x="1178.0" y="1050.0" type="line"/>
      <point x="1468.0" y="565.0" type="line"/>
      <point x="1722.0" y="175.0" type="line"/>
    </contour>
  </outline>
</glyph>
<glyph name="four.lf" format="2">
  <advance width="1711"/>
  <outline>
    <contour>
      <point x="60.0" y="536.0" type="line"/>
      <point x="993.0" y="1488.0" type="line"/>
      <point x="1336.0" y="1481.0" type="line"/>
      <point x="1397.0" y="1395.0" type="line"/>
      <point x="1390.0" y="515.0" type="line"/>
      <point x="1390.0" y="159.0" type="line"/>
      <point x="1651.0" y="124.0" type="line"/>
      <point x="1651.0" y="0.0" type="line"/>
      <point x="585.0" y="0.0" type="line"/>
      <point x="585.0" y="124.0" type="line"/>
      <point x="917.0" y="159.0" type="line"/>
      <point x="915.0" y="513.0" type="line"/>
      <point x="909.0" y="1175.0" type="line"/>
      <point x="298.0" y="603.0" type="line"/>
      <point x="301.0" y="585.0" type="line"/>
      <point x="1619.0" y="591.0" type="line"/>
      <point x="1619.0" y="434.0" type="line"/>
      <point x="88.0" y="409.0" type="line"/>
    </contour>
  </outline>
</glyph>
<glyph name="four.tab" format="2">
  <advance width="1923"/>
  <outline>
    <contour>
      <point x="125.0" y="536.0" type="line"/>
      <point x="1098.0" y="1488.0" type="line"/>
      <point x="1441.0" y="1481.0" type="line"/>
      <point x="1502.0" y="1430.0" type="line"/>
      <point x="1495.0" y="515.0" type="line"/>
      <point x="1495.0" y="159.0" type="line"/>
      <point x="1786.0" y="124.0" type="line"/>
      <point x="1786.0" y="0.0" type="line"/>
      <point x="650.0" y="0.0" type="line"/>
      <point x="650.0" y="124.0" type="line"/>
      <point x="1022.0" y="159.0" type="line"/>
      <point x="1020.0" y="513.0" type="line"/>
      <point x="1014.0" y="1175.0" type="line"/>
      <point x="363.0" y="603.0" type="line"/>
      <point x="366.0" y="585.0" type="line"/>
      <point x="1804.0" y="591.0" type="line"/>
      <point x="1804.0" y="434.0" type="line"/>
      <point x="153.0" y="409.0" type="line"/>
    </contour>
  </outline>
</glyph>
<glyph name="ghe.bgr" format="2">
  <advance width="1611"/>
  <outline>
    <contour>
      <point x="1524.0" y="750.0" type="qcurve" smooth="yes"/>
      <point x="1524.0" y="919.0"/>
      <point x="1188.0" y="1086.0"/>
      <point x="877.0" y="1086.0" type="qcurve" smooth="yes"/>
      <point x="705.0" y="1086.0"/>
      <point x="456.0" y="1044.0"/>
      <point x="379.0" y="1013.0" type="qcurve"/>
      <point x="352.0" y="1050.0" type="line"/>
      <point x="202.0" y="1050.0" type="line"/>
      <point x="202.0" y="755.0" type="line"/>
      <point x="371.0" y="755.0" type="line"/>
      <point x="393.0" y="809.0" type="line" smooth="yes"/>
      <point x="415.0" y="871.0"/>
      <point x="682.0" y="946.0"/>
      <point x="803.0" y="946.0" type="qcurve" smooth="yes"/>
      <point x="952.0" y="946.0"/>
      <point x="1090.0" y="897.0"/>
      <point x="1090.0" y="859.0" type="qcurve" smooth="yes"/>
      <point x="1090.0" y="821.0"/>
      <point x="983.6425607568" y="785.9030724484"/>
      <point x="735.0" y="746.0" type="qcurve" smooth="yes"/>
      <point x="429.0" y="691.0"/>
      <point x="105.0" y="514.0"/>
      <point x="105.0" y="304.0" type="qcurve" smooth="yes"/>
      <point x="105.0" y="138.0"/>
      <point x="448.0" y="-36.0"/>
      <point x="790.0" y="-36.0" type="qcurve" smooth="yes"/>
      <point x="973.0" y="-36.0"/>
      <point x="1265.0" y="23.0"/>
      <point x="1356.0" y="53.0" type="qcurve"/>
      <point x="1403.0" y="0.0" type="line"/>
      <point x="1533.0" y="0.0" type="line"/>
      <point x="1533.0" y="334.0" type="line"/>
      <point x="1369.0" y="334.0" type="line"/>
      <point x="1352.0" y="286.0" type="line" smooth="yes"/>
      <point x="1322.0" y="199.0"/>
      <point x="1042.0" y="102.0"/>
      <point x="885.0" y="102.0" type="qcurve" smooth="yes"/>
      <point x="720.0" y="102.0"/>
      <point x="571.0" y="152.0"/>
      <point x="571.0" y="235.0" type="qcurve" smooth="yes"/>
      <point x="571.0" y="300.0"/>
      <point x="776.0" y="373.0"/>
      <point x="995.0" y="395.0" type="qcurve" smooth="yes"/>
      <point x="1298.8211619957" y="437.3633341338"/>
      <point x="1524.0" y="592.0"/>
    </contour>
  </outline>
</glyph>
<glyph name="gravecomb.case" format="2">
  <advance width="1024"/>
  <outline>
    <contour>
      <point x="153.0" y="1944.0" type="qcurve" smooth="yes"/>
      <point x="153.0" y="1988.0"/>
      <point x="227.0" y="2073.0"/>
      <point x="289.0" y="2073.0" type="qcurve" smooth="yes"/>
      <point x="339.0" y="2073.0"/>
      <point x="440.0" y="1993.0"/>
      <point x="487.0" y="1935.0" type="qcurve" smooth="yes"/>
      <point x="712.0" y="1690.0" type="line"/>
      <point x="634.0" y="1602.0" type="line"/>
      <point x="282.0" y="1785.0" type="line" smooth="yes"/>
      <point x="226.0" y="1815.0"/>
      <point x="153.0" y="1910.0"/>
    </contour>
  </outline>
</glyph>
<glyph name="gravecombstack.case" format="2">
  <advance width="1024"/>
  <outline>
    <contour>
      <point x="112.0" y="1745.0" type="qcurve" smooth="yes"/>
      <point x="92.0" y="1782.0"/>
      <point x="126.0" y="1883.0"/>
      <point x="190.0" y="1908.0" type="qcurve" smooth="yes"/>
      <point x="239.0" y="1931.0"/>
      <point x="372.0" y="1918.0"/>
      <point x="442.0" y="1906.0" type="qcurve" smooth="yes"/>
      <point x="862.0" y="1763.0" type="line"/>
      <point x="848.0" y="1620.0" type="line"/>
      <point x="332.0" y="1622.0" type="line" smooth="yes"/>
      <point x="249.0" y="1628.0"/>
      <point x="133.0" y="1693.0"/>
    </contour>
  </outline>
</glyph>
<glyph name="hard.bgr" format="2">
  <advance width="1885"/>
  <outline>
    <contour>
      <point x="886.0" y="574.0" type="line" smooth="yes"/>
      <point x="810.0" y="512.0"/>
      <point x="764.0" y="396.0"/>
      <point x="763.0" y="336.0" type="qcurve" smooth="yes"/>
      <point x="762.0" y="233.0"/>
      <point x="921.0" y="122.0"/>
      <point x="1087.0" y="122.0" type="qcurve" smooth="yes"/>
      <point x="1258.0" y="122.0"/>
      <point x="1408.0" y="244.0"/>
      <point x="1408.0" y="345.0" type="qcurve" smooth="yes"/>
      <point x="1408.0" y="434.0"/>
      <point x="1283.2294372294" y="541.0"/>
      <point x="1076.0" y="541.0" type="qcurve" smooth="yes"/>
      <point x="639.0" y="541.0" type="line"/>
      <point x="639.0" y="701.0" type="line"/>
      <point x="1155.0" y="701.0" type="line" smooth="yes"/>
      <point x="1563.6019184652" y="701.0"/>
      <point x="1885.0" y="518.0"/>
      <point x="1885.0" y="349.0" type="qcurve" smooth="yes"/>
      <point x="1885.0" y="173.0"/>
      <point x="1474.0" y="-33.0"/>
      <point x="1087.0" y="-34.0" type="qcurve" smooth="yes"/>
      <point x="637.0" y="-35.0"/>
      <point x="285.0" y="173.0"/>
      <point x="285.0" y="378.0" type="qcurve" smooth="yes"/>
      <point x="285.0" y="452.0"/>
      <point x="327.0" y="595.0"/>
      <point x="458.0" y="693.0" type="qcurve" smooth="yes"/>
      <point x="700.0" y="890.0" type="line"/>
      <point x="281.0" y="890.0" type="line"/>
      <point x="230.0" y="632.0" type="line"/>
      <point x="76.0" y="632.0" type="line"/>
      <point x="76.0" y="1050.0" type="line"/>
      <point x="1266.0" y="1050.0" type="line"/>
      <point x="1266.0" y="911.0" type="line"/>
    </contour>
  </outline>
</glyph>
<glyph name="horizontalbarlc" format="2">
  <advance width="1430"/>
  <outline>
    <contour>
      <point x="527.0" y="655.0" type="line"/>
      <point x="8.0" y="655.0" type="line"/>
      <point x="22.0" y="777.0" type="line"/>
      <point x="542.0" y="777.0" type="line"/>
      <point x="1054.0" y="777.0" type="line"/>
      <point x="1054.0" y="655.0" type="line"/>
    </contour>
  </outline>
</glyph>
<glyph name="hornU" format="2">
  <advance width="2099"/>
  <outline>
    <contour>
      <point x="61.0" y="1357.0" type="line"/>
      <point x="61.0" y="1500.0" type="line"/>
      <point x="1006.0" y="1500.0" type="line"/>
      <point x="1006.0" y="1357.0" type="line"/>
      <point x="813.0" y="1323.0" type="line"/>
      <point x="810.0" y="864.0" type="line"/>
      <point x="812.0" y="579.0" type="line" smooth="yes"/>
      <point x="814.0" y="412.0"/>
      <point x="991.0" y="184.0"/>
      <point x="1294.0" y="184.0" type="qcurve" smooth="yes"/>
      <point x="1608.0" y="184.0"/>
      <point x="1820.0" y="414.0"/>
      <point x="1822.0" y="594.0" type="qcurve" smooth="yes"/>
      <point x="1823.0" y="864.0" type="line"/>
      <point x="1822.0" y="1323.0" type="line"/>
      <point x="1614.0" y="1357.0" type="line"/>
      <point x="1614.0" y="1500.0" type="line"/>
      <point x="1983.0" y="1500.0" type="line"/>
      <point x="1984.0" y="864.0" type="line"/>
      <point x="1986.0" y="578.0" type="line" smooth="yes"/>
      <point x="1988.0" y="333.0"/>
      <point x="1626.0" y="-26.0"/>
      <point x="1153.0" y="-26.0" type="qcurve" smooth="yes"/>
      <point x="672.0" y="-26.0"/>
      <point x="287.0" y="290.0"/>
      <point x="288.0" y="566.0" type="qcurve" smooth="yes"/>
      <point x="289.0" y="864.0" type="line"/>
      <point x="288.0" y="1323.0" type="line"/>
    </contour>
  </outline>
</glyph>
<glyph name="horncomb.case" format="2">
  <advance width="1024"/>
  <outline>
    <contour>
      <point x="223.0" y="1494.0" type="line"/>
      <point x="281.0" y="1475.0"/>
      <point x="441.0" y="1454.0"/>
      <point x="480.0" y="1454.0" type="qcurve" smooth="yes"/>
      <point x="560.0" y="1454.0"/>
      <point x="618.0" y="1508.0"/>
      <point x="618.0" y="1534.0" type="qcurve" smooth="yes"/>
      <point x="618.0" y="1594.0"/>
      <point x="608.0" y="1652.0"/>
      <point x="591.0" y="1730.0" type="qcurve"/>
      <point x="721.0" y="1730.0" type="line"/>
      <point x="757.0" y="1660.0"/>
      <point x="782.0" y="1598.0"/>
      <point x="782.0" y="1547.0" type="qcurve" smooth="yes"/>
      <point x="782.0" y="1455.0"/>
      <point x="638.0" y="1327.0"/>
      <point x="490.0" y="1327.0" type="qcurve" smooth="yes"/>
      <point x="444.0" y="1327.0"/>
      <point x="308.0" y="1357.0"/>
      <point x="223.0" y="1390.0" type="qcurve"/>
    </contour>
  </outline>
</glyph>
<glyph name="nine.tab" format="2">
  <advance width="1923"/>
  <outline>
    <contour>
      <point x="1816.0" y="836.0" type="qcurve" smooth="yes"/>
      <point x="1816.0" y="437.0"/>
      <point x="1081.0" y="-45.0"/>
      <point x="440.0" y="-58.0" type="qcurve"/>
      <point x="435.0" y="98.0" type="line"/>
      <point x="809.0" y="119.0"/>
      <point x="1313.0" y="507.0"/>
      <point x="1313.0" y="843.0" type="qcurve" smooth="yes"/>
      <point x="1313.0" y="1171.0"/>
      <point x="1120.0" y="1379.0"/>
      <point x="943.0" y="1379.0" type="qcurve" smooth="yes"/>
      <point x="748.0" y="1379.0"/>
      <point x="564.0" y="1220.0"/>
      <point x="564.0" y="1028.0" type="qcurve" smooth="yes"/>
      <point x="564.0" y="825.0"/>
      <point x="700.0" y="689.0"/>
      <point x="870.0" y="689.0" type="qcurve" smooth="yes"/>
      <point x="929.0" y="689.0"/>
      <point x="1043.0" y="711.0"/>
      <point x="1073.0" y="721.0" type="qcurve"/>
      <point x="1112.0" y="615.0" type="line"/>
      <point x="1071.0" y="584.0"/>
      <point x="873.0" y="530.0"/>
      <point x="751.0" y="530.0" type="qcurve" smooth="yes"/>
      <point x="450.0" y="530.0"/>
      <point x="116.0" y="762.0"/>
      <point x="116.0" y="1010.0" type="qcurve" smooth="yes"/>
      <point x="116.0" y="1239.0"/>
      <point x="575.0" y="1526.0"/>
      <point x="940.0" y="1526.0" type="qcurve" smooth="yes"/>
      <point x="1347.0" y="1526.0"/>
      <point x="1816.0" y="1191.0"/>
    </contour>
  </outline>
</glyph>
<glyph name="ringcomb.case" format="2">
  <advance width="1024"/>
  <outline>
    <contour>
      <point x="179.0" y="1847.0" type="qcurve" smooth="yes"/>
      <point x="179.0" y="1957.0"/>
      <point x="379.0" y="2121.0"/>
      <point x="512.0" y="2121.0" type="qcurve" smooth="yes"/>
      <point x="645.0" y="2121.0"/>
      <point x="845.0" y="1957.0"/>
      <point x="845.0" y="1847.0" type="qcurve" smooth="yes"/>
      <point x="845.0" y="1737.0"/>
      <point x="645.0" y="1573.0"/>
      <point x="512.0" y="1573.0" type="qcurve" smooth="yes"/>
      <point x="379.0" y="1573.0"/>
      <point x="179.0" y="1737.0"/>
    </contour>
    <contour>
      <point x="348.0" y="1847.0" type="qcurve" smooth="yes"/>
      <point x="348.0" y="1786.0"/>
      <point x="439.0" y="1713.0"/>
      <point x="512.0" y="1713.0" type="qcurve" smooth="yes"/>
      <point x="588.0" y="1713.0"/>
      <point x="676.0" y="1781.0"/>
      <point x="676.0" y="1847.0" type="qcurve" smooth="yes"/>
      <point x="676.0" y="1907.0"/>
      <point x="585.0" y="1981.0"/>
      <point x="512.0" y="1981.0" type="qcurve" smooth="yes"/>
      <point x="436.0" y="1981.0"/>
      <point x="348.0" y="1913.0"/>
    </contour>
  </outline>
</glyph>
<glyph name="shcha.bgr" format="2">
  <advance width="3182"/>
  <outline>
    <contour>
      <point x="1406.0" y="147.0" type="line"/>
      <point x="1291.0" y="61.0"/>
      <point x="944.0" y="-23.0"/>
      <point x="752.0" y="-23.0" type="qcurve" smooth="yes"/>
      <point x="462.0" y="-23.0"/>
      <point x="238.0" y="175.0"/>
      <point x="238.0" y="312.0" type="qcurve" smooth="yes"/>
      <point x="238.0" y="385.0"/>
      <point x="243.0" y="575.0"/>
      <point x="242.0" y="576.0" type="qcurve" smooth="yes"/>
      <point x="237.0" y="857.0" type="line"/>
      <point x="36.0" y="887.0" type="line"/>
      <point x="36.0" y="1020.0" type="line"/>
      <point x="591.0" y="1052.0" type="line"/>
      <point x="683.0" y="1052.0" type="line"/>
      <point x="736.0" y="1003.0" type="line"/>
      <point x="734.0" y="548.0" type="line"/>
      <point x="734.0" y="398.0" type="line" smooth="yes"/>
      <point x="734.0" y="305.0"/>
      <point x="842.0" y="229.0"/>
      <point x="992.0" y="229.0" type="qcurve" smooth="yes"/>
      <point x="1070.0" y="228.0"/>
      <point x="1285.0" y="280.0"/>
      <point x="1360.0" y="330.0" type="qcurve"/>
    </contour>
    <contour>
      <point x="2432.0" y="39.0" type="line"/>
      <point x="2408.0" y="134.0" type="line"/>
      <point x="2320.0" y="67.0"/>
      <point x="2000.0" y="-23.0"/>
      <point x="1837.0" y="-23.0" type="qcurve" smooth="yes"/>
      <point x="1567.0" y="-23.0"/>
      <point x="1323.0" y="175.0"/>
      <point x="1323.0" y="312.0" type="qcurve" smooth="yes"/>
      <point x="1323.0" y="385.0"/>
      <point x="1328.0" y="575.0"/>
      <point x="1327.0" y="576.0" type="qcurve" smooth="yes"/>
      <point x="1322.0" y="857.0" type="line"/>
      <point x="1121.0" y="887.0" type="line"/>
      <point x="1121.0" y="1020.0" type="line"/>
      <point x="1676.0" y="1052.0" type="line"/>
      <point x="1768.0" y="1052.0" type="line"/>
      <point x="1821.0" y="1003.0" type="line"/>
      <point x="1819.0" y="548.0" type="line"/>
      <point x="1819.0" y="398.0" type="line" smooth="yes"/>
      <point x="1819.0" y="305.0"/>
      <point x="1922.0" y="229.0"/>
      <point x="2067.0" y="229.0" type="qcurve" smooth="yes"/>
      <point x="2138.0" y="228.0"/>
      <point x="2336.0" y="278.0"/>
      <point x="2408.0" y="325.0" type="qcurve"/>
      <point x="2409.0" y="498.0" type="line"/>
      <point x="2407.0" y="857.0" type="line"/>
      <point x="2205.0" y="887.0" type="line"/>
      <point x="2205.0" y="1020.0" type="line"/>
      <point x="2758.0" y="1052.0" type="line"/>
      <point x="2850.0" y="1052.0" type="line"/>
      <point x="2903.0" y="1003.0" type="line"/>
      <point x="2900.0" y="498.0" type="line"/>
      <point x="2903.0" y="166.0" type="line"/>
      <point x="3127.0" y="166.0" type="line"/>
      <point x="3137.0" y="-318.0" type="line"/>
      <point x="2969.0" y="-318.0" type="line"/>
      <point x="2870.0" y="0.0" type="line"/>
      <point x="2492.0" y="0.0" type="line"/>
    </contour>
  </outline>
</glyph>
<glyph name="six.tab" format="2">
  <advance width="1923"/>
  <outline>
    <contour>
      <point x="99.0" y="666.0" type="qcurve" smooth="yes"/>
      <point x="99.0" y="1065.0"/>
      <point x="814.0" y="1547.0"/>
      <point x="1455.0" y="1560.0" type="qcurve"/>
      <point x="1460.0" y="1404.0" type="line"/>
      <point x="1086.0" y="1383.0"/>
      <point x="602.0" y="995.0"/>
      <point x="602.0" y="659.0" type="qcurve" smooth="yes"/>
      <point x="602.0" y="331.0"/>
      <point x="795.0" y="123.0"/>
      <point x="972.0" y="123.0" type="qcurve" smooth="yes"/>
      <point x="1157.0" y="123.0"/>
      <point x="1351.0" y="266.0"/>
      <point x="1351.0" y="464.0" type="qcurve" smooth="yes"/>
      <point x="1351.0" y="667.0"/>
      <point x="1215.0" y="803.0"/>
      <point x="1045.0" y="803.0" type="qcurve" smooth="yes"/>
      <point x="986.0" y="803.0"/>
      <point x="872.0" y="781.0"/>
      <point x="842.0" y="771.0" type="qcurve"/>
      <point x="803.0" y="877.0" type="line"/>
      <point x="844.0" y="908.0"/>
      <point x="1042.0" y="962.0"/>
      <point x="1164.0" y="962.0" type="qcurve" smooth="yes"/>
      <point x="1452.0" y="962.0"/>
      <point x="1799.0" y="746.0"/>
      <point x="1799.0" y="482.0" type="qcurve" smooth="yes"/>
      <point x="1799.0" y="237.0"/>
      <point x="1352.0" y="-24.0"/>
      <point x="963.0" y="-24.0" type="qcurve" smooth="yes"/>
      <point x="565.0" y="-24.0"/>
      <point x="99.0" y="311.0"/>
    </contour>
  </outline>
</glyph>
<glyph name="soft.bgr" format="2">
  <advance width="1855"/>
  <outline>
    <contour>
      <point x="1062.0" y="-34.0" type="qcurve" smooth="yes"/>
      <point x="585.0" y="-35.0"/>
      <point x="236.0" y="172.0"/>
      <point x="236.0" y="367.0" type="qcurve" smooth="yes"/>
      <point x="236.0" y="445.0"/>
      <point x="242.0" y="562.0"/>
      <point x="242.0" y="554.0" type="qcurve" smooth="yes"/>
      <point x="236.0" y="857.0" type="line"/>
      <point x="36.0" y="887.0" type="line"/>
      <point x="36.0" y="1020.0" type="line"/>
      <point x="592.0" y="1052.0" type="line"/>
      <point x="683.0" y="1052.0" type="line"/>
      <point x="736.0" y="1003.0" type="line"/>
      <point x="735.0" y="701.0" type="line"/>
      <point x="1125.0" y="701.0" type="line" smooth="yes"/>
      <point x="1533.0" y="702.0"/>
      <point x="1855.0" y="518.0"/>
      <point x="1855.0" y="349.0" type="qcurve" smooth="yes"/>
      <point x="1855.0" y="173.0"/>
      <point x="1447.0" y="-33.0"/>
    </contour>
    <contour>
      <point x="1062.0" y="122.0" type="qcurve" smooth="yes"/>
      <point x="1230.0" y="122.0"/>
      <point x="1378.0" y="244.0"/>
      <point x="1378.0" y="345.0" type="qcurve" smooth="yes"/>
      <point x="1378.0" y="434.0"/>
      <point x="1253.0" y="540.0"/>
      <point x="1046.0" y="541.0" type="qcurve" smooth="yes"/>
      <point x="735.0" y="541.0" type="line"/>
      <point x="735.0" y="358.0" type="line" smooth="yes"/>
      <point x="735.0" y="239.0"/>
      <point x="890.0" y="122.0"/>
    </contour>
  </outline>
</glyph>
<glyph name="two.tab" format="2">
  <advance width="1923"/>
  <outline>
    <contour>
      <point x="209.0" y="0.0" type="line"/>
      <point x="209.0" y="156.0" type="line"/>
      <point x="225.0" y="284.0"/>
      <point x="498.0" y="561.0"/>
      <point x="733.0" y="670.0" type="qcurve" smooth="yes"/>
      <point x="961.0" y="776.0"/>
      <point x="1175.0" y="937.0"/>
      <point x="1175.0" y="1073.0" type="qcurve" smooth="yes"/>
      <point x="1175.0" y="1180.0"/>
      <point x="1000.0" y="1274.0"/>
      <point x="812.0" y="1274.0" type="qcurve" smooth="yes"/>
      <point x="673.0" y="1274.0"/>
      <point x="409.0" y="1182.0"/>
      <point x="314.0" y="1113.0" type="qcurve"/>
      <point x="225.0" y="1290.0" type="line"/>
      <point x="338.0" y="1386.0"/>
      <point x="738.0" y="1526.0"/>
      <point x="1021.0" y="1526.0" type="qcurve" smooth="yes"/>
      <point x="1343.0" y="1526.0"/>
      <point x="1664.0" y="1323.0"/>
      <point x="1669.0" y="1147.0" type="qcurve" smooth="yes"/>
      <point x="1675.0" y="948.0"/>
      <point x="1439.0" y="731.0"/>
      <point x="1108.0" y="596.0" type="qcurve" smooth="yes"/>
      <point x="844.0" y="499.0"/>
      <point x="571.0" y="391.0"/>
      <point x="529.0" y="335.0" type="qcurve"/>
      <point x="531.0" y="318.0" type="line"/>
      <point x="1723.0" y="318.0" type="line"/>
      <point x="1723.0" y="0.0" type="line"/>
    </contour>
  </outline>
</glyph>
<glyph name="ve.bgr" format="2">
  <advance width="1881"/>
  <outline>
    <contour>
      <point x="121.0" y="470.0" type="qcurve" smooth="yes"/>
      <point x="121.0" y="1032.0" type="line" smooth="yes"/>
      <point x="121.0" y="1262.3496932515"/>
      <point x="518.0" y="1511.0"/>
      <point x="924.0" y="1511.0" type="qcurve" smooth="yes"/>
      <point x="1322.0" y="1511.0"/>
      <point x="1729.0" y="1314.1836734694"/>
      <point x="1728.0" y="1140.0" type="qcurve" smooth="yes"/>
      <point x="1727.0" y="993.0"/>
      <point x="1557.0" y="835.0"/>
      <point x="1428.0" y="802.0" type="qcurve"/>
      <point x="1428.0" y="798.0" type="line"/>
      <point x="1612.0" y="774.0"/>
      <point x="1800.0" y="592.0"/>
      <point x="1800.0" y="451.0" type="qcurve" smooth="yes"/>
      <point x="1800.0" y="204.0"/>
      <point x="1360.0" y="-31.0"/>
      <point x="955.0" y="-31.0" type="qcurve" smooth="yes"/>
      <point x="514.0" y="-31.0"/>
      <point x="121.0" y="244.0"/>
    </contour>
    <contour>
      <point x="924.0" y="1345.0" type="qcurve" smooth="yes"/>
      <point x="768.0" y="1345.0"/>
      <point x="607.0" y="1232.8674698795"/>
      <point x="607.0" y="1112.0" type="qcurve" smooth="yes"/>
      <point x="607.0" y="864.0" type="line"/>
      <point x="989.0" y="864.0" type="line" smooth="yes"/>
      <point x="1113.0" y="864.0"/>
      <point x="1229.0" y="994.0187265918"/>
      <point x="1229.0" y="1129.0" type="qcurve" smooth="yes"/>
      <point x="1229.0" y="1242.856"/>
      <point x="1078.0" y="1345.0"/>
    </contour>
    <contour>
      <point x="607.0" y="437.0" type="line" smooth="yes"/>
      <point x="607.0" y="269.0"/>
      <point x="782.0" y="129.0"/>
      <point x="955.0" y="129.0" type="qcurve" smooth="yes"/>
      <point x="1125.0" y="129.0"/>
      <point x="1302.0" y="261.0"/>
      <point x="1302.0" y="432.0" type="qcurve" smooth="yes"/>
      <point x="1302.0" y="562.0555555556"/>
      <point x="1147.0" y="708.0"/>
      <point x="998.0" y="708.0" type="qcurve" smooth="yes"/>
      <point x="607.0" y="708.0" type="line"/>
    </contour>
  </outline>
</glyph>
